<?xml version="1.0" encoding="UTF-8" standalone="no"?>
<svg
   xmlns:dc="http://purl.org/dc/elements/1.1/"
   xmlns:cc="http://creativecommons.org/ns#"
   xmlns:rdf="http://www.w3.org/1999/02/22-rdf-syntax-ns#"
   xmlns:svg="http://www.w3.org/2000/svg"
   xmlns="http://www.w3.org/2000/svg"
   xmlns:sodipodi="http://sodipodi.sourceforge.net/DTD/sodipodi-0.dtd"
   xmlns:inkscape="http://www.inkscape.org/namespaces/inkscape"
   version="1.1"
   viewBox="0 0 379 142"
   stroke-miterlimit="10"
   id="svg723"
   sodipodi:docname="1.svg"
   width="379"
   height="142"
   style="fill:none;stroke:none;stroke-linecap:square;stroke-miterlimit:10"
   inkscape:version="0.92.4 (5da689c313, 2019-01-14)">
  <metadata
     id="metadata729">
    <rdf:RDF>
      <cc:Work
         rdf:about="">
        <dc:format>image/svg+xml</dc:format>
        <dc:type
           rdf:resource="http://purl.org/dc/dcmitype/StillImage" />
        <dc:title />
      </cc:Work>
    </rdf:RDF>
  </metadata>
  <defs
     id="defs727" />
  <sodipodi:namedview
     pagecolor="#ffffff"
     bordercolor="#666666"
     borderopacity="1"
     objecttolerance="10"
     gridtolerance="10"
     guidetolerance="10"
     inkscape:pageopacity="0"
     inkscape:pageshadow="2"
     inkscape:window-width="1920"
     inkscape:window-height="1057"
     id="namedview725"
     showgrid="false"
     fit-margin-top="0"
     fit-margin-left="0"
     fit-margin-right="0"
     fit-margin-bottom="0"
     inkscape:zoom="1.1833333"
     inkscape:cx="-101.04918"
     inkscape:cy="-118.5527"
     inkscape:window-x="-8"
     inkscape:window-y="-8"
     inkscape:window-maximized="1"
     inkscape:current-layer="g721" />
  <clipPath
     id="ga58203b355_0_965.0">
    <path
       d="M 0,0 H 960 V 540 H 0 Z"
       id="path2"
       inkscape:connector-curvature="0"
       style="clip-rule:nonzero" />
  </clipPath>
  <g
     clip-path="url(#ga58203b355_0_965.0)"
     id="g721"
     transform="translate(-306.40128,-9.4473019)">
    <path
       d="m 523.31965,86.81675 -45.11114,-3.784724 7.81733,6.007444 -15.32018,4.27755 15.63465,12.01488 15.32017,-4.27755 7.81731,6.00743 z"
       id="path291"
       inkscape:connector-curvature="0"
       style="fill:#3d1733;fill-rule:evenodd;stroke-width:1.07913017" />
    <path
       d="m 523.31965,86.81675 -45.11114,-3.784724 7.81733,6.007444 -15.32018,4.27755 15.63465,12.01488 15.32017,-4.27755 7.81731,6.00743 z"
       id="path293"
       inkscape:connector-curvature="0"
       style="fill-rule:evenodd;stroke:#3d1733;stroke-width:2.15826035;stroke-linecap:butt;stroke-linejoin:round" />
    <path
       d="m 522.19061,82.758458 -45.11114,-3.784718 7.81733,6.00744 -15.32018,4.27755 15.63465,12.01488 15.32017,-4.27755 7.81731,6.00744 z"
       id="path295"
       inkscape:connector-curvature="0"
       style="fill:#d49d48;fill-rule:evenodd;stroke-width:1.07913017" />
    <path
       d="m 522.19061,82.758458 -45.11114,-3.784718 7.81733,6.00744 -15.32018,4.27755 15.63465,12.01488 15.32017,-4.27755 7.81731,6.00744 z"
       id="path297"
       inkscape:connector-curvature="0"
       style="fill-rule:evenodd;stroke:#3d1733;stroke-width:2.15826035;stroke-linecap:butt;stroke-linejoin:round" />
    <path
       d="m 309.42636,83.984922 47.56659,13.673218 0.11566,18.27492 -47.56659,-13.67323 z"
       id="path299"
       inkscape:connector-curvature="0"
       style="fill:#e9edee;fill-rule:evenodd;stroke-width:1.07913017" />
    <path
       d="m 356.99295,97.65814 8.188,-6.2066 0.11565,18.27492 -8.18799,6.2066 z"
       id="path301"
       inkscape:connector-curvature="0"
       style="fill:#babdbe;fill-rule:evenodd;stroke-width:1.07913017" />
    <path
       d="m 309.42636,83.984922 8.188,-6.206596 47.56659,13.673214 -8.188,6.2066 z"
       id="path303"
       inkscape:connector-curvature="0"
       style="fill:#edf0f1;fill-rule:evenodd;stroke-width:1.07913017" />
    <path
       d="m 309.42636,83.984922 8.188,-6.206596 47.56659,13.673214 0.11566,18.27492 -8.188,6.2066 -47.56659,-13.67323 z m 0,0 47.56659,13.673218 8.188,-6.2066 m -8.188,6.2066 0.11566,18.27492"
       id="path305"
       inkscape:connector-curvature="0"
       style="fill:#000000;fill-opacity:0;fill-rule:evenodd;stroke-width:1.07913017" />
    <path
       d="m 309.42636,83.984922 8.188,-6.206596 47.56659,13.673214 0.11566,18.27492 -8.188,6.2066 -47.56659,-13.67323 z m 0,0 47.56659,13.673218 8.188,-6.2066 m -8.188,6.2066 0.11566,18.27492"
       id="path307"
       inkscape:connector-curvature="0"
       style="fill-rule:evenodd;stroke:#434343;stroke-width:2.15826035;stroke-linecap:butt;stroke-linejoin:round" />
    <path
       d="m 328.68205,100.6676 0.006,0.98426 -4.27816,-1.22977 -0.005,-0.79092 2.28611,-1.71132 q 0.38636,-0.29246 0.51414,-0.55399 0.14395,-0.25687 0.14203,-0.55566 -0.003,-0.43941 -0.27969,-0.74708 -0.27706,-0.32526 -0.79561,-0.47433 -0.89128,-0.25619 -1.35701,0.27661 l -0.76566,-0.85168 q 0.3372,-0.39431 0.90262,-0.5125 0.58159,-0.11352 1.29461,0.0914 0.95612,0.27484 1.51021,0.92535 0.57029,0.65517 0.57554,1.48125 0.003,0.52728 -0.18825,0.92837 -0.19166,0.38351 -0.7552,0.80048 l -1.54555,1.15224 z m 3.02817,1.94066 q -0.69685,-0.20033 -1.25014,-0.7278 -0.55343,-0.54505 -0.866,-1.37176 -0.31256,-0.82671 -0.31891,-1.82854 -0.006,-1.01942 0.29688,-1.65155 0.30324,-0.64969 0.85176,-0.87798 0.54853,-0.22829 1.24535,-0.0279 0.69682,0.2003 1.25025,0.74536 0.55342,0.54505 0.86599,1.37176 0.32867,0.81379 0.33512,1.83321 0.006,1.00184 -0.31309,1.64686 -0.30324,0.6497 -0.85177,0.87801 -0.54862,0.21071 -1.24544,0.0108 z m -0.006,-1.01943 q 0.61577,0.17702 0.96885,-0.26537 0.36917,-0.4553 0.36215,-1.5626 -0.006,-1.10729 -0.38331,-1.77687 -0.36004,-0.66492 -0.97584,-0.84194 -0.61581,-0.177 -0.96875,0.28295 -0.35296,0.45995 -0.34595,1.56726 0.007,1.10728 0.36706,1.77221 0.35999,0.64734 0.97579,0.82436 z m 5.08708,-3.88868 0.0399,6.29227 -1.06955,-0.30743 -0.0337,-5.32559 -1.23158,-0.35402 -0.006,-0.96669 z m 3.64756,3.64505 q 0.81093,0.33837 1.23536,0.95162 0.42433,0.59567 0.42891,1.31629 0.003,0.56244 -0.25281,0.9449 -0.25651,0.36486 -0.77343,0.47944 -0.51687,0.11457 -1.26232,-0.0997 -0.61581,-0.17701 -1.20039,-0.53806 -0.56842,-0.35636 -0.97566,-0.80676 l 0.44795,-0.78355 q 0.32589,0.37438 0.76451,0.67593 0.45478,0.28862 0.94093,0.42837 0.56719,0.16303 0.88973,0.0101 0.33863,-0.16582 0.33584,-0.60522 -0.003,-0.43941 -0.31223,-0.77398 -0.30946,-0.33457 -0.95764,-0.52091 l -0.53479,-0.15372 -0.005,-0.80849 1.31801,-1.32294 -2.64144,-0.75927 -0.006,-0.96669 3.95407,1.1366 0.005,0.77336 z"
       id="path309"
       inkscape:connector-curvature="0"
       style="fill:#000000;fill-rule:nonzero;stroke-width:1.07913017" />
    <path
       d="m 309.38209,65.672272 47.5666,13.673227 0.11565,18.274921 -47.56659,-13.673221 z"
       id="path311"
       inkscape:connector-curvature="0"
       style="fill:#e9edee;fill-rule:evenodd;stroke-width:1.07913017" />
    <path
       d="m 356.9487,79.345498 8.18799,-6.206595 0.11565,18.274927 -8.18799,6.20659 z"
       id="path313"
       inkscape:connector-curvature="0"
       style="fill:#babdbe;fill-rule:evenodd;stroke-width:1.07913017" />
    <path
       d="m 309.38209,65.672272 8.188,-6.206596 47.56659,13.673228 -8.18799,6.206595 z"
       id="path315"
       inkscape:connector-curvature="0"
       style="fill:#edf0f1;fill-rule:evenodd;stroke-width:1.07913017" />
    <path
       d="m 309.38209,65.672272 8.188,-6.206596 47.56659,13.673228 0.11566,18.274926 -8.188,6.20659 -47.56659,-13.673221 z m 0,0 47.5666,13.673227 8.18799,-6.206595 m -8.18799,6.206595 0.11565,18.274921"
       id="path317"
       inkscape:connector-curvature="0"
       style="fill:#000000;fill-opacity:0;fill-rule:evenodd;stroke-width:1.07913017" />
    <path
       d="m 309.38209,65.672272 8.188,-6.206596 47.56659,13.673228 0.11566,18.274926 -8.188,6.20659 -47.56659,-13.673221 z m 0,0 47.5666,13.673227 8.18799,-6.206595 m -8.18799,6.206595 0.11565,18.274921"
       id="path319"
       inkscape:connector-curvature="0"
       style="fill-rule:evenodd;stroke:#434343;stroke-width:2.15826035;stroke-linecap:butt;stroke-linejoin:round" />
    <path
       d="m 328.34742,82.271479 0.006,0.984268 -4.27815,-1.22978 -0.005,-0.790921 2.28611,-1.711319 q 0.38636,-0.292456 0.51411,-0.55398 0.14398,-0.256874 0.14206,-0.55567 -0.003,-0.439401 -0.27968,-0.747088 -0.27707,-0.325257 -0.79562,-0.474317 -0.89128,-0.256208 -1.35701,0.276599 l -0.76566,-0.851674 q 0.3372,-0.394317 0.90259,-0.512496 0.58163,-0.113518 1.29465,0.09144 0.95608,0.274829 1.51017,0.925344 0.57032,0.655175 0.57554,1.481259 0.003,0.527282 -0.18821,0.928367 -0.19171,0.383507 -0.75521,0.80048 l -1.54558,1.152241 z m 3.02814,1.940651 q -0.69681,-0.2003 -1.25011,-0.727782 -0.55343,-0.545057 -0.866,-1.37176 -0.31259,-0.826711 -0.31891,-1.828549 -0.006,-1.019423 0.29689,-1.651537 0.3032,-0.649699 0.85173,-0.877995 0.54855,-0.228296 1.24538,-0.02799 0.69681,0.200303 1.25025,0.74536 0.55341,0.545057 0.86598,1.37176 0.32866,0.813794 0.33512,1.83321 0.006,1.001845 -0.31309,1.646877 -0.30324,0.649691 -0.85176,0.877986 -0.54866,0.21073 -1.24548,0.0105 z m -0.006,-1.019414 q 0.61581,0.17701 0.96888,-0.265371 0.36917,-0.455299 0.36215,-1.562595 -0.007,-1.107303 -0.3833,-1.776878 -0.36005,-0.664922 -0.97585,-0.841934 -0.6158,-0.177012 -0.96878,0.282947 -0.35293,0.459951 -0.34592,1.567255 0.007,1.107295 0.36706,1.772218 0.35999,0.647344 0.97576,0.824358 z m 5.08711,-3.88868 0.0399,6.292274 -1.06955,-0.30744 -0.0337,-5.325585 -1.23162,-0.354032 -0.006,-0.966691 z m 4.94642,4.404385 q 0.45505,0.341349 0.7006,0.797899 0.24552,0.45655 0.24874,0.96626 0.003,0.58001 -0.28522,0.93557 -0.28905,0.33798 -0.83857,0.40809 -0.53333,0.0748 -1.24636,-0.1302 -0.71302,-0.20496 -1.24921,-0.58718 -0.53625,-0.3822 -0.8306,-0.88788 -0.29448,-0.52326 -0.29813,-1.10327 -0.003,-0.509712 0.23737,-0.826514 0.24063,-0.316802 0.69306,-0.397289 -0.35784,-0.313394 -0.55442,-0.703239 -0.1805,-0.402764 -0.18326,-0.842165 -0.003,-0.52729 0.26969,-0.83478 0.27293,-0.32506 0.75777,-0.396226 0.48469,-0.08875 1.11671,0.09293 0.6482,0.186332 1.1358,0.554573 0.5037,0.355317 0.78174,0.838757 0.27792,0.46587 0.28125,0.993151 0.003,0.43941 -0.18956,0.717458 -0.19235,0.278049 -0.5474,0.404058 z m -1.45595,-2.576454 q -0.50239,-0.144409 -0.79262,2.31e-4 -0.29023,0.144647 -0.28756,0.56647 0.002,0.404254 0.2958,0.734171 0.29326,0.329918 0.79561,0.474319 0.51855,0.149068 0.80869,-0.01315 0.30634,-0.157565 0.3038,-0.561819 -0.002,-0.421823 -0.31202,-0.738822 -0.29313,-0.31234 -0.8117,-0.4614 z m 0.0293,4.640113 q 0.5996,0.17235 0.93825,0.007 0.35474,-0.17873 0.35171,-0.65329 -0.003,-0.47455 -0.36116,-0.84068 -0.34198,-0.361465 -0.94158,-0.533817 -0.58339,-0.1677 -0.92201,-0.0018 -0.33864,0.165814 -0.33565,0.640367 0.003,0.47456 0.34511,0.85361 0.34196,0.36146 0.92533,0.52916 z"
       id="path321"
       inkscape:connector-curvature="0"
       style="fill:#000000;fill-rule:nonzero;stroke-width:1.07913017" />
    <path
       d="m 309.33965,47.360149 47.56659,13.673224 0.11566,18.274919 -47.56659,-13.673219 z"
       id="path323"
       inkscape:connector-curvature="0"
       style="fill:#e9edee;fill-rule:evenodd;stroke-width:1.07913017" />
    <path
       d="m 356.90623,61.033376 8.188,-6.206596 0.11568,18.27492 -8.18802,6.206595 z"
       id="path325"
       inkscape:connector-curvature="0"
       style="fill:#babdbe;fill-rule:evenodd;stroke-width:1.07913017" />
    <path
       d="m 309.33965,47.360149 8.188,-6.2066 47.56659,13.673228 -8.188,6.206596 z"
       id="path327"
       inkscape:connector-curvature="0"
       style="fill:#edf0f1;fill-rule:evenodd;stroke-width:1.07913017" />
    <path
       d="m 309.33965,47.360149 8.188,-6.2066 47.56659,13.673228 0.11569,18.27492 -8.18803,6.206595 -47.56659,-13.673219 z m 0,0 47.56659,13.673224 8.188,-6.206596 m -8.188,6.206596 0.11566,18.274919"
       id="path329"
       inkscape:connector-curvature="0"
       style="fill:#000000;fill-opacity:0;fill-rule:evenodd;stroke-width:1.07913017" />
    <path
       d="m 309.33965,47.360149 8.188,-6.2066 47.56659,13.673228 0.11569,18.27492 -8.18803,6.206595 -47.56659,-13.673219 z m 0,0 47.56659,13.673224 8.188,-6.206596 m -8.188,6.206596 0.11566,18.274919"
       id="path331"
       inkscape:connector-curvature="0"
       style="fill-rule:evenodd;stroke:#434343;stroke-width:2.15826035;stroke-linecap:butt;stroke-linejoin:round" />
    <path
       d="m 328.59538,64.042833 0.006,0.984269 -4.27815,-1.229781 -0.005,-0.79093 2.28611,-1.711309 q 0.38636,-0.292456 0.5141,-0.553989 0.14395,-0.256866 0.14207,-0.555661 -0.003,-0.439409 -0.27972,-0.747088 -0.27703,-0.325258 -0.79563,-0.474318 -0.89127,-0.256206 -1.35697,0.276599 l -0.76565,-0.851683 q 0.3372,-0.394307 0.90259,-0.512486 0.58161,-0.113526 1.29463,0.09144 0.9561,0.274837 1.51019,0.925351 0.57028,0.655175 0.57553,1.481252 0.003,0.527289 -0.18821,0.928374 -0.19171,0.383498 -0.75521,0.800481 l -1.54558,1.15224 z m 3.02813,1.940652 q -0.69682,-0.200304 -1.25011,-0.727783 -0.55343,-0.545057 -0.86603,-1.371767 -0.31256,-0.826703 -0.31888,-1.82855 -0.006,-1.019415 0.29688,-1.651537 0.30321,-0.649691 0.85173,-0.877987 0.54856,-0.228295 1.24538,-0.028 0.69682,0.200311 1.25026,0.745368 0.55338,0.545057 0.86599,1.37176 0.32866,0.813785 0.33511,1.83321 0.006,1.001837 -0.31309,1.646877 -0.30323,0.64969 -0.85175,0.877987 -0.54867,0.210718 -1.24549,0.01047 z m -0.006,-1.019416 q 0.6158,0.177011 0.96887,-0.265369 0.36914,-0.455299 0.36215,-1.562595 -0.007,-1.107304 -0.38331,-1.776878 -0.36006,-0.664923 -0.97584,-0.841935 -0.61581,-0.177011 -0.96878,0.28294 -0.35292,0.459958 -0.34591,1.567254 0.006,1.107304 0.36705,1.772227 0.35996,0.647336 0.97577,0.824356 z m 5.0871,-3.888678 0.0399,6.292276 -1.06955,-0.307449 -0.0337,-5.325587 -1.23161,-0.354023 -0.006,-0.966691 z m 5.39862,6.85021 0.006,0.984268 -4.27818,-1.22978 -0.005,-0.79093 2.28613,-1.71131 q 0.38637,-0.292456 0.51412,-0.55398 0.14394,-0.256874 0.14206,-0.55567 -0.003,-0.439409 -0.27972,-0.747088 -0.27704,-0.325258 -0.79562,-0.474317 -0.89129,-0.256208 -1.35702,0.276599 l -0.76564,-0.851684 q 0.33719,-0.394307 0.90262,-0.512486 0.58158,-0.113526 1.29463,0.09143 0.95609,0.274838 1.51019,0.925353 0.57028,0.655175 0.57552,1.481252 0.003,0.527289 -0.18823,0.928374 -0.19168,0.383506 -0.75518,0.80048 l -1.54558,1.152241 z"
       id="path333"
       inkscape:connector-curvature="0"
       style="fill:#000000;fill-rule:nonzero;stroke-width:1.07913017" />
    <path
       d="m 309.22689,29.027677 47.56659,13.673225 0.11566,18.274922 -47.56659,-13.673227 z"
       id="path335"
       inkscape:connector-curvature="0"
       style="fill:#999999;fill-rule:evenodd;stroke-width:1.07913017" />
    <path
       d="m 356.79348,42.700902 8.188,-6.2066 0.11565,18.274918 -8.18799,6.206604 z"
       id="path337"
       inkscape:connector-curvature="0"
       style="fill:#7a7a7a;fill-rule:evenodd;stroke-width:1.07913017" />
    <path
       d="m 309.22689,29.027677 8.188,-6.2066 47.56659,13.673225 -8.188,6.2066 z"
       id="path339"
       inkscape:connector-curvature="0"
       style="fill:#adadad;fill-rule:evenodd;stroke-width:1.07913017" />
    <path
       d="m 309.22689,29.027677 8.188,-6.2066 47.56659,13.673225 0.11566,18.274918 -8.188,6.206604 -47.56659,-13.673227 z m 0,0 47.56659,13.673225 8.188,-6.2066 m -8.188,6.2066 0.11566,18.274922"
       id="path341"
       inkscape:connector-curvature="0"
       style="fill:#000000;fill-opacity:0;fill-rule:evenodd;stroke-width:1.07913017" />
    <path
       d="m 309.22689,29.027677 8.188,-6.2066 47.56659,13.673225 0.11566,18.274918 -8.188,6.206604 -47.56659,-13.673227 z m 0,0 47.56659,13.673225 8.188,-6.2066 m -8.188,6.2066 0.11566,18.274922"
       id="path343"
       inkscape:connector-curvature="0"
       style="fill-rule:evenodd;stroke:#434343;stroke-width:2.15826035;stroke-linecap:butt;stroke-linejoin:round" />
    <path
       d="m 356.04262,97.47059 47.5666,13.67322 0.11565,18.27491 -47.56659,-13.67321 z"
       id="path345"
       inkscape:connector-curvature="0"
       style="fill:#e9edee;fill-rule:evenodd;stroke-width:1.07913017" />
    <path
       d="m 403.60922,111.14381 8.18799,-6.2066 0.11565,18.27492 -8.18799,6.20659 z"
       id="path347"
       inkscape:connector-curvature="0"
       style="fill:#babdbe;fill-rule:evenodd;stroke-width:1.07913017" />
    <path
       d="m 356.04262,97.47059 8.188,-6.2066 47.56659,13.67322 -8.18799,6.2066 z"
       id="path349"
       inkscape:connector-curvature="0"
       style="fill:#edf0f1;fill-rule:evenodd;stroke-width:1.07913017" />
    <path
       d="m 356.04262,97.47059 8.188,-6.2066 47.56659,13.67322 0.11566,18.27492 -8.188,6.20659 -47.56659,-13.67321 z m 0,0 47.5666,13.67322 8.18799,-6.2066 m -8.18799,6.2066 0.11565,18.27491"
       id="path351"
       inkscape:connector-curvature="0"
       style="fill:#000000;fill-opacity:0;fill-rule:evenodd;stroke-width:1.07913017" />
    <path
       d="m 356.04262,97.47059 8.188,-6.2066 47.56659,13.67322 0.11566,18.27492 -8.188,6.20659 -47.56659,-13.67321 z m 0,0 47.5666,13.67322 8.18799,-6.2066 m -8.18799,6.2066 0.11565,18.27491"
       id="path353"
       inkscape:connector-curvature="0"
       style="fill-rule:evenodd;stroke:#434343;stroke-width:2.15826035;stroke-linecap:butt;stroke-linejoin:round" />
    <path
       d="m 371.33948,112.57668 -1.02089,-0.29348 0.009,1.42368 -1.05331,-0.30279 -0.009,-1.42367 -3.1924,-0.91768 -0.005,-0.8085 2.84262,-3.23559 1.15057,0.33075 -2.66559,3.09348 1.89602,0.54502 -0.007,-1.26549 1.02094,0.29347 0.007,1.26549 1.02093,0.29346 z m 2.33587,-4.29357 q 1.19917,0.34471 1.85262,1.35713 0.66952,0.99949 0.6791,2.51104 0.006,1.05456 -0.34506,1.70787 -0.35173,0.65329 -0.9975,0.85364 -0.62956,0.205 -1.47222,-0.0372 -0.45374,-0.13043 -0.84336,-0.34769 -0.38958,-0.21726 -0.68249,-0.49444 l 0.38337,-0.76701 q 0.43941,0.42456 1.10383,0.61555 0.84267,0.24223 1.30916,-0.16755 0.46642,-0.42734 0.45974,-1.4819 l -1.4e-4,-0.0176 q -0.24093,0.26408 -0.64494,0.32338 -0.40415,0.0418 -0.89029,-0.098 -0.58341,-0.1677 -1.0386,-0.52662 -0.45528,-0.37651 -0.71737,-0.89044 -0.26217,-0.53151 -0.26573,-1.09394 -0.004,-0.61517 0.26869,-0.99296 0.28872,-0.39072 0.75709,-0.50168 0.48451,-0.12391 1.0841,0.0485 z m 0.10043,3.09913 q 0.5348,0.15371 0.857,-0.0519 0.32208,-0.22322 0.31907,-0.69777 -0.003,-0.45698 -0.32888,-0.84894 -0.30979,-0.3873 -0.87696,-0.55034 -0.50235,-0.14441 -0.82457,0.0612 -0.30614,0.19271 -0.30301,0.68485 0.003,0.49214 0.3129,0.87943 0.32589,0.37439 0.84445,0.52346 z m 5.61267,5.01696 q -0.69681,-0.2003 -1.25012,-0.72778 -0.55342,-0.54506 -0.86598,-1.37176 -0.31259,-0.82671 -0.31893,-1.82856 -0.006,-1.01942 0.2969,-1.65153 0.30321,-0.6497 0.85176,-0.878 0.54853,-0.22829 1.24535,-0.0279 0.69681,0.20031 1.25024,0.74536 0.55342,0.54506 0.86599,1.37177 0.32866,0.81379 0.33512,1.8332 0.006,1.00184 -0.31309,1.64688 -0.30324,0.64969 -0.85176,0.87798 -0.54863,0.21073 -1.24548,0.0108 z m -0.006,-1.01942 q 0.61581,0.17702 0.96888,-0.26537 0.36917,-0.45529 0.36216,-1.56258 -0.007,-1.10732 -0.38331,-1.77689 -0.36005,-0.66492 -0.97585,-0.84193 -0.6158,-0.17702 -0.96874,0.28295 -0.35297,0.45994 -0.34595,1.56725 0.006,1.10729 0.36706,1.77221 0.35998,0.64735 0.97575,0.82436 z m 3.27888,-1.09261 2.28493,0.65682 0.005,0.93155 -2.28492,-0.65682 z m 4.91956,-1.90169 0.0399,6.29227 -1.06955,-0.30746 -0.0337,-5.32558 -1.23158,-0.35402 -0.006,-0.96669 z m 3.62286,7.40994 q -0.69681,-0.2003 -1.25015,-0.72778 -0.5534,-0.54505 -0.86599,-1.37176 -0.31256,-0.82672 -0.31892,-1.82856 -0.006,-1.01941 0.29689,-1.65153 0.30324,-0.64969 0.85176,-0.878 0.54852,-0.22829 1.24534,-0.0279 0.69685,0.2003 1.25025,0.74536 0.55343,0.54505 0.86602,1.37175 0.32864,0.81379 0.33509,1.83322 0.006,1.00183 -0.31308,1.64687 -0.30322,0.64969 -0.85174,0.878 -0.54865,0.21071 -1.24547,0.0108 z m -0.006,-1.01941 q 0.6158,0.17701 0.96887,-0.26537 0.36914,-0.4553 0.36212,-1.5626 -0.006,-1.1073 -0.38326,-1.77688 -0.36009,-0.66492 -0.9759,-0.84194 -0.61576,-0.177 -0.96873,0.28295 -0.35294,0.45997 -0.34596,1.56726 0.007,1.1073 0.36711,1.77222 0.35994,0.64735 0.97575,0.82436 z"
       id="path355"
       inkscape:connector-curvature="0"
       style="fill:#000000;fill-rule:nonzero;stroke-width:1.07913017" />
    <path
       d="m 355.99836,79.15794 47.56659,13.67323 0.11569,18.27491 -47.56662,-13.67321 z"
       id="path357"
       inkscape:connector-curvature="0"
       style="fill:#e9edee;fill-rule:evenodd;stroke-width:1.07913017" />
    <path
       d="m 403.56496,92.83117 8.18803,-6.20661 0.11565,18.27492 -8.18799,6.2066 z"
       id="path359"
       inkscape:connector-curvature="0"
       style="fill:#babdbe;fill-rule:evenodd;stroke-width:1.07913017" />
    <path
       d="m 355.99836,79.15794 8.18799,-6.206595 47.56663,13.673215 -8.18803,6.20661 z"
       id="path361"
       inkscape:connector-curvature="0"
       style="fill:#edf0f1;fill-rule:evenodd;stroke-width:1.07913017" />
    <path
       d="m 355.99836,79.15794 8.18799,-6.206595 47.56663,13.673215 0.11566,18.27492 -8.188,6.2066 -47.56662,-13.67321 z m 0,0 47.56659,13.67323 8.18803,-6.20661 m -8.18803,6.20661 0.11569,18.27491"
       id="path363"
       inkscape:connector-curvature="0"
       style="fill:#000000;fill-opacity:0;fill-rule:evenodd;stroke-width:1.07913017" />
    <path
       d="m 355.99836,79.15794 8.18799,-6.206595 47.56663,13.673215 0.11566,18.27492 -8.188,6.2066 -47.56662,-13.67321 z m 0,0 47.56659,13.67323 8.18803,-6.20661 m -8.18803,6.20661 0.11569,18.27491"
       id="path365"
       inkscape:connector-curvature="0"
       style="fill-rule:evenodd;stroke:#434343;stroke-width:2.15826035;stroke-linecap:butt;stroke-linejoin:round" />
    <path
       d="m 368.02647,88.3594 q 1.19921,0.34471 1.85262,1.35713 0.66954,0.99949 0.6791,2.51104 0.006,1.05456 -0.34507,1.70786 -0.35172,0.65329 -0.99745,0.85365 -0.62957,0.205 -1.47225,-0.0372 -0.45374,-0.13045 -0.84333,-0.3477 -0.3896,-0.21726 -0.6825,-0.49443 l 0.38334,-0.76702 q 0.43945,0.42457 1.10385,0.61556 0.84269,0.24222 1.30917,-0.16755 0.46639,-0.42734 0.4597,-1.48192 l -1e-4,-0.0176 q -0.24095,0.26407 -0.64498,0.32337 -0.40411,0.0418 -0.8903,-0.098 -0.58335,-0.16771 -1.03855,-0.52663 -0.45532,-0.37649 -0.71736,-0.89043 -0.26217,-0.53151 -0.26573,-1.09396 -0.004,-0.61516 0.26868,-0.99295 0.2887,-0.39071 0.75709,-0.50168 0.48447,-0.1239 1.08407,0.0485 z m 0.10043,3.09912 q 0.53475,0.15373 0.85696,-0.0519 0.32211,-0.2232 0.31912,-0.69776 -0.003,-0.45698 -0.3289,-0.84894 -0.30979,-0.3873 -0.87699,-0.55035 -0.50235,-0.1444 -0.82456,0.0612 -0.30611,0.19271 -0.30301,0.68484 0.003,0.49214 0.31292,0.87944 0.32588,0.37438 0.84446,0.52345 z m 5.55438,1.22822 q 0.81093,0.33837 1.2354,0.95161 0.42434,0.59568 0.42888,1.3163 0.003,0.56244 -0.25282,0.94488 -0.25651,0.36488 -0.77339,0.47946 -0.51691,0.11458 -1.26234,-0.0997 -0.6158,-0.17701 -1.20041,-0.53804 -0.56842,-0.35637 -0.97566,-0.80678 l 0.44797,-0.78353 q 0.32588,0.37439 0.76454,0.67592 0.45476,0.28861 0.94091,0.42836 0.56716,0.16304 0.8897,0.0101 0.33864,-0.16581 0.33588,-0.60523 -0.003,-0.4394 -0.31223,-0.77397 -0.30947,-0.33457 -0.95768,-0.52091 l -0.53476,-0.15372 -0.005,-0.80851 1.31805,-1.32291 -2.64144,-0.7593 -0.006,-0.96668 3.95406,1.13661 0.005,0.77335 z m 4.80416,5.15296 q -0.69682,-0.2003 -1.25015,-0.72778 -0.55344,-0.54505 -0.866,-1.37175 -0.31256,-0.82672 -0.31891,-1.82857 -0.006,-1.01941 0.29687,-1.65152 0.30325,-0.6497 0.85178,-0.878 0.54852,-0.22829 1.24533,-0.028 0.69682,0.20031 1.25025,0.74537 0.55343,0.54504 0.866,1.37175 0.32867,0.8138 0.33512,1.83321 0.006,1.00185 -0.31309,1.64689 -0.30321,0.64969 -0.85177,0.87798 -0.54861,0.21071 -1.24543,0.0108 z m -0.006,-1.01941 q 0.6158,0.17701 0.96883,-0.26537 0.36918,-0.45529 0.36216,-1.56259 -0.006,-1.10731 -0.38327,-1.77688 -0.36008,-0.66492 -0.97589,-0.84194 -0.6158,-0.17701 -0.96874,0.28295 -0.35296,0.45995 -0.34595,1.56726 0.007,1.1073 0.36709,1.77221 0.35996,0.64735 0.97577,0.82436 z m 3.27885,-1.0926 2.28494,0.65681 0.005,0.93154 -2.28495,-0.65681 z m 5.40599,0.83466 q 0.81093,0.33835 1.23536,0.95161 0.42434,0.59567 0.42892,1.31629 0.003,0.56244 -0.25283,0.94489 -0.25651,0.36487 -0.77342,0.47944 -0.51691,0.11459 -1.26233,-0.0997 -0.61581,-0.17702 -1.20042,-0.53805 -0.56839,-0.35638 -0.97562,-0.80678 l 0.44794,-0.78354 q 0.32589,0.37439 0.76454,0.67593 0.45475,0.28861 0.9409,0.42836 0.5672,0.16303 0.88974,0.0101 0.33864,-0.16583 0.33584,-0.60523 -0.003,-0.43941 -0.31223,-0.77398 -0.30947,-0.33458 -0.95764,-0.5209 l -0.5348,-0.15372 -0.005,-0.80851 1.31802,-1.32291 -2.64145,-0.75929 -0.006,-0.9667 3.95406,1.13662 0.005,0.77335 z m 4.78735,1.37614 q 0.81094,0.33837 1.23537,0.95162 0.42433,0.59567 0.42891,1.31629 0.003,0.56243 -0.25286,0.94487 -0.25648,0.36488 -0.77338,0.47946 -0.51691,0.11459 -1.26234,-0.0997 -0.6158,-0.177 -1.20042,-0.53805 -0.56838,-0.35637 -0.97562,-0.80678 l 0.44795,-0.78351 q 0.32589,0.37437 0.76452,0.67591 0.45477,0.2886 0.94092,0.42837 0.56717,0.16303 0.88974,0.0101 0.33863,-0.16582 0.33583,-0.60523 -0.003,-0.4394 -0.31222,-0.77397 -0.30948,-0.33457 -0.95767,-0.52091 l -0.53477,-0.15371 -0.005,-0.80851 1.31803,-1.32292 -2.64145,-0.75929 -0.006,-0.9667 3.95406,1.13662 0.005,0.77335 z"
       id="path367"
       inkscape:connector-curvature="0"
       style="fill:#000000;fill-rule:nonzero;stroke-width:1.07913017" />
    <path
       d="M 355.95591,60.845813 403.52254,74.519041 403.6382,92.79396 356.0716,79.120741 Z"
       id="path369"
       inkscape:connector-curvature="0"
       style="fill:#e9edee;fill-rule:evenodd;stroke-width:1.07913017" />
    <path
       d="m 403.52254,74.51904 8.18799,-6.206604 0.11566,18.274924 -8.18799,6.2066 z"
       id="path371"
       inkscape:connector-curvature="0"
       style="fill:#babdbe;fill-rule:evenodd;stroke-width:1.07913017" />
    <path
       d="m 355.95591,60.845813 8.18803,-6.206596 47.56659,13.67322 -8.18799,6.206604 z"
       id="path373"
       inkscape:connector-curvature="0"
       style="fill:#edf0f1;fill-rule:evenodd;stroke-width:1.07913017" />
    <path
       d="m 355.95591,60.845813 8.18803,-6.206596 47.56659,13.67322 0.11567,18.274923 -8.188,6.2066 -47.5666,-13.673219 z m 0,0 47.56663,13.673228 8.18799,-6.206604 m -8.18799,6.206604 0.11566,18.274919"
       id="path375"
       inkscape:connector-curvature="0"
       style="fill:#000000;fill-opacity:0;fill-rule:evenodd;stroke-width:1.07913017" />
    <path
       d="m 355.95591,60.845813 8.18803,-6.206596 47.56659,13.67322 0.11567,18.274923 -8.188,6.2066 -47.5666,-13.673219 z m 0,0 47.56663,13.673228 8.18799,-6.206604 m -8.18799,6.206604 0.11566,18.274919"
       id="path377"
       inkscape:connector-curvature="0"
       style="fill-rule:evenodd;stroke:#434343;stroke-width:2.15826035;stroke-linecap:butt;stroke-linejoin:round" />
    <path
       d="m 369.07583,76.834929 q -0.69682,-0.200304 -1.25016,-0.727783 -0.55342,-0.545056 -0.86598,-1.371759 -0.31256,-0.826712 -0.31892,-1.82855 -0.006,-1.019422 0.29689,-1.651537 0.30324,-0.649699 0.85176,-0.877994 0.54852,-0.228296 1.24534,-0.02799 0.69683,0.200304 1.25024,0.74536 0.55344,0.545056 0.866,1.37176 0.32866,0.813793 0.33512,1.833209 0.006,1.001846 -0.31309,1.646878 -0.30321,0.64969 -0.85177,0.877987 -0.54862,0.210726 -1.24543,0.01047 z m -0.006,-1.019415 q 0.6158,0.177011 0.96888,-0.26537 0.36914,-0.4553 0.36212,-1.562595 -0.006,-1.107304 -0.38328,-1.776878 -0.36008,-0.664923 -0.97588,-0.841935 -0.6158,-0.177011 -0.96874,0.282948 -0.35298,0.45995 -0.34596,1.567255 0.006,1.107295 0.3671,1.772218 0.35995,0.647344 0.97576,0.824357 z m 8.33559,1.904869 -1.02094,-0.293469 0.009,1.423669 -1.05334,-0.302788 -0.009,-1.42367 -3.19243,-0.91768 -0.005,-0.808499 2.84264,-3.235587 1.15055,0.330732 -2.66558,3.093492 1.89598,0.545016 -0.007,-1.265487 1.02093,0.293469 0.007,1.265486 1.02093,0.29347 z m 2.23882,-1.795098 q 1.21536,0.349373 1.80209,1.044354 0.60284,0.682065 0.6085,1.578452 0.003,0.562437 -0.25283,0.944889 -0.25641,0.382445 -0.77319,0.514603 -0.50067,0.119232 -1.26233,-0.0997 -0.61581,-0.177011 -1.20038,-0.53805 -0.58462,-0.361029 -0.97567,-0.806779 l 0.44795,-0.783528 q 0.3259,0.374385 0.78076,0.680573 0.45474,0.288621 0.92468,0.423709 0.5834,0.167692 0.90594,0.0148 0.32244,-0.170483 0.31954,-0.627462 -0.003,-0.474556 -0.36107,-0.823104 -0.34186,-0.343889 -1.20075,-0.590775 l -1.40983,-0.405267 0.28618,-3.338855 3.4031,0.978233 0.006,0.966691 -2.49561,-0.717368 -0.1204,1.421554 z m 3.11712,1.790793 2.28491,0.656812 0.005,0.931535 -2.28492,-0.656812 z m 4.91955,-1.901709 0.0399,6.292277 -1.06955,-0.307449 -0.0337,-5.325587 -1.23157,-0.354023 -0.006,-0.966691 z m 5.39864,6.850211 0.006,0.984269 -4.27816,-1.229781 -0.005,-0.79093 2.2861,-1.711309 q 0.38636,-0.292456 0.51411,-0.553981 0.14397,-0.256874 0.14207,-0.555669 -0.003,-0.43941 -0.2797,-0.747088 -0.27706,-0.325258 -0.79561,-0.474318 -0.89128,-0.256208 -1.35702,0.276599 l -0.76564,-0.851683 q 0.33719,-0.394307 0.90257,-0.512487 0.58162,-0.113525 1.29465,0.09143 0.95613,0.274839 1.5102,0.925353 0.57031,0.655175 0.57554,1.481252 0.003,0.527289 -0.18824,0.928374 -0.1917,0.383507 -0.75521,0.800481 l -1.54556,1.15224 z"
       id="path379"
       inkscape:connector-curvature="0"
       style="fill:#000000;fill-rule:nonzero;stroke-width:1.07913017" />
    <path
       d="m 355.84314,42.513344 47.5666,13.673224 0.11565,18.274927 -47.56659,-13.673228 z"
       id="path381"
       inkscape:connector-curvature="0"
       style="fill:#999999;fill-rule:evenodd;stroke-width:1.07913017" />
    <path
       d="m 403.40975,56.186571 8.18799,-6.206595 0.11566,18.274918 -8.18799,6.206604 z"
       id="path383"
       inkscape:connector-curvature="0"
       style="fill:#7a7a7a;fill-rule:evenodd;stroke-width:1.07913017" />
    <path
       d="m 355.84314,42.513344 8.188,-6.206596 47.56659,13.673224 -8.18799,6.206596 z"
       id="path385"
       inkscape:connector-curvature="0"
       style="fill:#adadad;fill-rule:evenodd;stroke-width:1.07913017" />
    <path
       d="m 355.84314,42.513344 8.188,-6.206596 47.56659,13.673224 0.11567,18.274919 -8.18801,6.206604 -47.56659,-13.673228 z m 0,0 47.5666,13.673224 8.18799,-6.206596 m -8.18799,6.206596 0.11565,18.274927"
       id="path387"
       inkscape:connector-curvature="0"
       style="fill:#000000;fill-opacity:0;fill-rule:evenodd;stroke-width:1.07913017" />
    <path
       d="m 355.84314,42.513344 8.188,-6.206596 47.56659,13.673224 0.11567,18.274919 -8.18801,6.206604 -47.56659,-13.673228 z m 0,0 47.5666,13.673224 8.18799,-6.206596 m -8.18799,6.206596 0.11565,18.274927"
       id="path389"
       inkscape:connector-curvature="0"
       style="fill-rule:evenodd;stroke:#434343;stroke-width:2.15826035;stroke-linecap:butt;stroke-linejoin:round" />
    <path
       d="m 402.65889,110.95625 47.56659,13.67323 0.11566,18.27491 -47.56659,-13.67322 z"
       id="path391"
       inkscape:connector-curvature="0"
       style="fill:#e9edee;fill-rule:evenodd;stroke-width:1.07913017" />
    <path
       d="m 450.22548,124.62948 8.188,-6.2066 0.11569,18.27492 -8.18803,6.20659 z"
       id="path393"
       inkscape:connector-curvature="0"
       style="fill:#babdbe;fill-rule:evenodd;stroke-width:1.07913017" />
    <path
       d="m 402.65889,110.95625 8.18799,-6.20661 47.5666,13.67324 -8.188,6.2066 z"
       id="path395"
       inkscape:connector-curvature="0"
       style="fill:#edf0f1;fill-rule:evenodd;stroke-width:1.07913017" />
    <path
       d="m 402.65889,110.95625 8.18799,-6.20661 47.5666,13.67324 0.1157,18.27492 -8.18804,6.20659 -47.56659,-13.67322 z m 0,0 47.56659,13.67323 8.188,-6.2066 m -8.188,6.2066 0.11566,18.27491"
       id="path397"
       inkscape:connector-curvature="0"
       style="fill:#000000;fill-opacity:0;fill-rule:evenodd;stroke-width:1.07913017" />
    <path
       d="m 402.65889,110.95625 8.18799,-6.20661 47.5666,13.67324 0.1157,18.27492 -8.18804,6.20659 -47.56659,-13.67322 z m 0,0 47.56659,13.67323 8.188,-6.2066 m -8.188,6.2066 0.11566,18.27491"
       id="path399"
       inkscape:connector-curvature="0"
       style="fill-rule:evenodd;stroke:#434343;stroke-width:2.15826035;stroke-linecap:butt;stroke-linejoin:round" />
    <path
       d="m 420.4985,121.93351 0.0399,6.29229 -1.06954,-0.30744 -0.0337,-5.32558 -1.23157,-0.35404 -0.006,-0.96669 z m 3.62284,7.40997 q -0.69681,-0.20032 -1.25015,-0.7278 -0.5534,-0.54504 -0.86599,-1.37176 -0.31256,-0.82671 -0.31888,-1.82854 -0.006,-1.01943 0.29688,-1.65155 0.30321,-0.64969 0.85173,-0.87798 0.54853,-0.2283 1.24537,-0.0279 0.69682,0.2003 1.25026,0.74535 0.55339,0.54507 0.86598,1.37177 0.32868,0.81379 0.33513,1.8332 0.006,1.00184 -0.31312,1.64689 -0.30322,0.64969 -0.85174,0.87798 -0.54865,0.21072 -1.24547,0.0108 z m -0.006,-1.01942 q 0.6158,0.17701 0.96887,-0.26537 0.36914,-0.4553 0.36216,-1.5626 -0.007,-1.10731 -0.3833,-1.77686 -0.36009,-0.66494 -0.97586,-0.84195 -0.61579,-0.177 -0.96877,0.28294 -0.35293,0.45995 -0.34593,1.56726 0.006,1.1073 0.36707,1.77223 0.35996,0.64733 0.97576,0.82435 z m 5.08711,-3.88868 0.0399,6.29228 -1.06955,-0.30746 -0.0337,-5.32557 -1.2316,-0.35404 -0.006,-0.96668 z m 3.64752,3.64505 q 0.81094,0.33836 1.2354,0.9516 0.42433,0.59568 0.42889,1.31631 0.003,0.56243 -0.25282,0.94489 -0.25652,0.36487 -0.7734,0.47945 -0.5169,0.11458 -1.26233,-0.0997 -0.61581,-0.177 -1.20041,-0.53803 -0.56843,-0.35638 -0.97567,-0.80679 l 0.44798,-0.78354 q 0.32586,0.3744 0.76453,0.67593 0.45473,0.28862 0.94092,0.42837 0.56716,0.16304 0.8897,0.0101 0.33864,-0.16581 0.33587,-0.60521 -0.003,-0.4394 -0.31223,-0.77398 -0.30946,-0.33458 -0.95767,-0.52091 l -0.53477,-0.15371 -0.005,-0.80851 1.31806,-1.32292 -2.64144,-0.7593 -0.006,-0.96668 3.95407,1.1366 0.005,0.77337 z"
       id="path401"
       inkscape:connector-curvature="0"
       style="fill:#000000;fill-rule:nonzero;stroke-width:1.07913017" />
    <path
       d="m 402.61465,92.64361 47.5666,13.67322 0.11565,18.27492 -47.56658,-13.67322 z"
       id="path403"
       inkscape:connector-curvature="0"
       style="fill:#e9edee;fill-rule:evenodd;stroke-width:1.07913017" />
    <path
       d="m 450.18126,106.31683 8.18799,-6.2066 0.11566,18.27493 -8.188,6.20659 z"
       id="path405"
       inkscape:connector-curvature="0"
       style="fill:#babdbe;fill-rule:evenodd;stroke-width:1.07913017" />
    <path
       d="m 402.61465,92.64361 8.188,-6.2066 47.56659,13.67322 -8.18799,6.2066 z"
       id="path407"
       inkscape:connector-curvature="0"
       style="fill:#edf0f1;fill-rule:evenodd;stroke-width:1.07913017" />
    <path
       d="m 402.61465,92.64361 8.188,-6.2066 47.56659,13.67322 0.11567,18.27493 -8.18801,6.20659 -47.56658,-13.67322 z m 0,0 47.5666,13.67322 8.18799,-6.2066 m -8.18799,6.2066 0.11565,18.27492"
       id="path409"
       inkscape:connector-curvature="0"
       style="fill:#000000;fill-opacity:0;fill-rule:evenodd;stroke-width:1.07913017" />
    <path
       d="m 402.61465,92.64361 8.188,-6.2066 47.56659,13.67322 0.11567,18.27493 -8.18801,6.20659 -47.56658,-13.67322 z m 0,0 47.5666,13.67322 8.18799,-6.2066 m -8.18799,6.2066 0.11565,18.27492"
       id="path411"
       inkscape:connector-curvature="0"
       style="fill-rule:evenodd;stroke:#434343;stroke-width:2.15826035;stroke-linecap:butt;stroke-linejoin:round" />
    <path
       d="m 419.22322,105.86353 q 0.81091,0.33839 1.23536,0.95164 0.42433,0.59567 0.42891,1.31629 0.003,0.56244 -0.25283,0.94488 -0.25651,0.36488 -0.77342,0.47945 -0.51687,0.11458 -1.26233,-0.0997 -0.6158,-0.17701 -1.20038,-0.53804 -0.56842,-0.35638 -0.97565,-0.80678 l 0.44794,-0.78354 q 0.32589,0.37439 0.76457,0.67593 0.45472,0.28861 0.94087,0.42835 0.5672,0.16304 0.88973,0.0101 0.33865,-0.16581 0.33585,-0.60522 -0.003,-0.4394 -0.31223,-0.77399 -0.30944,-0.33456 -0.95764,-0.5209 l -0.5348,-0.15372 -0.005,-0.8085 1.31803,-1.32292 -2.64145,-0.75929 -0.006,-0.96669 3.95406,1.1366 0.005,0.77336 z m 4.98965,1.24133 q 0.58338,0.1677 1.03869,0.54418 0.45519,0.35894 0.71725,0.87287 0.26206,0.51394 0.26572,1.09395 0.004,0.61516 -0.2849,0.9883 -0.27258,0.37779 -0.75708,0.50169 -0.46841,0.11097 -1.06797,-0.0614 -1.1992,-0.34471 -1.86872,-1.3442 -0.65335,-0.99484 -0.66289,-2.50639 -0.006,-1.05458 0.34506,-1.70786 0.35172,-0.65329 0.98129,-0.85831 0.64564,-0.21791 1.48832,0.0243 0.45374,0.13044 0.84333,0.34769 0.38959,0.21726 0.68262,0.51203 l -0.38336,0.76701 q -0.43955,-0.44215 -1.10396,-0.63314 -0.84268,-0.24223 -1.30908,0.18511 -0.46638,0.42736 -0.4597,1.48193 v 0 q 0.24107,-0.24651 0.64518,-0.28824 0.40406,-0.0594 0.8902,0.0805 z m -0.1589,3.00702 q 0.50236,0.1444 0.80846,-0.0483 0.32221,-0.20562 0.31912,-0.69777 -0.003,-0.49213 -0.329,-0.86651 -0.3098,-0.3873 -0.82838,-0.53636 -0.53476,-0.15372 -0.85687,0.0695 -0.32222,0.20563 -0.3193,0.66262 0.003,0.47455 0.31278,0.86185 0.326,0.39196 0.89319,0.55501 z m 7.05452,-3.4284 0.005,0.77335 -2.21757,4.87142 -1.1668,-0.33539 2.1541,-4.67915 -2.28491,-0.65681 0.006,1.07215 -1.00473,-0.28881 -0.0129,-2.05642 z m 5.33009,6.39191 -1.02094,-0.29348 0.009,1.42367 -1.05336,-0.30278 -0.009,-1.42368 -3.19244,-0.91767 -0.005,-0.80851 2.84259,-3.23558 1.1506,0.33073 -2.66559,3.0935 1.89599,0.54502 -0.007,-1.26549 1.02093,0.29346 0.007,1.26549 1.02094,0.29347 z"
       id="path413"
       inkscape:connector-curvature="0"
       style="fill:#000000;fill-rule:nonzero;stroke-width:1.07913017" />
    <path
       d="m 402.57221,74.331488 47.56659,13.673222 0.11567,18.27492 -47.56659,-13.67322 z"
       id="path415"
       inkscape:connector-curvature="0"
       style="fill:#e9edee;fill-rule:evenodd;stroke-width:1.07913017" />
    <path
       d="m 450.1388,88.00471 8.18801,-6.2066 0.11564,18.27492 -8.18798,6.2066 z"
       id="path417"
       inkscape:connector-curvature="0"
       style="fill:#babdbe;fill-rule:evenodd;stroke-width:1.07913017" />
    <path
       d="m 402.57221,74.331488 8.188,-6.206596 47.5666,13.673219 -8.18801,6.206599 z"
       id="path419"
       inkscape:connector-curvature="0"
       style="fill:#edf0f1;fill-rule:evenodd;stroke-width:1.07913017" />
    <path
       d="m 402.57221,74.331488 8.188,-6.206596 47.5666,13.673219 0.11565,18.274919 -8.18799,6.2066 -47.56659,-13.67322 z m 0,0 47.56659,13.673222 8.18801,-6.206599 m -8.18801,6.206599 0.11567,18.27492"
       id="path421"
       inkscape:connector-curvature="0"
       style="fill:#000000;fill-opacity:0;fill-rule:evenodd;stroke-width:1.07913017" />
    <path
       d="m 402.57221,74.331488 8.188,-6.206596 47.5666,13.673219 0.11565,18.274919 -8.18799,6.2066 -47.56659,-13.67322 z m 0,0 47.56659,13.673222 8.18801,-6.206599 m -8.18801,6.206599 0.11567,18.27492"
       id="path423"
       inkscape:connector-curvature="0"
       style="fill-rule:evenodd;stroke:#434343;stroke-width:2.15826035;stroke-linecap:butt;stroke-linejoin:round" />
    <path
       d="m 420.02292,87.7935 q 0.81091,0.33837 1.23536,0.95162 0.42433,0.59568 0.42891,1.3163 0.003,0.56244 -0.25283,0.94488 -0.25651,0.36488 -0.77341,0.47945 -0.51692,0.11458 -1.26234,-0.0997 -0.6158,-0.17701 -1.20042,-0.53804 -0.56838,-0.35637 -0.97561,-0.80678 l 0.44794,-0.78354 q 0.32589,0.37439 0.76452,0.67592 0.45477,0.28862 0.94092,0.42837 0.5672,0.16303 0.88974,0.01 0.33864,-0.16581 0.33584,-0.60522 -0.003,-0.4394 -0.31223,-0.77398 -0.30948,-0.33457 -0.95764,-0.5209 l -0.5348,-0.15372 -0.005,-0.80851 1.31803,-1.32291 -2.64145,-0.7593 -0.006,-0.96669 3.95406,1.13661 0.005,0.77335 z m 7.54942,4.43332 -1.02094,-0.29347 0.009,1.42368 -1.05334,-0.30278 -0.009,-1.42368 -3.19244,-0.91767 -0.005,-0.80851 2.84262,-3.23559 1.15056,0.33073 -2.66558,3.0935 1.89599,0.54501 -0.007,-1.26548 1.02094,0.29347 0.007,1.26548 1.02094,0.29347 z m 2.23883,-1.79509 q 1.21536,0.34937 1.80209,1.04435 0.60282,0.68207 0.60849,1.57846 0.003,0.56243 -0.25282,0.94488 -0.25641,0.38245 -0.77318,0.51461 -0.50068,0.11923 -1.26235,-0.0997 -0.61579,-0.17701 -1.20042,-0.53804 -0.58459,-0.36104 -0.97561,-0.80679 l 0.44795,-0.78353 q 0.32589,0.37439 0.78072,0.68057 0.45475,0.28863 0.92471,0.42371 0.58339,0.16771 0.90594,0.0148 0.32244,-0.17046 0.31954,-0.62744 -0.003,-0.47457 -0.36107,-0.82311 -0.34187,-0.3439 -1.20076,-0.59078 l -1.40982,-0.40527 0.28618,-3.33885 3.4031,0.97824 0.006,0.96669 -2.49563,-0.71738 -0.12039,1.42157 z m 5.00829,-0.98143 0.0399,6.29226 -1.06952,-0.30743 -0.0337,-5.32559 -1.23156,-0.35403 -0.006,-0.96669 z"
       id="path425"
       inkscape:connector-curvature="0"
       style="fill:#000000;fill-rule:nonzero;stroke-width:1.07913017" />
    <path
       d="M 402.45941,55.999019 450.026,69.672238 450.14167,87.94716 402.57508,74.273937 Z"
       id="path427"
       inkscape:connector-curvature="0"
       style="fill:#999999;fill-rule:evenodd;stroke-width:1.07913017" />
    <path
       d="m 450.02601,69.672235 8.188,-6.206596 0.11569,18.274919 -8.18802,6.206592 z"
       id="path429"
       inkscape:connector-curvature="0"
       style="fill:#7a7a7a;fill-rule:evenodd;stroke-width:1.07913017" />
    <path
       d="m 402.45941,55.999019 8.18799,-6.206605 47.5666,13.673228 -8.188,6.206596 z"
       id="path431"
       inkscape:connector-curvature="0"
       style="fill:#adadad;fill-rule:evenodd;stroke-width:1.07913017" />
    <path
       d="m 402.45941,55.999019 8.18799,-6.206605 47.5666,13.673228 0.1157,18.274919 -8.18803,6.206599 -47.56659,-13.673223 z m 0,0 47.56659,13.673219 8.188,-6.206596 m -8.188,6.206596 0.11567,18.274922"
       id="path433"
       inkscape:connector-curvature="0"
       style="fill:#000000;fill-opacity:0;fill-rule:evenodd;stroke-width:1.07913017" />
    <path
       d="m 402.45941,55.999019 8.18799,-6.206605 47.5666,13.673228 0.1157,18.274919 -8.18803,6.206599 -47.56659,-13.673223 z m 0,0 47.56659,13.673219 8.188,-6.206596 m -8.188,6.206596 0.11567,18.274922"
       id="path435"
       inkscape:connector-curvature="0"
       style="fill-rule:evenodd;stroke:#434343;stroke-width:2.15826035;stroke-linecap:butt;stroke-linejoin:round" />
    <path
       d="m 533.59845,84.34047 93.86417,27.21562 0.11566,18.27492 -93.86417,-27.21562 z"
       id="path589"
       inkscape:connector-curvature="0"
       style="fill:#e9edee;fill-rule:evenodd;stroke-width:1.07913017" />
    <path
       d="m 627.46263,111.55609 8.18253,-6.18764 0.11567,18.27491 -8.18254,6.18765 z"
       id="path591"
       inkscape:connector-curvature="0"
       style="fill:#babdbe;fill-rule:evenodd;stroke-width:1.07913017" />
    <path
       d="m 533.59845,84.34047 8.18253,-6.187643 93.86417,27.215623 -8.18253,6.18764 z"
       id="path593"
       inkscape:connector-curvature="0"
       style="fill:#edf0f1;fill-rule:evenodd;stroke-width:1.07913017" />
    <path
       d="m 533.59845,84.34047 8.18253,-6.187643 93.86417,27.215623 0.11565,18.27491 -8.18252,6.18765 -93.86417,-27.21562 z m 0,0 93.86417,27.21562 8.18253,-6.18764 m -8.18253,6.18764 0.11566,18.27492"
       id="path595"
       inkscape:connector-curvature="0"
       style="fill:#000000;fill-opacity:0;fill-rule:evenodd;stroke-width:1.07913017" />
    <path
       d="m 533.59845,84.34047 8.18253,-6.187643 93.86417,27.215623 0.11565,18.27491 -8.18252,6.18765 -93.86417,-27.21562 z m 0,0 93.86417,27.21562 8.18253,-6.18764 m -8.18253,6.18764 0.11566,18.27492"
       id="path597"
       inkscape:connector-curvature="0"
       style="fill-rule:evenodd;stroke:#434343;stroke-width:2.15826035;stroke-linecap:butt;stroke-linejoin:round" />
    <path
       d="m 544.13447,91.83496 0.0563,8.89959 -1.32798,-0.38503 -0.005,-0.82664 q -0.33722,0.35868 -0.83779,0.44176 -0.50058,0.0831 -1.11595,-0.0954 -0.84209,-0.24416 -1.52484,-0.8459 -0.68282,-0.61933 -1.07616,-1.47073 -0.39349,-0.86898 -0.39961,-1.83632 -0.006,-0.96735 0.37787,-1.59337 0.38393,-0.64359 1.06148,-0.8509 0.67761,-0.20731 1.51976,0.0369 0.58298,0.16904 1.07017,0.52096 0.48715,0.35193 0.83004,0.89024 l -0.0208,-3.28899 z m -3.07682,6.79736 q 0.50209,0.14556 0.88918,0.0119 0.40329,-0.12884 0.62709,-0.52038 0.24003,-0.38687 0.23627,-0.98487 -0.003,-0.59799 -0.24964,-1.12572 -0.22959,-0.52303 -0.63598,-0.88665 -0.39025,-0.35893 -0.89226,-0.50449 -0.48584,-0.14087 -0.88912,-0.012 -0.4033,0.12885 -0.62718,0.5204 -0.2238,0.39155 -0.22004,0.98955 0.004,0.59801 0.23341,1.12103 0.22961,0.52303 0.63607,0.88665 0.40639,0.36362 0.8922,0.50448 z m 7.07179,-5.2528 q 1.58708,0.46017 2.46848,1.8042 0.89748,1.33112 0.91019,3.33617 0.009,1.42464 -0.47048,2.28628 -0.46342,0.84877 -1.31842,1.12755 -0.85491,0.27879 -1.97232,-0.0452 -0.59923,-0.17373 -1.13453,-0.46939 -0.51914,-0.29097 -0.90945,-0.66748 l 0.52698,-1.02345 q 0.56934,0.56887 1.47623,0.83181 1.1174,0.324 1.72816,-0.23627 0.62691,-0.55558 0.61795,-1.96262 l -7e-5,-0.0176 q -0.3373,0.3411 -0.87027,0.41478 -0.51691,0.0608 -1.18089,-0.13172 -0.76114,-0.22068 -1.37849,-0.7157 -0.60122,-0.49032 -0.96116,-1.17402 -0.34388,-0.69662 -0.34869,-1.45289 -0.005,-0.82665 0.36337,-1.33424 0.38479,-0.5029 1.01426,-0.65394 0.64568,-0.14637 1.43915,0.0837 z m 0.13923,4.11331 q 0.69633,0.20192 1.13104,-0.0759 0.43457,-0.29531 0.43068,-0.91091 -0.004,-0.61557 -0.44372,-1.14688 -0.42365,-0.52662 -1.16858,-0.74262 -0.68013,-0.1972 -1.09863,0.0852 -0.41864,0.26486 -0.41461,0.89803 0.004,0.66834 0.42772,1.17738 0.42352,0.50901 1.1361,0.71561 z m 7.71377,1.4817 q 0.76113,0.22067 1.36241,0.7286 0.61742,0.49499 0.96117,1.17401 0.34375,0.67902 0.34862,1.45289 0.005,0.80907 -0.36331,1.33424 -0.36858,0.50759 -1.01426,0.65394 -0.62946,0.15105 -1.423,-0.079 -1.60323,-0.46484 -2.48449,-1.79128 -0.8814,-1.34402 -0.89425,-3.36666 -0.009,-1.40705 0.4544,-2.27341 0.4795,-0.86165 1.31835,-1.12755 0.855,-0.27877 1.98859,0.05 0.59918,0.17373 1.11833,0.4647 0.53515,0.27806 0.90932,0.64989 l -0.51078,1.02814 q -0.58554,-0.57356 -1.47622,-0.83182 -1.1174,-0.32399 -1.74424,0.24918 -0.6269,0.55558 -0.61808,1.94503 l 7e-5,0.0176 q 0.33742,-0.3235 0.87041,-0.39719 0.53297,-0.0737 1.19696,0.11882 z m -0.21709,4.01001 q 0.66392,0.19252 1.08256,-0.0723 0.41857,-0.26486 0.41448,-0.91561 -0.004,-0.65077 -0.42766,-1.15979 -0.42344,-0.50902 -1.11984,-0.71094 -0.69639,-0.20189 -1.13102,0.0759 -0.43472,0.27773 -0.4307,0.91091 0.004,0.61558 0.42753,1.14219 0.43965,0.51372 1.18465,0.72972 z m 9.38238,-4.54774 0.006,1.0377 -2.94943,6.48316 -1.53848,-0.44606 2.85407,-6.22993 -3.02834,-0.87807 0.009,1.42465 -1.34416,-0.38974 -0.0174,-2.74375 z m 3.51159,9.4801 q -0.9231,-0.26764 -1.65452,-0.90105 -0.73144,-0.63342 -1.14097,-1.48952 -0.40963,-0.87367 -0.41563,-1.82343 -0.006,-0.94976 0.39414,-1.57108 0.40007,-0.63889 1.12629,-0.83213 0.72603,-0.21081 1.64913,0.0568 0.87449,0.25357 1.52477,0.82833 0.66629,0.56187 1.01089,1.38158 l -1.06456,0.35845 q -0.26189,-0.51483 -0.65188,-0.83858 -0.37391,-0.33665 -0.82739,-0.46812 -0.76113,-0.22069 -1.27592,0.17428 -0.49854,0.39968 -0.49275,1.31426 0.005,0.91459 0.51124,1.60539 0.50545,0.69078 1.28279,0.91618 0.45349,0.13146 0.82463,0.0284 0.38721,-0.11597 0.64343,-0.49813 l 1.07314,0.99585 q -0.35179,0.60023 -1.01321,0.81223 -0.64534,0.19912 -1.50362,-0.0498 z m 6.88696,-4.55147 q 0.85829,0.24885 1.54105,0.85059 0.68269,0.60174 1.07616,1.47072 0.39334,0.85139 0.39947,1.81874 0.006,0.96735 -0.37774,1.61095 -0.38399,0.62602 -1.06154,0.85092 -0.67756,0.20732 -1.53591,-0.0416 -0.61537,-0.17842 -1.11883,-0.55263 -0.50349,-0.37421 -0.84644,-0.9301 l 0.005,0.82664 -1.3117,-0.38033 -0.0563,-8.89961 1.37657,0.39912 0.0207,3.2714 q 0.35361,-0.31882 0.82192,-0.39371 0.48451,-0.0702 1.06747,0.0988 z m -0.12856,5.22947 q 0.76113,0.22069 1.24352,-0.18367 0.49847,-0.41726 0.49281,-1.31426 -0.005,-0.897 -0.51119,-1.58779 -0.48937,-0.70368 -1.2505,-0.92437 -0.48581,-0.14087 -0.88911,-0.0119 -0.40336,0.12885 -0.62717,0.52041 -0.22381,0.39156 -0.22005,0.98955 0.004,0.59799 0.23342,1.12103 0.2296,0.52302 0.63606,0.88665 0.40638,0.36361 0.89221,0.50448 z m 9.55435,-4.41009 0.006,1.0377 -2.94943,6.48318 -1.53847,-0.44607 2.85405,-6.22994 -3.02833,-0.87806 0.009,1.42463 -1.3441,-0.38971 -0.0174,-2.74376 z m 4.10616,4.64908 q 1.06978,0.45061 1.64069,1.26571 0.57091,0.81509 0.57704,1.78245 0.004,0.72111 -0.33162,1.2381 -0.33631,0.49938 -1.03046,0.64924 -0.69416,0.14986 -1.68199,-0.13657 -0.82588,-0.23947 -1.60494,-0.72868 -0.76278,-0.48451 -1.29997,-1.07916 l 0.60766,-1.03516 q 0.42352,0.50902 1.02421,0.9114 0.60049,0.3848 1.24828,0.57262 0.76112,0.22068 1.19629,0.0132 0.43497,-0.225 0.43121,-0.823 -0.003,-0.58039 -0.42672,-1.01907 -0.42319,-0.45626 -1.26528,-0.70043 l -0.71259,-0.20661 -0.006,-1.07286 1.75081,-1.75706 -3.51415,-1.01893 -0.009,-1.30152 5.2632,1.52604 0.006,1.03771 z m 6.37276,1.84775 q 1.0697,0.45061 1.64061,1.26571 0.57093,0.81511 0.57705,1.78245 0.004,0.72112 -0.33156,1.2381 -0.3363,0.49939 -1.03045,0.64925 -0.69415,0.14984 -1.682,-0.13657 -0.82595,-0.23948 -1.60493,-0.72868 -0.76278,-0.48452 -1.29997,-1.07917 l 0.60766,-1.03515 q 0.42351,0.50902 1.02413,0.9114 0.60056,0.38479 1.24834,0.57262 0.76113,0.22068 1.19623,0.0132 0.43505,-0.22497 0.43129,-0.82298 -0.003,-0.58041 -0.42673,-1.01908 -0.42319,-0.45626 -1.26527,-0.70042 l -0.71259,-0.2066 -0.006,-1.07289 1.75082,-1.75705 -3.51415,-1.01893 -0.009,-1.30152 5.26313,1.52605 0.006,1.03769 z m 5.7907,-1.77952 0.0531,8.38954 -1.44132,-0.41789 -0.0449,-7.08802 -1.63563,-0.47425 -0.009,-1.30152 z m 8.47582,8.93568 -1.37652,-0.39913 0.012,1.89952 -1.39271,-0.40382 -0.0121,-1.89951 -4.24295,-1.23022 -0.006,-1.09048 3.77155,-4.29611 1.53848,0.44606 -3.54624,4.13321 2.52631,0.73251 -0.0108,-1.70605 1.34411,0.38972 0.0108,1.70606 1.37658,0.39912 z m 4.09397,-2.09595 q 0.76112,0.2207 1.36241,0.7286 0.61742,0.49503 0.96117,1.17404 0.34374,0.67901 0.34863,1.45289 0.005,0.80906 -0.36332,1.33423 -0.36859,0.50759 -1.01426,0.65395 -0.62947,0.15104 -1.42301,-0.079 -1.60321,-0.46486 -2.48449,-1.7913 -0.8814,-1.34401 -0.89425,-3.36665 -0.009,-1.40705 0.4544,-2.2734 0.47951,-0.86167 1.31836,-1.12755 0.85499,-0.27878 1.98858,0.05 0.59918,0.17374 1.11833,0.46469 0.53515,0.27808 0.90933,0.64989 l -0.51079,1.02815 q -0.58553,-0.57357 -1.47622,-0.83182 -1.1174,-0.32399 -1.74423,0.24918 -0.6269,0.55558 -0.61808,1.94503 l 7e-5,0.0176 q 0.33742,-0.32351 0.8704,-0.39722 0.53298,-0.0737 1.19697,0.11883 z m -0.2171,4.01003 q 0.66392,0.19251 1.08256,-0.0723 0.41857,-0.26486 0.41449,-0.91562 -0.004,-0.65076 -0.42767,-1.15978 -0.42344,-0.50902 -1.11984,-0.71093 -0.69638,-0.20191 -1.13102,0.0759 -0.43471,0.27775 -0.43069,0.91092 0.004,0.61559 0.42752,1.14219 0.43966,0.51374 1.18465,0.72972 z m 9.68866,0.75516 q 10e-4,0.1583 -0.0134,0.43501 l -4.63161,-1.34292 q 0.13403,0.7411 0.63868,1.30877 0.5208,0.55478 1.28193,0.77548 0.97163,0.28173 1.59894,-0.22108 l 0.75073,1.13057 q -0.40151,0.41025 -1.01525,0.49565 -0.59752,0.0901 -1.35866,-0.13059 -0.9717,-0.28174 -1.71927,-0.91985 -0.73143,-0.63341 -1.14097,-1.4895 -0.40969,-0.87369 -0.41569,-1.82344 -0.005,-0.93218 0.378,-1.57577 0.38387,-0.6436 1.07769,-0.84622 0.69368,-0.22021 1.56818,0.0334 0.85828,0.24887 1.54117,0.8682 0.68269,0.60174 1.05997,1.46603 0.39334,0.8514 0.39953,1.83632 z m -2.99309,-2.97454 q -0.66399,-0.19252 -1.11477,0.0981 -0.45078,0.29063 -0.5596,0.97888 l 3.35227,0.97198 q -0.0855,-0.72701 -0.54154,-1.28059 -0.45618,-0.57118 -1.13636,-0.76839 z"
       id="path599"
       inkscape:connector-curvature="0"
       style="fill:#000000;fill-rule:nonzero;stroke-width:1.07913017" />
    <path
       d="m 533.55552,66.02622 93.86423,27.21562 0.11566,18.27492 -93.86423,-27.21562 z"
       id="path601"
       inkscape:connector-curvature="0"
       style="fill:#e9edee;fill-rule:evenodd;stroke-width:1.07913017" />
    <path
       d="m 627.41973,93.24184 8.18252,-6.18764 0.11566,18.27491 -8.18252,6.18765 z"
       id="path603"
       inkscape:connector-curvature="0"
       style="fill:#babdbe;fill-rule:evenodd;stroke-width:1.07913017" />
    <path
       d="m 533.55552,66.02622 8.18252,-6.187642 93.86424,27.215622 -8.18253,6.18764 z"
       id="path605"
       inkscape:connector-curvature="0"
       style="fill:#edf0f1;fill-rule:evenodd;stroke-width:1.07913017" />
    <path
       d="m 533.55552,66.02622 8.18252,-6.187642 93.86424,27.215622 0.11565,18.27492 -8.18252,6.18764 -93.86423,-27.21562 z m 0,0 93.86423,27.21562 8.18253,-6.18764 m -8.18253,6.18764 0.11566,18.27492"
       id="path607"
       inkscape:connector-curvature="0"
       style="fill:#000000;fill-opacity:0;fill-rule:evenodd;stroke-width:1.07913017" />
    <path
       d="m 533.55552,66.02622 8.18252,-6.187642 93.86424,27.215622 0.11565,18.27492 -8.18252,6.18764 -93.86423,-27.21562 z m 0,0 93.86423,27.21562 8.18253,-6.18764 m -8.18253,6.18764 0.11566,18.27492"
       id="path609"
       inkscape:connector-curvature="0"
       style="fill-rule:evenodd;stroke:#434343;stroke-width:2.15826035;stroke-linecap:butt;stroke-linejoin:round" />
    <path
       d="m 540.96991,81.621756 q -0.92309,-0.267641 -1.65504,-0.989002 -0.73197,-0.721352 -1.15916,-1.810781 -0.42726,-1.107025 -0.43583,-2.461305 -0.009,-1.336704 0.40645,-2.181964 0.41482,-0.862855 1.14032,-1.161617 0.72557,-0.298756 1.6486,-0.03111 0.9231,0.26765 1.65505,0.989002 0.74822,0.726054 1.1755,1.83307 0.42719,1.08943 0.43562,2.426133 0.009,1.354289 -0.40625,2.217134 -0.41495,0.845269 -1.15665,1.139333 -0.72551,0.298754 -1.64861,0.03111 z m -0.009,-1.354288 q 0.82595,0.239476 1.30709,-0.358364 0.48101,-0.615425 0.47165,-2.092831 -0.0101,-1.477399 -0.49984,-2.356967 -0.4905,-0.879567 -1.31644,-1.119045 -0.80969,-0.234774 -1.29083,0.363064 -0.48121,0.59784 -0.47186,2.075239 0.0101,1.477407 0.49998,2.37456 0.4905,0.879567 1.30025,1.114344 z m 7.69953,-1.717616 q 0.76114,0.220688 1.36242,0.728597 0.61741,0.495015 0.96116,1.174033 0.34375,0.679016 0.34869,1.452897 0.005,0.809051 -0.36338,1.334225 -0.36857,0.507588 -1.01425,0.653947 -0.62947,0.151039 -1.42294,-0.07902 -1.60328,-0.464858 -2.48456,-1.791295 -0.8814,-1.344021 -0.89417,-3.366658 -0.009,-1.407055 0.45433,-2.273409 0.47949,-0.861661 1.31842,-1.127548 0.85491,-0.278781 1.98852,0.04991 0.59924,0.173736 1.11832,0.464694 0.53522,0.278072 0.90934,0.64989 l -0.51073,1.028149 q -0.58559,-0.573568 -1.47629,-0.831823 -1.1174,-0.32399 -1.74417,0.249175 -0.62697,0.555578 -0.61814,1.945039 l 1.3e-4,0.01759 q 0.33737,-0.323513 0.87033,-0.397206 0.53299,-0.07369 1.19697,0.118819 z m -0.21709,4.010018 q 0.66398,0.192514 1.08256,-0.07233 0.41864,-0.26486 0.41448,-0.915621 -0.004,-0.650761 -0.42759,-1.159781 -0.42352,-0.509029 -1.1199,-0.710929 -0.69632,-0.201909 -1.13104,0.07583 -0.43471,0.277753 -0.43069,0.910928 0.004,0.615582 0.42754,1.142196 0.4397,0.513714 1.18464,0.729707 z m 6.87531,3.18727 q -0.9231,-0.26765 -1.65454,-0.90106 -0.73142,-0.63341 -1.14097,-1.489508 -0.40962,-0.873673 -0.4156,-1.823437 -0.006,-0.949763 0.39413,-1.571074 0.40006,-0.638899 1.1263,-0.83213 0.72603,-0.210816 1.64912,0.05683 0.87449,0.253555 1.52477,0.828316 0.66629,0.561868 1.01089,1.38159 l -1.06458,0.358445 q -0.26187,-0.514833 -0.65185,-0.838584 -0.37393,-0.336642 -0.8274,-0.468118 -0.76114,-0.220688 -1.27594,0.174288 -0.49853,0.399676 -0.49273,1.314259 0.005,0.914584 0.51124,1.605374 0.50545,0.690789 1.28278,0.916179 0.45349,0.13148 0.82463,0.0284 0.38722,-0.11595 0.64344,-0.498117 l 1.07313,0.995847 q -0.35178,0.60022 -1.01319,0.81223 -0.64535,0.19912 -1.50363,-0.0498 z m 5.92198,-4.831274 q 1.31177,0.380337 1.99623,1.263485 0.7006,0.870257 0.7093,2.242129 l 0.0238,3.74627 -1.31176,-0.38033 -0.005,-0.77387 q -0.24029,0.35167 -0.70844,0.44415 -0.4683,0.0749 -1.13229,-0.11763 -0.66398,-0.19251 -1.16752,-0.58431 -0.5036,-0.3918 -0.78168,-0.91132 -0.26188,-0.51484 -0.26537,-1.06007 -0.005,-0.861814 0.57421,-1.220423 0.59588,-0.353908 1.85903,0.01235 l 1.53848,0.446083 -6e-4,-0.08795 q -0.004,-0.668348 -0.37892,-1.12811 -0.37477,-0.477347 -1.10356,-0.688642 -0.50203,-0.145562 -0.98673,-0.110545 -0.46862,0.02212 -0.80684,0.222516 l -0.54129,-1.245423 q 0.4672,-0.250764 1.11372,-0.256412 0.64646,-0.02324 1.37519,0.188061 z m -0.15972,5.413564 q 0.53442,0.15495 0.92144,0.004 0.40316,-0.14643 0.57829,-0.56966 l -0.004,-0.7387 -1.42512,-0.4132 q -1.19835,-0.34748 -1.19301,0.49676 0.002,0.40452 0.2956,0.73528 0.30923,0.33545 0.82746,0.4857 z m 9.22509,-0.73106 q 0.60109,0.47273 0.92817,1.0767 0.32715,0.60397 0.3315,1.2899 0.005,0.77388 -0.38011,1.24159 -0.38512,0.45014 -1.11186,0.55543 -0.71069,0.0924 -1.64992,-0.17995 -0.9555,-0.27703 -1.66993,-0.78263 -0.71457,-0.52319 -1.1068,-1.19871 -0.39235,-0.6931 -0.39723,-1.46698 -0.004,-0.68594 0.31635,-1.10208 0.32063,-0.41614 0.91796,-0.54141 -0.47146,-0.41758 -0.73335,-0.932417 -0.2458,-0.527718 -0.24949,-1.108127 -0.004,-0.703527 0.3485,-1.127869 0.36917,-0.41965 1.0151,-0.513237 0.64593,-0.111179 1.50422,0.137682 0.85829,0.248862 1.50798,0.735678 0.64956,0.469239 1.00918,1.100183 0.37582,0.635637 0.38024,1.339167 0.003,0.58041 -0.25253,0.96257 -0.24014,0.36927 -0.70798,0.51451 z m -1.92918,-3.438521 q -0.68019,-0.197217 -1.06687,0.0067 -0.38664,0.203893 -0.38308,0.766716 0.003,0.54523 0.39413,0.974512 0.39065,0.429283 1.07084,0.626493 0.68012,0.19721 1.06682,-0.007 0.40282,-0.19919 0.3994,-0.744432 -0.003,-0.562815 -0.41041,-0.996791 -0.40691,-0.433975 -1.07083,-0.62649 z m 0.0391,6.191031 q 0.79354,0.23007 1.24477,0.01 0.46732,-0.23318 0.46329,-0.86636 -0.004,-0.61559 -0.47573,-1.10351 -0.45579,-0.50083 -1.24933,-0.73092 -0.79353,-0.23007 -1.24465,0.008 -0.45123,0.2203 -0.44729,0.83588 0.004,0.63318 0.45974,1.13399 0.45573,0.48325 1.2492,0.71333 z m 7.3552,-1.67703 q 1.06971,0.4506 1.64062,1.26571 0.57091,0.81511 0.57704,1.78245 0.004,0.72112 -0.33162,1.2381 -0.33631,0.49939 -1.03046,0.64924 -0.69409,0.14986 -1.68199,-0.13657 -0.82588,-0.23947 -1.60487,-0.72868 -0.76284,-0.48451 -1.30004,-1.07917 l 0.60773,-1.03515 q 0.42352,0.50903 1.02414,0.9114 0.60049,0.3848 1.24828,0.57262 0.76112,0.22069 1.1963,0.0133 0.43504,-0.22499 0.43121,-0.82298 -0.003,-0.58041 -0.42673,-1.01908 -0.42319,-0.45626 -1.26527,-0.70042 l -0.71253,-0.20661 -0.006,-1.07288 1.75083,-1.75706 -3.51422,-1.018928 -0.009,-1.301523 5.2632,1.526047 0.006,1.037704 z m 10.05848,5.93604 -1.37651,-0.39911 0.0119,1.89951 -1.39271,-0.40382 -0.0119,-1.89952 -4.24295,-1.23023 -0.006,-1.09046 3.77149,-4.29611 1.53848,0.44608 -3.54624,4.1332 2.52639,0.7325 -0.0108,-1.70605 1.3441,0.38974 0.0108,1.70604 1.37652,0.39911 z m 4.0939,-2.09593 q 0.76113,0.22068 1.36248,0.7286 0.61735,0.49502 0.96111,1.17403 0.3438,0.67901 0.34869,1.45288 0.005,0.80907 -0.36339,1.33424 -0.36857,0.50759 -1.01418,0.65394 -0.62947,0.15106 -1.42302,-0.079 -1.60327,-0.46486 -2.48454,-1.79129 -0.88142,-1.34403 -0.89419,-3.36666 -0.009,-1.40705 0.45439,-2.2734 0.47951,-0.86166 1.31836,-1.12755 0.85493,-0.27878 1.9886,0.0499 0.59916,0.17374 1.11824,0.4647 0.53522,0.27807 0.9094,0.64988 l -0.51078,1.02816 q -0.5856,-0.57356 -1.4763,-0.83182 -1.11739,-0.32399 -1.74416,0.24917 -0.6269,0.55558 -0.61813,1.94505 l 1.2e-4,0.0176 q 0.33742,-0.32351 0.8704,-0.39719 0.53291,-0.0737 1.1969,0.11882 z m -0.21709,4.01002 q 0.66398,0.19251 1.08262,-0.0723 0.41857,-0.26485 0.41449,-0.91561 -0.004,-0.65076 -0.42766,-1.1598 -0.42351,-0.50901 -1.11984,-0.71092 -0.69639,-0.20191 -1.13109,0.0759 -0.43465,0.27775 -0.43063,0.91092 0.004,0.61559 0.42747,1.14219 0.43971,0.51372 1.18464,0.72972 z m 6.91707,-1.80405 q 1.06971,0.45061 1.64069,1.26572 0.57091,0.8151 0.57703,1.78244 0.004,0.72113 -0.33162,1.2381 -0.3363,0.49939 -1.03045,0.64925 -0.69416,0.14984 -1.682,-0.13656 -0.82594,-0.23948 -1.60493,-0.72868 -0.76278,-0.48451 -1.29997,-1.07918 l 0.60767,-1.03514 q 0.4235,0.50901 1.02413,0.91139 0.60056,0.38479 1.24834,0.57262 0.76114,0.22068 1.19629,0.0132 0.43498,-0.22499 0.43122,-0.82299 -0.003,-0.58041 -0.42674,-1.01908 -0.42317,-0.45625 -1.26525,-0.70042 l -0.7126,-0.2066 -0.006,-1.07288 1.75083,-1.75706 -3.51415,-1.01892 -0.009,-1.30152 5.2632,1.52604 0.006,1.03769 z m 5.79071,-1.77951 0.0531,8.38955 -1.44125,-0.41791 -0.0449,-7.08801 -1.63563,-0.47426 -0.009,-1.30152 z m 5.0704,4.66532 q 0.76114,0.22068 1.36248,0.7286 0.61735,0.49501 0.96111,1.17403 0.34375,0.67902 0.34869,1.4529 0.005,0.80903 -0.36339,1.33421 -0.36857,0.50759 -1.01425,0.65395 -0.6294,0.15104 -1.42294,-0.079 -1.60329,-0.46485 -2.48455,-1.79128 -0.88141,-1.34403 -0.89419,-3.36666 -0.009,-1.40706 0.45434,-2.27341 0.4795,-0.86166 1.31841,-1.12756 0.85494,-0.27877 1.98853,0.05 0.59924,0.17373 1.11832,0.4647 0.53522,0.27807 0.90933,0.64989 l -0.51072,1.02815 q -0.5856,-0.57356 -1.47629,-0.83182 -1.11739,-0.324 -1.74416,0.24917 -0.62691,0.55558 -0.61816,1.94504 l 1.4e-4,0.0176 q 0.33742,-0.32351 0.87034,-0.3972 0.53297,-0.0737 1.19696,0.11882 z m -0.21708,4.01001 q 0.66398,0.19252 1.08255,-0.0723 0.41863,-0.26486 0.41449,-0.91562 -0.004,-0.65078 -0.4276,-1.15979 -0.4235,-0.50903 -1.1199,-0.71093 -0.69633,-0.20191 -1.13102,0.0759 -0.43465,0.27776 -0.4307,0.91094 0.004,0.61558 0.42753,1.14219 0.43972,0.51371 1.18465,0.72971 z m 9.38238,-4.54774 0.006,1.03771 -2.94944,6.48316 -1.53847,-0.44607 2.85406,-6.22993 -3.0284,-0.87806 0.009,1.42464 -1.34409,-0.38974 -0.0174,-2.74374 z m 7.10649,8.53863 -1.3765,-0.39913 0.0119,1.89952 -1.3927,-0.40382 -0.0119,-1.89951 -4.24296,-1.23022 -0.006,-1.09048 3.77155,-4.29611 1.53841,0.44609 -3.54624,4.13318 2.52639,0.73251 -0.0108,-1.70606 1.34411,0.38974 0.0108,1.70605 1.37651,0.39911 z"
       id="path611"
       inkscape:connector-curvature="0"
       style="fill:#000000;fill-rule:nonzero;stroke-width:1.07913017" />
    <path
       d="m 533.51593,47.712923 93.86423,27.21562 0.11567,18.274927 -93.86418,-27.215623 z"
       id="path613"
       inkscape:connector-curvature="0"
       style="fill:#e9edee;fill-rule:evenodd;stroke-width:1.07913017" />
    <path
       d="m 627.38016,74.928541 8.18253,-6.187642 0.11567,18.274931 -8.18253,6.18764 z"
       id="path615"
       inkscape:connector-curvature="0"
       style="fill:#babdbe;fill-rule:evenodd;stroke-width:1.07913017" />
    <path
       d="m 533.51593,47.712923 8.18253,-6.187639 93.86423,27.215615 -8.18253,6.187642 z"
       id="path617"
       inkscape:connector-curvature="0"
       style="fill:#edf0f1;fill-rule:evenodd;stroke-width:1.07913017" />
    <path
       d="m 533.51593,47.712923 8.18253,-6.187639 93.86423,27.215615 0.11567,18.274931 -8.18253,6.18764 -93.86418,-27.215624 z m 0,0 93.86423,27.21562 8.18253,-6.187643 m -8.18253,6.187643 0.11567,18.274927"
       id="path619"
       inkscape:connector-curvature="0"
       style="fill:#000000;fill-opacity:0;fill-rule:evenodd;stroke-width:1.07913017" />
    <path
       d="m 533.51593,47.712923 8.18253,-6.187639 93.86423,27.215615 0.11567,18.274931 -8.18253,6.18764 -93.86418,-27.215624 z m 0,0 93.86423,27.21562 8.18253,-6.187643 m -8.18253,6.187643 0.11567,18.274927"
       id="path621"
       inkscape:connector-curvature="0"
       style="fill-rule:evenodd;stroke:#434343;stroke-width:2.15826035;stroke-linecap:butt;stroke-linejoin:round" />
    <path
       d="m 541.84454,55.690948 q -0.87449,-0.253554 -0.8679,0.784138 l 0.002,0.38694 1.61948,0.469558 0.007,1.195992 -1.57082,-0.455464 0.0326,5.153326 -1.37651,-0.399117 -0.0326,-5.153334 -0.97171,-0.281729 -0.007,-1.19599 0.97171,0.281728 -0.002,-0.422111 q -0.006,-1.020116 0.54036,-1.458463 0.5468,-0.438356 1.55091,-0.147232 0.79347,0.230083 1.2492,0.713316 l -0.38156,1.012953 q -0.35798,-0.367123 -0.76285,-0.484511 z m 4.42335,0.668076 0.0531,8.389548 -1.44126,-0.417906 -0.0449,-7.088024 -1.6357,-0.474243 -0.009,-1.301524 z m 4.71514,9.829065 q -0.92309,-0.267641 -1.65446,-0.901057 -0.73142,-0.633413 -1.14098,-1.489509 -0.40967,-0.873672 -0.41567,-1.823436 -0.006,-0.949754 0.3942,-1.571075 0.40007,-0.638898 1.12622,-0.832129 0.72609,-0.210816 1.64919,0.05683 0.87449,0.253563 1.52471,0.828317 0.6663,0.561868 1.01096,1.381591 l -1.06458,0.358444 q -0.26194,-0.514832 -0.65192,-0.838584 -0.37391,-0.336643 -0.82733,-0.468118 -0.76114,-0.220689 -1.27594,0.174288 -0.4986,0.399676 -0.49279,1.314259 0.005,0.914583 0.5113,1.605374 0.50546,0.690799 1.28278,0.916181 0.45342,0.131474 0.82456,0.02841 0.38723,-0.115957 0.64343,-0.49812 l 1.07321,0.995843 q -0.35185,0.600227 -1.01325,0.812238 -0.64536,0.199118 -1.50364,-0.04975 z m 10.01185,0.919095 -1.3765,-0.399124 0.0121,1.899526 -1.39279,-0.403818 -0.0119,-1.899518 -4.24295,-1.230224 -0.006,-1.090468 3.77155,-4.296111 1.53847,0.446071 -3.54629,4.133203 2.52637,0.732508 -0.0108,-1.706058 1.34411,0.389731 0.0108,1.70605 1.37651,0.399124 z m 6.17431,2.369563 0.009,1.31911 -5.7004,-1.652822 -0.006,-1.037702 3.04072,-2.278406 q 0.53093,-0.390281 0.70653,-0.743162 0.17559,-0.352879 0.17315,-0.73981 -0.004,-0.598004 -0.37819,-1.004999 -0.35824,-0.419889 -1.07082,-0.626491 -1.18221,-0.34277 -1.79199,0.358207 l -1.02559,-1.140047 q 0.4492,-0.536873 1.2081,-0.667953 0.77503,-0.143964 1.73046,0.133072 1.26316,0.366251 2.01225,1.233007 0.74895,0.849163 0.75606,1.97481 0.004,0.685933 -0.25101,1.208802 -0.2553,0.522869 -1.01156,1.076059 l -2.04319,1.531836 z m 3.38658,-6.198436 q 1.58701,0.460157 2.46842,1.804179 0.89747,1.331129 0.91018,3.33618 0.009,1.424641 -0.47048,2.286301 -0.46342,0.848767 -1.31834,1.127548 -0.855,0.278782 -1.97239,-0.04521 -0.59923,-0.173735 -1.13453,-0.469393 -0.51908,-0.29096 -0.90945,-0.667477 l 0.52698,-1.023457 q 0.56933,0.568876 1.47623,0.831824 1.11746,0.32399 1.72816,-0.236281 0.62691,-0.555579 0.61801,-1.962634 l -1.4e-4,-0.01759 q -0.33729,0.341099 -0.87025,0.414793 -0.51693,0.06079 -1.18084,-0.131713 -0.76121,-0.220689 -1.37855,-0.715705 -0.60121,-0.490322 -0.96116,-1.174033 -0.34389,-0.696604 -0.34863,-1.452897 -0.005,-0.826637 0.36332,-1.334225 0.38477,-0.502895 1.01424,-0.653947 0.64567,-0.146352 1.43922,0.08373 z m 0.13917,4.113319 q 0.69632,0.201901 1.13103,-0.07584 0.43458,-0.295339 0.43069,-0.91092 -0.004,-0.61559 -0.44374,-1.146896 -0.42356,-0.526607 -1.1685,-0.742603 -0.68019,-0.197215 -1.09869,0.08523 -0.41864,0.264858 -0.41461,0.898035 0.004,0.668347 0.42772,1.177366 0.42351,0.509021 1.1361,0.715632 z m 11.11918,5.752021 -1.37652,-0.399116 0.0121,1.899518 -1.39271,-0.403818 -0.0121,-1.899518 -4.24295,-1.230224 -0.006,-1.090467 3.77156,-4.296111 1.53848,0.446069 -3.54624,4.133212 2.52632,0.732499 -0.0108,-1.706049 1.34411,0.389723 0.0108,1.706057 1.37658,0.399117 z m 6.17438,2.369571 0.009,1.31911 -5.7004,-1.652822 -0.006,-1.037701 3.04072,-2.278415 q 0.53094,-0.390282 0.70653,-0.743154 0.17559,-0.352878 0.17316,-0.739819 -0.004,-0.597994 -0.3782,-1.00499 -0.35824,-0.419889 -1.07084,-0.62649 -1.18214,-0.342777 -1.79198,0.358206 l -1.02558,-1.140055 q 0.4492,-0.536873 1.2081,-0.667945 0.77503,-0.143964 1.73046,0.133063 1.26316,0.366259 2.01224,1.233008 0.74894,0.849172 0.75606,1.97481 0.004,0.685941 -0.25094,1.20881 -0.25536,0.522869 -1.01162,1.076052 l -2.04319,1.531836 z m 3.46415,-4.139434 q 1.31177,0.380336 1.9963,1.263485 0.70053,0.870257 0.70923,2.242132 l 0.0238,3.74627 -1.31176,-0.380336 -0.005,-0.773871 q -0.24028,0.351676 -0.70843,0.444152 -0.46831,0.07489 -1.1323,-0.117627 -0.66397,-0.192515 -1.16751,-0.584312 -0.50361,-0.391798 -0.78168,-0.911323 -0.26189,-0.514833 -0.26537,-1.060063 -0.005,-0.861816 0.5742,-1.220427 0.59588,-0.353908 1.85905,0.01235 l 1.53847,0.446079 -6e-4,-0.08795 q -0.004,-0.668347 -0.37893,-1.128108 -0.37477,-0.477347 -1.10356,-0.688642 -0.50202,-0.145562 -0.98672,-0.110546 -0.46863,0.02212 -0.80685,0.222517 l -0.54128,-1.245423 q 0.46719,-0.250764 1.11372,-0.256412 0.64647,-0.02324 1.37519,0.188061 z m -0.15972,5.413566 q 0.53443,0.154947 0.92145,0.0037 0.40316,-0.146435 0.5783,-0.569666 l -0.004,-0.7387 -1.42512,-0.413203 q -1.19836,-0.34747 -1.19301,0.496762 0.002,0.404525 0.29559,0.735282 0.30924,0.33545 0.82746,0.485705 z m 10.43419,-4.857238 0.0563,8.899605 -1.32796,-0.385038 -0.005,-0.826637 q -0.33716,0.358683 -0.8378,0.441763 -0.50058,0.0831 -1.11595,-0.09534 -0.84208,-0.244169 -1.52483,-0.845911 -0.68282,-0.619328 -1.07617,-1.470721 -0.39348,-0.868981 -0.39961,-1.83633 -0.006,-0.967349 0.37787,-1.593353 0.38394,-0.643599 1.06155,-0.850917 0.67754,-0.207318 1.5197,0.03686 0.58297,0.169042 1.07017,0.520959 0.48715,0.351923 0.83003,0.890238 l -0.0208,-3.288988 z m -3.07676,6.797371 q 0.50203,0.145561 0.88911,0.01203 0.40329,-0.128848 0.6271,-0.520398 0.24008,-0.386857 0.23626,-0.984853 -0.003,-0.598004 -0.24957,-1.125722 -0.22966,-0.523033 -0.63605,-0.886657 -0.39025,-0.358921 -0.89227,-0.504482 -0.48582,-0.14087 -0.8891,-0.01203 -0.4033,0.12884 -0.62718,0.520399 -0.22381,0.391558 -0.21999,0.989554 0.003,0.597996 0.23336,1.12102 0.22961,0.523033 0.63607,0.886656 0.40638,0.363624 0.89226,0.504485 z m 7.07172,-5.252799 q 1.58709,0.460158 2.46849,1.804179 0.89746,1.331129 0.91017,3.33618 0.009,1.42464 -0.47046,2.286301 -0.46342,0.848768 -1.31835,1.12755 -0.85499,0.27878 -1.97239,-0.04522 -0.59924,-0.173728 -1.13453,-0.469387 -0.51908,-0.290967 -0.90945,-0.667474 l 0.52698,-1.023459 q 0.56934,0.568875 1.47623,0.831825 1.1174,0.323989 1.72816,-0.236282 0.6269,-0.555579 0.618,-1.962634 l -1.2e-4,-0.01759 q -0.3373,0.341098 -0.87028,0.414794 -0.5169,0.06079 -1.18089,-0.131713 -0.76114,-0.22069 -1.37848,-0.715713 -0.60121,-0.490315 -0.96117,-1.174025 -0.34387,-0.696604 -0.34863,-1.452898 -0.005,-0.826645 0.36332,-1.334233 0.38478,-0.502886 1.01425,-0.653939 0.64568,-0.146352 1.43915,0.08373 z m 0.13924,4.113311 q 0.69632,0.20191 1.13103,-0.07583 0.43459,-0.295338 0.43069,-0.910927 -0.004,-0.615582 -0.44373,-1.146888 -0.42358,-0.526608 -1.16857,-0.742603 -0.68013,-0.197215 -1.09863,0.08523 -0.41864,0.264858 -0.41462,0.898026 0.004,0.668355 0.42773,1.177375 0.42351,0.50902 1.1361,0.715622 z m 7.35849,6.645441 q -0.9231,-0.267654 -1.65452,-0.901068 -0.73144,-0.633415 -1.14099,-1.489502 -0.40961,-0.873681 -0.41561,-1.823435 -0.006,-0.949765 0.39414,-1.571076 0.40006,-0.638905 1.12629,-0.832128 0.72609,-0.210817 1.64913,0.05683 0.87455,0.253555 1.52477,0.828317 0.66629,0.561868 1.01096,1.38159 l -1.06463,0.358445 q -0.26189,-0.514834 -0.65188,-0.838584 -0.37392,-0.336644 -0.82739,-0.468118 -0.76113,-0.220689 -1.27586,0.174286 -0.4986,0.399669 -0.49281,1.31426 0.005,0.914583 0.51124,1.605374 0.50552,0.69079 1.28286,0.916181 0.45341,0.131475 0.82456,0.02841 0.38721,-0.115957 0.64343,-0.498121 l 1.07313,0.995844 q -0.35178,0.600225 -1.0132,0.812235 -0.64534,0.19912 -1.50362,-0.0498 z m 5.67123,-3.587293 q 1.63563,0.474243 2.41743,1.403152 0.79789,0.916024 0.80534,2.094431 0.004,0.75628 -0.33144,1.27327 -0.33616,0.51698 -1.03019,0.68442 -0.67794,0.15455 -1.68198,-0.13657 -0.82596,-0.23948 -1.60495,-0.72868 -0.76278,-0.48451 -1.29996,-1.07917 l 0.59146,-1.03985 q 0.43972,0.513721 1.04034,0.91611 0.60056,0.38479 1.24834,0.5726 0.76113,0.2207 1.19624,0.0133 0.43503,-0.22499 0.43128,-0.822981 -0.004,-0.650761 -0.47588,-1.121103 -0.47179,-0.470349 -1.60538,-0.799032 l -1.87854,-0.544678 0.37602,-4.437942 4.53448,1.314745 0.009,1.301523 -3.31986,-0.962582 -0.1497,1.887736 z"
       id="path623"
       inkscape:connector-curvature="0"
       style="fill:#000000;fill-rule:nonzero;stroke-width:1.07913017" />
    <path
       d="m 626.19599,74.430201 47.69092,13.671599 0.0294,55.11191 -47.69092,-13.67159 z"
       id="path625"
       inkscape:connector-curvature="0"
       style="fill:#e9edee;fill-rule:evenodd;stroke-width:1.07913017" />
    <path
       d="m 673.8869,88.1018 8.14743,-6.143376 0.0294,55.111926 -8.14743,6.14336 z"
       id="path627"
       inkscape:connector-curvature="0"
       style="fill:#babdbe;fill-rule:evenodd;stroke-width:1.07913017" />
    <path
       d="m 626.19599,74.430201 8.14743,-6.143366 47.69092,13.67159 -8.14743,6.143375 z"
       id="path629"
       inkscape:connector-curvature="0"
       style="fill:#edf0f1;fill-rule:evenodd;stroke-width:1.07913017" />
    <path
       d="m 626.19599,74.430201 8.14743,-6.143366 47.69092,13.67159 0.0294,55.111925 -8.14743,6.14336 -47.69092,-13.67159 z m 0,0 47.69092,13.671599 8.14743,-6.143376 m -8.14743,6.143376 0.0294,55.11191"
       id="path631"
       inkscape:connector-curvature="0"
       style="fill:#000000;fill-opacity:0;fill-rule:evenodd;stroke-width:1.07913017" />
    <path
       d="m 626.19599,74.430201 8.14743,-6.143366 47.69092,13.67159 0.0294,55.111925 -8.14743,6.14336 -47.69092,-13.67159 z m 0,0 47.69092,13.671599 8.14743,-6.143376 m -8.14743,6.143376 0.0294,55.11191"
       id="path633"
       inkscape:connector-curvature="0"
       style="fill-rule:evenodd;stroke:#434343;stroke-width:2.15826035;stroke-linecap:butt;stroke-linejoin:round" />
    <path
       d="M 533.47356,29.398823 673.79665,69.880963 673.91232,88.15588 533.58923,47.673748 Z"
       id="path635"
       inkscape:connector-curvature="0"
       style="fill:#999999;fill-rule:evenodd;stroke-width:1.07913017" />
    <path
       d="m 673.79664,69.88096 8.18575,-6.1987 0.11566,18.274918 -8.18574,6.198702 z"
       id="path637"
       inkscape:connector-curvature="0"
       style="fill:#7a7a7a;fill-rule:evenodd;stroke-width:1.07913017" />
    <path
       d="m 533.47356,29.398823 8.18576,-6.198697 140.32309,40.482135 -8.18576,6.1987 z"
       id="path639"
       inkscape:connector-curvature="0"
       style="fill:#adadad;fill-rule:evenodd;stroke-width:1.07913017" />
    <path
       d="m 533.47356,29.398823 8.18576,-6.198697 140.32309,40.482135 0.11565,18.274918 -8.18574,6.198701 -140.32309,-40.482134 z m 0,0 140.32309,40.48214 8.18576,-6.198699 m -8.18576,6.198699 0.11567,18.274917"
       id="path641"
       inkscape:connector-curvature="0"
       style="fill:#000000;fill-opacity:0;fill-rule:evenodd;stroke-width:1.07913017" />
    <path
       d="m 533.47356,29.398823 8.18576,-6.198697 140.32309,40.482135 0.11565,18.274918 -8.18574,6.198701 -140.32309,-40.482134 z m 0,0 140.32309,40.48214 8.18576,-6.198699 m -8.18576,6.198699 0.11567,18.274917"
       id="path643"
       inkscape:connector-curvature="0"
       style="fill-rule:evenodd;stroke:#434343;stroke-width:2.15826035;stroke-linecap:butt;stroke-linejoin:round" />
    <path
       d="m 644.55977,108.22053 -0.0171,-5.47213 v 0 c -0.0101,-3.02217 2.47106,-4.75691 5.54016,-3.87467 3.06905,0.88225 5.56466,4.0474 5.57408,7.06957 l 0.0171,5.47214 z"
       id="path645"
       inkscape:connector-curvature="0"
       style="fill:#000000;fill-opacity:0;fill-rule:evenodd;stroke-width:1.07913017" />
    <path
       d="m 644.55977,108.22053 -0.0171,-5.47213 v 0 c -0.0101,-3.02217 2.47106,-4.75691 5.54016,-3.87467 3.06905,0.88225 5.56466,4.0474 5.57408,7.06957 l 0.0171,5.47214 z"
       id="path647"
       inkscape:connector-curvature="0"
       style="fill-rule:evenodd;stroke:#999999;stroke-width:4.31652069;stroke-linecap:butt;stroke-linejoin:round" />
    <path
       d="m 640.6462,104.94095 18.79553,5.57408 -0.068,15.05683 -18.79554,-5.57407 z"
       id="path649"
       inkscape:connector-curvature="0"
       style="fill:#1a9988;fill-rule:evenodd;stroke-width:1.07913017" />
    <path
       d="m 649.22916,114.49581 1.76742,0.54382 0.034,3.67075 -1.76743,-0.54382 z"
       id="path651"
       inkscape:connector-curvature="0"
       style="fill:#e9edee;fill-rule:evenodd;stroke-width:1.07913017" />
    <path
       d="m 647.89849,112.86589 v 0 c -0.0188,-1.37031 1.00075,-2.19203 2.27721,-1.83538 v 0 c 0.61294,0.17127 1.2044,0.59693 1.64419,1.18334 0.43983,0.58641 0.69197,1.28555 0.701,1.94359 v 0 c 0.0188,1.3703 -1.00082,2.19202 -2.27721,1.83538 v 0 c -1.27646,-0.35667 -2.32642,-1.75663 -2.34519,-3.12693 z"
       id="path653"
       inkscape:connector-curvature="0"
       style="fill:#e9edee;fill-rule:evenodd;stroke-width:1.07913017" />
  </g>
</svg>
