<?xml version="1.0" encoding="UTF-8" standalone="no"?>
<svg
   xmlns:dc="http://purl.org/dc/elements/1.1/"
   xmlns:cc="http://creativecommons.org/ns#"
   xmlns:rdf="http://www.w3.org/1999/02/22-rdf-syntax-ns#"
   xmlns:svg="http://www.w3.org/2000/svg"
   xmlns="http://www.w3.org/2000/svg"
   xmlns:sodipodi="http://sodipodi.sourceforge.net/DTD/sodipodi-0.dtd"
   xmlns:inkscape="http://www.inkscape.org/namespaces/inkscape"
   version="1.1"
   viewBox="0 0 379 142"
   stroke-miterlimit="10"
   id="svg723"
   sodipodi:docname="3.svg"
   width="379"
   height="142"
   style="fill:none;stroke:none;stroke-linecap:square;stroke-miterlimit:10"
   inkscape:version="0.92.4 (5da689c313, 2019-01-14)">
  <metadata
     id="metadata729">
    <rdf:RDF>
      <cc:Work
         rdf:about="">
        <dc:format>image/svg+xml</dc:format>
        <dc:type
           rdf:resource="http://purl.org/dc/dcmitype/StillImage" />
        <dc:title></dc:title>
      </cc:Work>
    </rdf:RDF>
  </metadata>
  <defs
     id="defs727" />
  <sodipodi:namedview
     pagecolor="#ffffff"
     bordercolor="#666666"
     borderopacity="1"
     objecttolerance="10"
     gridtolerance="10"
     guidetolerance="10"
     inkscape:pageopacity="0"
     inkscape:pageshadow="2"
     inkscape:window-width="1920"
     inkscape:window-height="1057"
     id="namedview725"
     showgrid="false"
     fit-margin-top="0"
     fit-margin-left="0"
     fit-margin-right="0"
     fit-margin-bottom="0"
     inkscape:zoom="1.1833333"
     inkscape:cx="-91.618046"
     inkscape:cy="214.34274"
     inkscape:window-x="-8"
     inkscape:window-y="-8"
     inkscape:window-maximized="1"
     inkscape:current-layer="g721" />
  <clipPath
     id="ga58203b355_0_965.0">
    <path
       d="M 0,0 H 960 V 540 H 0 Z"
       id="path2"
       inkscape:connector-curvature="0"
       style="clip-rule:nonzero" />
  </clipPath>
  <g
     clip-path="url(#ga58203b355_0_965.0)"
     id="g721"
     transform="translate(-296.97015,-376.14557)">
    <path
       d="m 331.72275,451.7196 86.98135,25.21997 0.10718,16.93487 -86.98135,-25.21997 z"
       id="path7"
       inkscape:connector-curvature="0"
       style="fill:#e9edee;fill-rule:evenodd" />
    <path
       d="m 418.7041,476.93958 7.58252,-5.73392 0.10718,16.93488 -7.58252,5.73391 z"
       id="path9"
       inkscape:connector-curvature="0"
       style="fill:#babdbe;fill-rule:evenodd" />
    <path
       d="m 331.72275,451.7196 7.58252,-5.73392 86.98135,25.21997 -7.58252,5.73392 z"
       id="path11"
       inkscape:connector-curvature="0"
       style="fill:#edf0f1;fill-rule:evenodd" />
    <path
       d="m 331.72275,451.7196 7.58252,-5.73392 86.98135,25.21997 0.10718,16.93488 -7.58252,5.73391 -86.98135,-25.21997 z m 0,0 86.98135,25.21997 7.58252,-5.73392 m -7.58252,5.73392 0.10718,16.93487"
       id="path13"
       inkscape:connector-curvature="0"
       style="fill:#000000;fill-opacity:0;fill-rule:evenodd" />
    <path
       d="m 331.72275,451.7196 7.58252,-5.73392 86.98135,25.21997 0.10718,16.93488 -7.58252,5.73391 -86.98135,-25.21997 z m 0,0 86.98135,25.21997 7.58252,-5.73392 m -7.58252,5.73392 0.10718,16.93487"
       id="path15"
       inkscape:connector-curvature="0"
       style="fill-rule:evenodd;stroke:#434343;stroke-width:2;stroke-linecap:butt;stroke-linejoin:round" />
    <path
       d="m 340.3519,458.69357 q 1.4707,0.42642 2.28748,1.67191 0.83166,1.23352 0.84341,3.09152 0.008,1.32019 -0.43597,2.11865 -0.42942,0.78653 -1.22168,1.04486 -0.79227,0.25836 -1.82776,-0.0419 -0.55527,-0.16101 -1.0513,-0.435 -0.48105,-0.26962 -0.84278,-0.61853 l 0.48832,-0.94839 q 0.52761,0.52716 1.36801,0.77081 1.03549,0.30023 1.60141,-0.21893 0.58093,-0.51486 0.57269,-1.81873 l -1.2e-4,-0.0163 q -0.31256,0.31607 -0.80646,0.38436 -0.47897,0.0563 -1.09427,-0.12203 -0.70532,-0.20453 -1.27743,-0.66324 -0.5571,-0.45438 -0.89066,-1.08796 -0.31866,-0.6455 -0.32309,-1.34634 -0.005,-0.76602 0.3367,-1.23639 0.35654,-0.46603 0.93985,-0.60599 0.59833,-0.13562 1.33365,0.0776 z m 0.129,3.81171 q 0.64529,0.1871 1.04809,-0.0703 0.40271,-0.27368 0.39911,-0.84411 -0.004,-0.57047 -0.41116,-1.06281 -0.39255,-0.488 -1.08289,-0.68814 -0.63028,-0.18277 -1.01809,0.079 -0.38791,0.24542 -0.38419,0.83219 0.004,0.61932 0.39636,1.09103 0.39246,0.47168 1.05277,0.66315 z m 9.61752,-1.34366 0.0522,8.24704 -1.23056,-0.35681 -0.005,-0.76603 q -0.31247,0.33237 -0.77633,0.40937 -0.46387,0.077 -1.03415,-0.0884 -0.78034,-0.22626 -1.41303,-0.78388 -0.63275,-0.57391 -0.99725,-1.36288 -0.36459,-0.80527 -0.37027,-1.70166 -0.006,-0.89642 0.35016,-1.47653 0.35574,-0.59641 0.98364,-0.78852 0.62793,-0.1921 1.4083,0.0341 0.54022,0.15665 0.99166,0.48276 0.45145,0.32611 0.7692,0.82495 l -0.0193,-3.04779 z m -2.85117,6.29895 q 0.46521,0.13489 0.82395,0.0111 0.37372,-0.11939 0.58115,-0.48224 0.22241,-0.35849 0.2189,-0.91263 -0.004,-0.55417 -0.23129,-1.04318 -0.21277,-0.48468 -0.58939,-0.82166 -0.3616,-0.33258 -0.82684,-0.46747 -0.4502,-0.13055 -0.82392,-0.0111 -0.37375,0.11938 -0.58114,0.48223 -0.20743,0.36283 -0.20392,0.917 0.004,0.55413 0.21628,1.03881 0.21279,0.48468 0.58941,0.82163 0.37662,0.33697 0.82681,0.4675 z m 9.69101,0.98779 q 9.2e-4,0.1467 -0.0124,0.40311 l -4.29199,-1.24445 q 0.12418,0.68677 0.59189,1.2128 0.48257,0.5141 1.1879,0.71863 0.90042,0.26105 1.48166,-0.2049 l 0.69571,1.0477 q -0.37211,0.38016 -0.9408,0.45929 -0.55371,0.0835 -1.25903,-0.12103 -0.90043,-0.26105 -1.59324,-0.85239 -0.67776,-0.58694 -1.05728,-1.38028 -0.3796,-0.8096 -0.38519,-1.68972 -0.005,-0.8638 0.35028,-1.46021 0.35571,-0.5964 0.99866,-0.78418 0.64282,-0.20407 1.45318,0.0309 0.79538,0.23059 1.42814,0.8045 0.63266,0.55762 0.98226,1.35855 0.36451,0.78894 0.37027,1.70166 z m -2.77365,-2.75644 q -0.61529,-0.1784 -1.03299,0.0909 -0.41772,0.26932 -0.51855,0.90711 l 3.10644,0.90069 q -0.0792,-0.6737 -0.50183,-1.18667 -0.42279,-0.5293 -1.05307,-0.71207 z m 8.262,3.19269 q 0.557,0.43808 0.86013,0.99777 0.30314,0.55966 0.30713,1.19531 0.005,0.71714 -0.3522,1.15055 -0.35687,0.41711 -1.03033,0.51468 -0.65854,0.0856 -1.52894,-0.16675 -0.8854,-0.25672 -1.54748,-0.72525 -0.66214,-0.4848 -1.02564,-1.11078 -0.36355,-0.6423 -0.3681,-1.35944 -0.004,-0.63562 0.29312,-1.02124 0.29715,-0.38565 0.85065,-0.50174 -0.43683,-0.38693 -0.67954,-0.86401 -0.22778,-0.48904 -0.23117,-1.02689 -0.004,-0.65194 0.32291,-1.04516 0.34207,-0.38889 0.94071,-0.47562 0.59851,-0.10303 1.39389,0.1276 0.79534,0.23062 1.3974,0.68173 0.60192,0.43484 0.93518,1.0195 0.34823,0.58905 0.35235,1.241 0.003,0.53784 -0.23401,0.89196 -0.22253,0.3422 -0.65606,0.47678 z m -1.78775,-3.18637 q -0.63028,-0.18274 -0.98859,0.006 -0.35831,0.18894 -0.35501,0.71048 0.003,0.50525 0.3652,0.90305 0.36203,0.39783 0.99231,0.58057 0.63031,0.18274 0.98862,-0.006 0.37332,-0.1846 0.37012,-0.68985 -0.003,-0.52154 -0.38034,-0.92371 -0.37702,-0.40213 -0.99231,-0.58053 z m 0.0363,5.73706 q 0.73535,0.2132 1.15348,0.009 0.43304,-0.21609 0.42932,-0.80282 -0.004,-0.57044 -0.44089,-1.02262 -0.42236,-0.46408 -1.15769,-0.6773 -0.73535,-0.2132 -1.15338,0.007 -0.41812,0.20413 -0.41452,0.7746 0.004,0.58673 0.42609,1.05084 0.42224,0.44778 1.15759,0.66101 z m 6.8158,-1.55408 q 0.9913,0.41757 1.52035,1.17292 0.52906,0.75534 0.53473,1.65176 0.004,0.66821 -0.30731,1.14731 -0.31165,0.46277 -0.95486,0.60162 -0.64325,0.13886 -1.55866,-0.12656 -0.76535,-0.22192 -1.48724,-0.67523 -0.70688,-0.449 -1.20468,-1.00006 l 0.56314,-0.95923 q 0.39245,0.47168 0.94906,0.84458 0.55649,0.35656 1.15677,0.53061 0.70532,0.20452 1.10855,0.0123 0.40311,-0.2085 0.3996,-0.76264 -0.003,-0.53784 -0.39542,-0.94437 -0.39215,-0.42279 -1.17251,-0.64904 l -0.66031,-0.19147 -0.006,-0.9942 1.62244,-1.62821 -3.2565,-0.94421 -0.008,-1.20609 4.87726,1.41413 0.006,0.96161 z m 8.18997,-0.83023 0.006,0.96161 -2.73318,6.00778 -1.42566,-0.41336 2.64478,-5.77313 -2.80628,-0.81366 0.008,1.32016 -1.24557,-0.36115 -0.0161,-2.54254 z m 3.23569,0.82428 q 1.47067,0.42642 2.28744,1.67191 0.83167,1.23352 0.84342,3.09155 0.008,1.32016 -0.43598,2.11862 -0.42941,0.78653 -1.22168,1.04489 -0.79226,0.25833 -1.82776,-0.0419 -0.55523,-0.16101 -1.0513,-0.43496 -0.48104,-0.26963 -0.84277,-0.61854 l 0.48834,-0.94842 q 0.52759,0.52716 1.36798,0.77084 1.0355,0.30024 1.60141,-0.21896 0.58094,-0.51483 0.5727,-1.81873 l -9e-5,-0.0163 q -0.3126,0.3161 -0.80646,0.38437 -0.47901,0.0564 -1.09427,-0.12204 -0.70532,-0.2045 -1.27747,-0.66324 -0.5571,-0.45435 -0.89065,-1.08792 -0.31867,-0.64554 -0.32309,-1.34638 -0.005,-0.76602 0.3367,-1.23639 0.35657,-0.466 0.93985,-0.60598 0.59833,-0.13562 1.33368,0.0776 z m 0.12896,3.81171 q 0.6453,0.1871 1.04813,-0.0703 0.40271,-0.27369 0.39908,-0.84412 -0.004,-0.57043 -0.41116,-1.06281 -0.39255,-0.48797 -1.08286,-0.68814 -0.63031,-0.18274 -1.0181,0.079 -0.38791,0.24543 -0.38421,0.83219 0.004,0.61932 0.39639,1.09103 0.39243,0.47171 1.05273,0.66315 z m 6.81891,6.15814 q -0.85537,-0.24802 -1.53317,-0.83499 -0.67779,-0.58698 -1.05728,-1.38028 -0.37961,-0.8096 -0.38519,-1.68973 -0.006,-0.88013 0.36526,-1.45587 0.37076,-0.59204 1.0437,-0.77112 0.67282,-0.19534 1.52823,0.0527 0.81037,0.23496 1.4129,0.76758 0.61747,0.52066 0.93683,1.28028 l -0.98654,0.33215 q -0.24267,-0.47708 -0.60409,-0.7771 -0.3465,-0.31195 -0.7667,-0.43378 -0.70532,-0.2045 -1.18234,0.1615 -0.46201,0.37036 -0.45667,1.2179 0.005,0.8475 0.47379,1.48764 0.46841,0.64017 1.18875,0.849 0.4202,0.12185 0.7641,0.0263 0.35883,-0.10745 0.59625,-0.46157 l 0.99451,0.92282 q -0.32605,0.55621 -0.93896,0.75265 -0.598,0.18454 -1.39338,-0.0461 z m 5.98548,1.76801 q -0.85541,-0.24802 -1.53369,-0.91648 -0.67832,-0.66845 -1.07416,-1.67801 -0.39597,-1.02585 -0.4039,-2.28082 -0.008,-1.23868 0.37665,-2.02197 0.38443,-0.79959 1.05673,-1.07645 0.67233,-0.27682 1.52771,-0.0288 0.85541,0.24802 1.53372,0.91648 0.6933,0.67282 1.08926,1.69863 0.39585,1.00956 0.40369,2.24823 0.008,1.25501 -0.37646,2.05457 -0.3845,0.78329 -1.07184,1.05579 -0.67234,0.27685 -1.52771,0.0288 z m -0.008,-1.25498 q 0.76535,0.22189 1.21121,-0.33209 0.44577,-0.57031 0.43711,-1.93936 -0.009,-1.36908 -0.4632,-2.18415 -0.45453,-0.81509 -1.21988,-1.03698 -0.75036,-0.21756 -1.19623,0.33642 -0.44589,0.55402 -0.43722,1.92307 0.009,1.36908 0.46332,2.20044 0.45453,0.81509 1.20489,1.03265 z m 6.47449,-4.17465 q -0.81039,-0.23496 -0.80429,0.72665 l 0.002,0.35855 1.5007,0.43512 0.007,1.10831 -1.45569,-0.42209 0.0302,4.77545 -1.2756,-0.36984 -0.0302,-4.77545 -0.90043,-0.26108 -0.007,-1.10827 0.90042,0.26107 -0.002,-0.39117 q -0.006,-0.94531 0.50073,-1.35153 0.50674,-0.40619 1.43716,-0.13642 0.73535,0.2132 1.15759,0.66101 l -0.35357,0.93866 q -0.3317,-0.34018 -0.70685,-0.44897 z m 4.59463,2.53607 q 0.79538,0.23062 1.42804,0.78824 0.63266,0.55762 0.99726,1.36288 0.3645,0.78894 0.37018,1.68537 0.006,0.89642 -0.35007,1.49283 -0.35584,0.5801 -0.98364,0.78851 -0.6279,0.19211 -1.42328,-0.0385 -0.57025,-0.16535 -1.03684,-0.51212 -0.46655,-0.34674 -0.78436,-0.86188 l 0.005,0.76602 -1.21557,-0.35244 -0.0522,-8.24701 1.27557,0.36984 0.0192,3.03149 q 0.32767,-0.29541 0.76163,-0.3648 0.44897,-0.0651 0.98922,0.0916 z m -0.11911,4.84604 q 0.70533,0.2045 1.15232,-0.17023 0.46191,-0.38665 0.45666,-1.21786 -0.005,-0.83124 -0.47366,-1.47138 -0.45352,-0.6521 -1.15884,-0.85659 -0.4502,-0.13053 -0.82395,-0.0111 -0.37372,0.11941 -0.58114,0.48224 -0.2074,0.36285 -0.20389,0.91699 0.004,0.55417 0.21628,1.03882 0.21276,0.48468 0.58938,0.82165 0.37662,0.33695 0.82684,0.4675 z m 10.1384,2.28885 -1.2756,-0.36987 0.0111,1.76025 -1.29059,-0.37421 -0.0111,-1.76022 -3.93182,-1.14005 -0.006,-1.01049 3.49496,-3.98108 1.42566,0.41336 -3.28622,3.83014 2.34109,0.67877 -0.01,-1.58093 1.24558,0.36114 0.01,1.58093 1.27557,0.36988 z"
       id="path17"
       inkscape:connector-curvature="0"
       style="fill:#000000;fill-rule:nonzero" />
    <path
       d="m 331.686,434.74924 86.98135,25.21997 0.10718,16.93484 -86.98135,-25.21994 z"
       id="path19"
       inkscape:connector-curvature="0"
       style="fill:#e9edee;fill-rule:evenodd" />
    <path
       d="m 418.66736,459.9692 7.58252,-5.73392 0.10718,16.93485 -7.58252,5.73391 z"
       id="path21"
       inkscape:connector-curvature="0"
       style="fill:#babdbe;fill-rule:evenodd" />
    <path
       d="m 331.686,434.74924 7.58252,-5.73392 86.98135,25.21997 -7.58252,5.73392 z"
       id="path23"
       inkscape:connector-curvature="0"
       style="fill:#edf0f1;fill-rule:evenodd" />
    <path
       d="m 331.686,434.74924 7.58252,-5.73392 86.98135,25.21997 0.10718,16.93485 -7.58252,5.73391 -86.98135,-25.21994 z m 0,0 86.98135,25.21997 7.58252,-5.73392 m -7.58252,5.73392 0.10718,16.93484"
       id="path25"
       inkscape:connector-curvature="0"
       style="fill:#000000;fill-opacity:0;fill-rule:evenodd" />
    <path
       d="m 331.686,434.74924 7.58252,-5.73392 86.98135,25.21997 0.10718,16.93485 -7.58252,5.73391 -86.98135,-25.21994 z m 0,0 86.98135,25.21997 7.58252,-5.73392 m -7.58252,5.73392 0.10718,16.93484"
       id="path27"
       inkscape:connector-curvature="0"
       style="fill-rule:evenodd;stroke:#434343;stroke-width:2;stroke-linecap:butt;stroke-linejoin:round" />
    <path
       d="m 344.34616,442.53406 0.0522,8.24701 -1.23057,-0.35678 -0.005,-0.76602 q -0.31247,0.33236 -0.77633,0.40936 -0.46387,0.077 -1.03412,-0.0883 -0.78037,-0.22626 -1.41303,-0.78387 -0.63278,-0.57392 -0.99728,-1.36289 -0.3646,-0.80527 -0.37027,-1.70169 -0.006,-0.89639 0.35016,-1.4765 0.35574,-0.59641 0.98364,-0.78851 0.62793,-0.19211 1.40829,0.0342 0.54026,0.15664 0.9917,0.48275 0.45145,0.32611 0.76917,0.82495 l -0.0193,-3.04782 z m -2.85117,6.29895 q 0.46524,0.13489 0.82395,0.0111 0.37375,-0.11942 0.58114,-0.48224 0.22242,-0.35849 0.21891,-0.91266 -0.003,-0.55414 -0.2313,-1.04315 -0.21276,-0.48468 -0.58938,-0.82166 -0.3616,-0.33261 -0.82681,-0.46749 -0.45023,-0.13053 -0.82395,-0.0111 -0.37372,0.11941 -0.58114,0.48224 -0.2074,0.36285 -0.20392,0.91699 0.004,0.55417 0.21631,1.03885 0.21276,0.48465 0.58938,0.82162 0.37662,0.33695 0.82681,0.4675 z m 7.0839,3.24155 q -0.85541,-0.24802 -1.53318,-0.83499 -0.67779,-0.58698 -1.05731,-1.38028 -0.37961,-0.80961 -0.38516,-1.68973 -0.006,-0.88013 0.36527,-1.45587 0.37072,-0.59204 1.04367,-0.77112 0.67285,-0.19534 1.52822,0.0527 0.81037,0.23496 1.41294,0.76758 0.61743,0.52066 0.93683,1.28027 l -0.98655,0.33216 q -0.2427,-0.47709 -0.60409,-0.7771 -0.3465,-0.31195 -0.76669,-0.43378 -0.70533,-0.2045 -1.18235,0.1615 -0.46203,0.37036 -0.45666,1.21789 0.005,0.84751 0.47378,1.48764 0.46842,0.64017 1.18872,0.849 0.4202,0.12186 0.76413,0.0263 0.35883,-0.10745 0.59626,-0.46158 l 0.99447,0.92282 q -0.32602,0.55622 -0.93893,0.75266 -0.59799,0.18454 -1.39337,-0.0461 z m 5.2409,-6.32187 0.0492,7.77438 -1.33563,-0.38727 -0.0416,-6.56826 -1.51569,-0.43949 -0.008,-1.20608 z m 4.85614,3.1813 q 0.79535,0.23062 1.42801,0.78824 0.63269,0.55762 0.99729,1.36286 0.3645,0.78897 0.37017,1.68539 0.006,0.89642 -0.35006,1.49283 -0.35584,0.58011 -0.98365,0.78851 -0.62793,0.19211 -1.42327,-0.0385 -0.57029,-0.16535 -1.03684,-0.51212 -0.46655,-0.34677 -0.78439,-0.86191 l 0.005,0.76606 -1.21555,-0.35245 -0.0522,-8.24704 1.27557,0.36987 0.0192,3.0315 q 0.32767,-0.29544 0.76163,-0.36481 0.44897,-0.0651 0.98922,0.0916 z m -0.11914,4.84601 q 0.70532,0.20453 1.15235,-0.1702 0.46191,-0.38665 0.45666,-1.21789 -0.005,-0.83121 -0.47369,-1.47135 -0.45349,-0.65209 -1.15882,-0.85659 -0.45022,-0.13053 -0.82394,-0.0111 -0.37372,0.11941 -0.58115,0.48224 -0.20742,0.36285 -0.20391,0.91699 0.004,0.55414 0.2163,1.03882 0.21277,0.48468 0.58939,0.82165 0.37662,0.33695 0.82681,0.46747 z m 6.12308,-3.10519 q 1.21555,0.35244 1.84988,1.17083 0.6492,0.80646 0.65726,2.07773 l 0.022,3.47156 -1.21557,-0.35245 -0.005,-0.71713 q -0.22266,0.3259 -0.65649,0.41159 -0.43396,0.0694 -1.04926,-0.10898 -0.61529,-0.1784 -1.08194,-0.54147 -0.46664,-0.36307 -0.72436,-0.84451 -0.24268,-0.47709 -0.24588,-0.98233 -0.005,-0.79862 0.5321,-1.13092 0.55216,-0.32798 1.72269,0.0114 l 1.42566,0.41336 -5.2e-4,-0.0815 q -0.004,-0.61933 -0.35114,-1.04538 -0.34732,-0.44235 -1.02264,-0.63816 -0.46521,-0.13488 -0.91437,-0.10241 -0.43429,0.0205 -0.74768,0.20617 l -0.50162,-1.15408 q 0.43293,-0.23239 1.03208,-0.23761 0.59903,-0.0215 1.27435,0.17426 z m -0.14801,5.0166 q 0.49524,0.14358 0.85385,0.004 0.37363,-0.13568 0.53592,-0.52789 l -0.004,-0.68451 -1.32062,-0.38291 q -1.11051,-0.32199 -1.10556,0.46033 0.002,0.37485 0.27396,0.68137 0.28656,0.31085 0.76678,0.45007 z m 6.36053,-3.21527 q 1.21558,0.35245 1.84989,1.17083 0.64923,0.80643 0.65726,2.0777 l 0.022,3.47159 -1.21555,-0.35245 -0.005,-0.71713 q -0.22263,0.3259 -0.6565,0.41159 -0.43396,0.0694 -1.04922,-0.10901 -0.6153,-0.1784 -1.08194,-0.54147 -0.46668,-0.36307 -0.72437,-0.84448 -0.2427,-0.47708 -0.24588,-0.98233 -0.005,-0.79865 0.53208,-1.13095 0.55218,-0.32795 1.72271,0.0114 l 1.42566,0.41336 -5.2e-4,-0.0815 q -0.004,-0.61936 -0.35113,-1.04541 -0.34732,-0.44232 -1.02265,-0.63816 -0.46521,-0.13488 -0.91439,-0.10241 -0.43427,0.0205 -0.74765,0.20621 l -0.50162,-1.15412 q 0.43292,-0.23236 1.03207,-0.23761 0.59903,-0.0215 1.27432,0.17429 z m -0.14798,5.0166 q 0.49521,0.14358 0.85386,0.004 0.37362,-0.13571 0.53592,-0.52789 l -0.004,-0.68454 -1.32062,-0.38291 q -1.1105,-0.32199 -1.10556,0.46033 0.002,0.37488 0.27393,0.68137 0.28659,0.31085 0.76681,0.4501 z m 6.48798,-4.38223 q -0.81039,-0.23496 -0.80429,0.72665 l 0.002,0.35855 1.5007,0.43512 0.007,1.10831 -1.45569,-0.42209 0.0302,4.77545 -1.2756,-0.36984 -0.0302,-4.77545 -0.90042,-0.26108 -0.007,-1.10828 0.90042,0.26105 -0.002,-0.39114 q -0.006,-0.94532 0.50073,-1.35154 0.50674,-0.40618 1.43716,-0.13641 0.73535,0.2132 1.1576,0.66101 l -0.35358,0.93866 q -0.3317,-0.34021 -0.70685,-0.44897 z m 6.63306,6.18557 q 9.1e-4,0.1467 -0.0124,0.40311 l -4.292,-1.24441 q 0.12418,0.68673 0.59186,1.21276 0.48261,0.51413 1.18793,0.71863 0.90042,0.26108 1.48166,-0.20486 l 0.69568,1.04767 q -0.37207,0.38015 -0.9408,0.45929 -0.55368,0.0835 -1.25903,-0.12101 -0.90039,-0.26107 -1.5932,-0.85241 -0.6778,-0.58695 -1.05728,-1.38028 -0.37961,-0.8096 -0.3852,-1.68973 -0.005,-0.8638 0.35028,-1.46021 0.35572,-0.5964 0.99866,-0.78418 0.64282,-0.20404 1.45319,0.0309 0.79535,0.23062 1.42813,0.80453 0.63266,0.55762 0.98227,1.35852 0.36447,0.78897 0.37027,1.70166 z m -2.77365,-2.75644 q -0.6153,-0.17837 -1.03302,0.0909 -0.4177,0.26931 -0.51853,0.9071 l 3.10645,0.9007 q -0.0792,-0.67368 -0.50183,-1.18668 -0.42279,-0.5293 -1.05307,-0.71207 z m 8.70214,-0.35635 0.006,0.96161 -2.73316,6.00778 -1.42566,-0.41336 2.64478,-5.7731 -2.80631,-0.81369 0.008,1.32016 -1.24558,-0.36115 -0.0161,-2.54254 z m 6.58542,7.91251 -1.2756,-0.36985 0.0111,1.76023 -1.29059,-0.37421 -0.0111,-1.76022 -3.93182,-1.14002 -0.006,-1.01049 3.49493,-3.98111 1.42566,0.41336 -3.28619,3.83014 2.34109,0.67877 -0.01,-1.58094 1.24558,0.36115 0.01,1.58096 1.27557,0.36985 z m 2.74271,-2.21445 q 1.51569,0.43948 2.24014,1.30029 0.73938,0.84885 0.74628,1.94083 0.004,0.70084 -0.3071,1.1799 -0.31152,0.47907 -0.95465,0.63425 -0.62824,0.14322 -1.55866,-0.12656 -0.76535,-0.22192 -1.48724,-0.67526 -0.70688,-0.44898 -1.20468,-1.00003 l 0.54816,-0.96359 q 0.40744,0.47604 0.96405,0.84893 0.55648,0.35657 1.15677,0.53061 0.70532,0.2045 1.10855,0.0123 0.4031,-0.20849 0.39959,-0.76263 -0.004,-0.60306 -0.44098,-1.03891 -0.43713,-0.43585 -1.48764,-0.74045 l -1.74078,-0.50473 0.34845,-4.11252 4.20194,1.21835 0.008,1.20609 -3.07641,-0.892 -0.13873,1.7493 z m 8.99142,-0.38635 0.006,0.96161 -2.73319,6.00775 -1.42566,-0.41336 2.64478,-5.7731 -2.80628,-0.8137 0.008,1.3202 -1.24558,-0.36115 -0.0161,-2.54257 z m 3.43509,1.56537 q -0.81036,-0.23496 -0.80429,0.72665 l 0.002,0.35858 1.50067,0.43512 0.007,1.10828 -1.45566,-0.42206 0.0302,4.77545 -1.27558,-0.36987 -0.0302,-4.77542 -0.90039,-0.26108 -0.007,-1.10831 0.90042,0.26108 -0.002,-0.39117 q -0.006,-0.94532 0.50076,-1.35151 0.50672,-0.40622 1.43717,-0.13644 0.73532,0.21323 1.15759,0.66101 l -0.35358,0.93869 q -0.33169,-0.34021 -0.70688,-0.449 z"
       id="path29"
       inkscape:connector-curvature="0"
       style="fill:#000000;fill-rule:nonzero" />
    <path
       d="m 331.6462,417.77798 86.98135,25.21994 0.10718,16.93487 -86.98135,-25.21997 z"
       id="path31"
       inkscape:connector-curvature="0"
       style="fill:#e9edee;fill-rule:evenodd" />
    <path
       d="m 418.62756,442.99792 7.58252,-5.73392 0.10718,16.93488 -7.58252,5.73391 z"
       id="path33"
       inkscape:connector-curvature="0"
       style="fill:#babdbe;fill-rule:evenodd" />
    <path
       d="m 331.6462,417.77798 7.58252,-5.73392 86.98135,25.21994 -7.58252,5.73392 z"
       id="path35"
       inkscape:connector-curvature="0"
       style="fill:#edf0f1;fill-rule:evenodd" />
    <path
       d="m 331.6462,417.77798 7.58252,-5.73392 86.98135,25.21994 0.10718,16.93488 -7.58252,5.73391 -86.98135,-25.21997 z m 0,0 86.98135,25.21994 7.58252,-5.73392 m -7.58252,5.73392 0.10718,16.93487"
       id="path37"
       inkscape:connector-curvature="0"
       style="fill:#000000;fill-opacity:0;fill-rule:evenodd" />
    <path
       d="m 331.6462,417.77798 7.58252,-5.73392 86.98135,25.21994 0.10718,16.93488 -7.58252,5.73391 -86.98135,-25.21997 z m 0,0 86.98135,25.21994 7.58252,-5.73392 m -7.58252,5.73392 0.10718,16.93487"
       id="path39"
       inkscape:connector-curvature="0"
       style="fill-rule:evenodd;stroke:#434343;stroke-width:2;stroke-linecap:butt;stroke-linejoin:round" />
    <path
       d="m 344.235,426.0139 0.006,0.96161 -2.73315,6.00778 -1.42566,-0.41336 2.64477,-5.7731 -2.8063,-0.81369 0.008,1.32019 -1.24557,-0.36118 -0.0161,-2.54254 z m 3.39886,0.9855 0.0492,7.77436 -1.3356,-0.38727 -0.0416,-6.56827 -1.51571,-0.43948 -0.008,-1.20609 z m 3.91071,2.90717 q 1.21558,0.35245 1.84988,1.17084 0.64924,0.80642 0.65726,2.07773 l 0.022,3.47155 -1.21554,-0.35244 -0.005,-0.71714 q -0.22262,0.3259 -0.65649,0.41159 -0.43396,0.0694 -1.04926,-0.10901 -0.61526,-0.1784 -1.08194,-0.54147 -0.46664,-0.36304 -0.72433,-0.84448 -0.24271,-0.47708 -0.24591,-0.98233 -0.005,-0.79862 0.5321,-1.13095 0.55219,-0.32794 1.72272,0.0114 l 1.42566,0.41336 -5.2e-4,-0.0815 q -0.004,-0.61935 -0.35114,-1.04538 -0.34735,-0.44235 -1.02264,-0.63815 -0.46521,-0.13489 -0.9144,-0.10245 -0.43426,0.0205 -0.74765,0.20621 l -0.50165,-1.15409 q 0.43296,-0.23239 1.03208,-0.23764 0.59906,-0.0215 1.27435,0.17429 z m -0.14798,5.0166 q 0.49521,0.14359 0.85382,0.004 0.37363,-0.13571 0.53592,-0.52789 l -0.004,-0.68454 -1.32059,-0.38291 q -1.11053,-0.32199 -1.10556,0.46033 0.002,0.37488 0.27393,0.68137 0.28659,0.31085 0.76681,0.4501 z m 9.66904,-4.50107 0.0522,8.24701 -1.23056,-0.35681 -0.005,-0.76602 q -0.31247,0.3324 -0.77634,0.40939 -0.46386,0.077 -1.03415,-0.0883 -0.78036,-0.22628 -1.41302,-0.7839 -0.63275,-0.57391 -0.99725,-1.36286 -0.3646,-0.80526 -0.37027,-1.70169 -0.006,-0.89642 0.35015,-1.4765 0.35572,-0.5964 0.98365,-0.78854 0.62793,-0.19211 1.40826,0.0342 0.54025,0.15664 0.9917,0.48279 0.45145,0.32611 0.76917,0.82495 l -0.0193,-3.04782 z m -2.85117,6.29892 q 0.46521,0.13489 0.82395,0.0111 0.37371,-0.11938 0.58114,-0.48224 0.22241,-0.35849 0.2189,-0.91263 -0.004,-0.55413 -0.23129,-1.04318 -0.21277,-0.48468 -0.58938,-0.82162 -0.36164,-0.33261 -0.82685,-0.4675 -0.45019,-0.13052 -0.82391,-0.0111 -0.37375,0.11942 -0.58115,0.48224 -0.20743,0.36285 -0.20392,0.91699 0.004,0.55414 0.21628,1.03882 0.2128,0.48468 0.58942,0.82165 0.37662,0.33695 0.82681,0.46747 z m 9.37168,2.60343 0.008,1.22238 -5.28244,-1.53162 -0.006,-0.96161 2.81772,-2.11136 q 0.49204,-0.36166 0.65476,-0.68865 0.16269,-0.327 0.16043,-0.68555 -0.004,-0.55417 -0.35044,-0.93131 -0.332,-0.3891 -0.9923,-0.58056 -1.09549,-0.31763 -1.66062,0.33194 l -0.95038,-1.05646 q 0.41626,-0.4975 1.11954,-0.61896 0.71817,-0.13342 1.60358,0.12332 1.17053,0.33939 1.86465,1.14258 0.69403,0.7869 0.70065,1.83002 0.004,0.63562 -0.23257,1.12015 -0.2366,0.48452 -0.93741,0.99716 l -1.8934,1.41949 z m 7.00015,1.49279 -1.27561,-0.36984 0.0111,1.76023 -1.29059,-0.37421 -0.0111,-1.76022 -3.9318,-1.14002 -0.006,-1.0105 3.49497,-3.98111 1.42566,0.41339 -3.28623,3.83011 2.3411,0.67881 -0.01,-1.58097 1.24557,0.36115 0.01,1.58096 1.27558,0.36984 z m 5.72156,2.19584 0.008,1.22238 -5.28244,-1.53165 -0.006,-0.96161 2.81775,-2.11133 q 0.49204,-0.36166 0.65473,-0.68866 0.16272,-0.32699 0.16046,-0.68557 -0.004,-0.55414 -0.35043,-0.93131 -0.33201,-0.3891 -0.99231,-0.58053 -1.09552,-0.31766 -1.66062,0.33194 l -0.95038,-1.05646 q 0.41626,-0.4975 1.11954,-0.61896 0.71817,-0.13342 1.60358,0.12329 1.17053,0.33942 1.86465,1.14261 0.69403,0.7869 0.70065,1.82999 0.004,0.63565 -0.2326,1.12018 -0.2366,0.48452 -0.93738,0.99716 l -1.8934,1.41949 z m 6.09457,-4.77286 0.006,0.96161 -2.73315,6.00778 -1.42566,-0.41339 2.64477,-5.7731 -2.8063,-0.81366 0.008,1.32016 -1.24557,-0.36115 -0.0161,-2.54257 z m 5.86121,6.53119 q 9.4e-4,0.1467 -0.0124,0.4031 l -4.292,-1.24444 q 0.12421,0.68674 0.59189,1.2128 0.48258,0.5141 1.18793,0.71859 0.90039,0.26108 1.48166,-0.20486 l 0.69568,1.04767 q -0.37207,0.38019 -0.9408,0.45932 -0.55371,0.0835 -1.25903,-0.12103 -0.90042,-0.26108 -1.5932,-0.85239 -0.6778,-0.58698 -1.05732,-1.38028 -0.3796,-0.8096 -0.38516,-1.68973 -0.005,-0.86383 0.35025,-1.46023 0.35575,-0.59641 0.99866,-0.78415 0.64282,-0.20407 1.45319,0.0309 0.79538,0.23059 1.42813,0.80451 0.63266,0.55761 0.98227,1.35852 0.3645,0.78897 0.37027,1.70169 z m -2.77366,-2.75644 q -0.61526,-0.17841 -1.03298,0.0909 -0.41773,0.26932 -0.51856,0.90711 l 3.10645,0.90069 q -0.0792,-0.67371 -0.50184,-1.18671 -0.42276,-0.52929 -1.05307,-0.71203 z m 10.01755,6.0281 -1.2756,-0.36984 0.0111,1.76023 -1.29059,-0.37421 -0.0111,-1.76022 -3.93182,-1.14002 -0.006,-1.0105 3.49496,-3.98111 1.42566,0.41339 -3.28622,3.83011 2.34109,0.67881 -0.01,-1.58097 1.24558,0.36115 0.01,1.58096 1.27557,0.36984 z m 3.7937,-1.94223 q 0.70533,0.2045 1.26255,0.67518 0.57211,0.45871 0.89068,1.08795 0.31855,0.62921 0.32309,1.34634 0.005,0.74973 -0.3367,1.23639 -0.34155,0.47037 -0.93988,0.60599 -0.58331,0.13998 -1.31863,-0.0732 -1.48569,-0.43076 -2.30237,-1.65992 -0.81677,-1.24548 -0.82861,-3.11981 -0.008,-1.30386 0.42105,-2.10669 0.44433,-0.79849 1.22171,-1.04486 0.79226,-0.25836 1.84274,0.0462 0.55527,0.16098 1.03632,0.43063 0.49594,0.25766 0.84265,0.60223 l -0.47333,0.95276 q -0.5426,-0.53152 -1.36798,-0.77084 -1.03549,-0.30023 -1.61633,0.23089 -0.58094,0.51487 -0.57279,1.80243 l 1.2e-4,0.0163 q 0.31266,-0.29977 0.80655,-0.36807 0.4939,-0.0683 1.10916,0.1101 z m -0.20117,3.71598 q 0.6153,0.1784 1.00321,-0.067 0.38791,-0.24542 0.38409,-0.84848 -0.004,-0.60303 -0.39627,-1.07474 -0.39246,-0.47168 -1.03775,-0.65878 -0.64529,-0.1871 -1.0481,0.0703 -0.40283,0.25739 -0.3991,0.84412 0.004,0.57043 0.39614,1.05844 0.40747,0.47604 1.09778,0.67621 z m 6.40985,-1.67176 q 0.99131,0.41758 1.52036,1.17289 0.52905,0.75534 0.53473,1.65176 0.004,0.66824 -0.30731,1.14731 -0.31165,0.46277 -0.95487,0.60162 -0.64325,0.13889 -1.55865,-0.12655 -0.76535,-0.2219 -1.48725,-0.67524 -0.70688,-0.44897 -1.20468,-1.00003 l 0.56314,-0.95926 q 0.39246,0.47172 0.94907,0.84458 0.55649,0.35657 1.15677,0.53064 0.70532,0.2045 1.10855,0.0123 0.4031,-0.20847 0.39963,-0.76264 -0.003,-0.53784 -0.39545,-0.94433 -0.39215,-0.42282 -1.17252,-0.64908 l -0.66031,-0.19144 -0.006,-0.9942 1.62246,-1.62823 -3.2565,-0.94422 -0.008,-1.20608 4.87726,1.41415 0.006,0.96161 z"
       id="path41"
       inkscape:connector-curvature="0"
       style="fill:#000000;fill-rule:nonzero" />
    <path
       d="m 331.60947,400.8076 86.98135,25.21997 0.10718,16.93487 -86.98135,-25.21997 z"
       id="path43"
       inkscape:connector-curvature="0"
       style="fill:#e9edee;fill-rule:evenodd" />
    <path
       d="m 418.59082,426.02756 7.58252,-5.73392 0.10718,16.93488 -7.58252,5.73391 z"
       id="path45"
       inkscape:connector-curvature="0"
       style="fill:#babdbe;fill-rule:evenodd" />
    <path
       d="m 331.60947,400.8076 7.58252,-5.73392 86.98135,25.21997 -7.58252,5.73392 z"
       id="path47"
       inkscape:connector-curvature="0"
       style="fill:#edf0f1;fill-rule:evenodd" />
    <path
       d="m 331.60947,400.8076 7.58252,-5.73392 86.98135,25.21997 0.10718,16.93488 -7.58252,5.73391 -86.98135,-25.21997 z m 0,0 86.98135,25.21997 7.58252,-5.73392 m -7.58252,5.73392 0.10718,16.93487"
       id="path49"
       inkscape:connector-curvature="0"
       style="fill:#000000;fill-opacity:0;fill-rule:evenodd" />
    <path
       d="m 331.60947,400.8076 7.58252,-5.73392 86.98135,25.21997 0.10718,16.93488 -7.58252,5.73391 -86.98135,-25.21997 z m 0,0 86.98135,25.21997 7.58252,-5.73392 m -7.58252,5.73392 0.10718,16.93487"
       id="path51"
       inkscape:connector-curvature="0"
       style="fill-rule:evenodd;stroke:#434343;stroke-width:2;stroke-linecap:butt;stroke-linejoin:round" />
    <path
       d="m 343.17462,415.28668 0.008,1.22238 -5.28244,-1.53165 -0.006,-0.9616 2.81775,-2.11133 q 0.492,-0.36167 0.65472,-0.68866 0.16269,-0.327 0.16043,-0.68558 -0.004,-0.55414 -0.35043,-0.9313 -0.332,-0.3891 -0.99231,-0.58054 -1.09549,-0.31766 -1.66061,0.33194 l -0.95038,-1.05646 q 0.41629,-0.4975 1.11953,-0.61896 0.71817,-0.13342 1.60358,0.1233 1.17053,0.33938 1.86469,1.1426 0.69403,0.7869 0.70062,1.82999 0.004,0.63565 -0.23258,1.12018 -0.2366,0.48453 -0.9374,0.99713 l -1.89338,1.41953 z m 3.21017,-3.83591 q 1.21555,0.35245 1.84989,1.17084 0.6492,0.80643 0.65726,2.07773 l 0.022,3.47156 -1.21558,-0.35245 -0.005,-0.71713 q -0.22263,0.32589 -0.6565,0.41159 -0.43396,0.0694 -1.04925,-0.10901 -0.61527,-0.17841 -1.08194,-0.54148 -0.46665,-0.36306 -0.72437,-0.84448 -0.24267,-0.47708 -0.24588,-0.98233 -0.005,-0.79861 0.53211,-1.13095 0.55215,-0.32794 1.72268,0.0115 l 1.42566,0.41336 -5.2e-4,-0.0815 q -0.004,-0.61935 -0.35113,-1.04538 -0.34732,-0.44235 -1.02262,-0.63815 -0.46524,-0.13489 -0.91439,-0.10245 -0.43427,0.0205 -0.74768,0.20621 l -0.50162,-1.15411 q 0.43292,-0.23236 1.03207,-0.23761 0.59903,-0.0215 1.27435,0.17428 z m -0.14801,5.0166 q 0.49524,0.14359 0.85386,0.004 0.37362,-0.13571 0.53591,-0.52789 l -0.004,-0.68454 -1.32062,-0.3829 q -1.1105,-0.32199 -1.10556,0.46032 0.002,0.37488 0.27396,0.68137 0.28656,0.31085 0.76678,0.4501 z m 7.306,-2.94116 q 0.79535,0.23059 1.42801,0.78821 0.63266,0.55762 0.99729,1.36289 0.3645,0.78897 0.37014,1.68536 0.006,0.89642 -0.35003,1.49283 -0.35584,0.58011 -0.98364,0.78851 -0.62793,0.19214 -1.42331,-0.0385 -0.57026,-0.16535 -1.03681,-0.51212 -0.46655,-0.34677 -0.78439,-0.86191 l 0.005,0.76603 -1.21554,-0.35245 -0.0522,-8.24701 1.2756,0.36984 0.0192,3.03153 q 0.3277,-0.29544 0.76166,-0.36484 0.44897,-0.065 0.98922,0.0916 z m -0.11914,4.84601 q 0.70533,0.2045 1.15235,-0.1702 0.46191,-0.38668 0.45663,-1.21789 -0.005,-0.83121 -0.47366,-1.47138 -0.45349,-0.65206 -1.15881,-0.85656 -0.45023,-0.13056 -0.82395,-0.0111 -0.37375,0.11938 -0.58115,0.48224 -0.20742,0.36282 -0.20391,0.91699 0.004,0.55414 0.21627,1.03882 0.2128,0.48468 0.58942,0.82162 0.37662,0.33698 0.82681,0.4675 z m 6.32221,-4.25134 q -0.81037,-0.23496 -0.80429,0.72665 l 0.002,0.35855 1.5007,0.43515 0.007,1.10828 -1.45566,-0.42206 0.0302,4.77545 -1.27557,-0.36987 -0.0302,-4.77545 -0.90042,-0.26105 -0.007,-1.10831 0.90043,0.26108 -0.002,-0.39117 q -0.006,-0.94531 0.50077,-1.3515 0.50671,-0.40622 1.43713,-0.13645 0.73535,0.21323 1.15759,0.66101 l -0.35354,0.93869 q -0.3317,-0.34021 -0.70688,-0.449 z m 3.77664,1.09503 q -0.81036,-0.23496 -0.80429,0.72665 l 0.002,0.35855 1.50067,0.43512 0.007,1.10831 -1.45566,-0.42206 0.0302,4.77542 -1.27557,-0.36984 -0.0302,-4.77545 -0.90042,-0.26108 -0.007,-1.10827 0.90039,0.26107 -0.002,-0.39117 q -0.006,-0.94531 0.50076,-1.3515 0.50671,-0.40622 1.43713,-0.13645 0.73535,0.2132 1.15759,0.66101 l -0.35354,0.93866 q -0.3317,-0.34018 -0.70688,-0.44897 z m 4.09897,0.61908 0.0492,7.77438 -1.33563,-0.38727 -0.0416,-6.56826 -1.51569,-0.43949 -0.008,-1.20608 z m 4.36938,9.10834 q -0.85537,-0.24802 -1.53317,-0.835 -0.67779,-0.58697 -1.05728,-1.38027 -0.37961,-0.80961 -0.38519,-1.68973 -0.006,-0.88013 0.36526,-1.45587 0.37076,-0.59205 1.0437,-0.77112 0.67282,-0.19535 1.52823,0.0527 0.81037,0.23496 1.4129,0.76758 0.61747,0.52066 0.93683,1.28027 l -0.98654,0.33216 q -0.24267,-0.47709 -0.60409,-0.77707 -0.3465,-0.31198 -0.7667,-0.43381 -0.70532,-0.2045 -1.18234,0.1615 -0.46201,0.37036 -0.45667,1.21789 0.005,0.84751 0.47379,1.48764 0.46841,0.64017 1.18875,0.849 0.4202,0.12186 0.7641,0.0263 0.35883,-0.10745 0.59625,-0.46158 l 0.99451,0.92282 q -0.32605,0.55622 -0.93896,0.75266 -0.598,0.18454 -1.39338,-0.0461 z m 9.27774,0.85168 -1.2756,-0.36984 0.0111,1.76022 -1.29059,-0.3742 -0.0111,-1.76023 -3.93182,-1.14001 -0.006,-1.0105 3.49493,-3.98108 1.42566,0.41336 -3.28619,3.83011 2.34109,0.6788 -0.01,-1.58096 1.24558,0.36114 0.01,1.58097 1.27557,0.36984 z m 5.72156,2.19583 0.008,1.22238 -5.28241,-1.53161 -0.006,-0.96161 2.81775,-2.11136 q 0.49203,-0.36166 0.65472,-0.68866 0.16272,-0.327 0.16043,-0.68558 -0.004,-0.55414 -0.3504,-0.93127 -0.33203,-0.3891 -0.99231,-0.58057 -1.09552,-0.31762 -1.66061,0.33194 l -0.95041,-1.05646 q 0.41629,-0.49749 1.11954,-0.61895 0.71817,-0.13343 1.60357,0.12329 1.17053,0.33941 1.86469,1.14261 0.69403,0.78689 0.70062,1.82998 0.004,0.63565 -0.23257,1.12018 -0.23661,0.48453 -0.93738,0.99716 l -1.8934,1.4195 z m 3.13819,-5.74392 q 1.47067,0.42642 2.28744,1.67187 0.8317,1.23352 0.84344,3.09155 0.008,1.32019 -0.43597,2.11866 -0.42941,0.78652 -1.22171,1.04486 -0.79227,0.25833 -1.82773,-0.0419 -0.55527,-0.16098 -1.05133,-0.43497 -0.48105,-0.26962 -0.84274,-0.61853 l 0.48831,-0.9484 q 0.52762,0.52716 1.36801,0.77082 1.03546,0.30023 1.60141,-0.21897 0.58093,-0.51483 0.57266,-1.81869 l -9e-5,-0.0163 q -0.31256,0.31607 -0.80645,0.38437 -0.47898,0.0563 -1.09427,-0.12207 -0.70533,-0.2045 -1.27744,-0.66321 -0.55713,-0.45437 -0.89068,-1.08795 -0.31864,-0.64551 -0.32309,-1.34634 -0.005,-0.76603 0.3367,-1.23639 0.35656,-0.46604 0.93988,-0.60599 0.59832,-0.13565 1.33365,0.0776 z m 0.12899,3.8117 q 0.6453,0.1871 1.0481,-0.0703 0.40271,-0.27368 0.39911,-0.84415 -0.004,-0.57043 -0.41117,-1.06277 -0.39257,-0.48801 -1.08288,-0.68817 -0.63028,-0.18274 -1.0181,0.079 -0.38791,0.24542 -0.38418,0.83215 0.004,0.61935 0.39636,1.09103 0.39245,0.47171 1.05276,0.66318 z m 10.30387,5.33023 -1.27561,-0.36984 0.0112,1.76022 -1.29062,-0.3742 -0.0111,-1.76023 -3.93179,-1.14001 -0.006,-1.0105 3.49497,-3.98111 1.42566,0.41336 -3.28623,3.83014 2.3411,0.67877 -0.01,-1.58093 1.24557,0.36115 0.01,1.58096 1.27558,0.36984 z m 5.72155,2.1958 0.008,1.22238 -5.28244,-1.53161 -0.006,-0.96161 2.81775,-2.11133 q 0.49204,-0.36166 0.65476,-0.68866 0.16269,-0.32702 0.16043,-0.68558 -0.004,-0.55413 -0.35044,-0.9313 -0.332,-0.3891 -0.99231,-0.58054 -1.09552,-0.31765 -1.66061,0.33194 l -0.95038,-1.05645 q 0.41626,-0.49753 1.11954,-0.61899 0.71817,-0.13339 1.60358,0.12332 1.17053,0.33939 1.86465,1.14261 0.69403,0.78689 0.70065,1.82998 0.004,0.63566 -0.2326,1.12018 -0.2366,0.48453 -0.93738,0.99713 l -1.8934,1.41953 z m 3.21021,-3.83587 q 1.21555,0.35244 1.84985,1.17083 0.64923,0.80643 0.65729,2.0777 l 0.0219,3.47159 -1.21554,-0.35245 -0.005,-0.71713 q -0.22263,0.3259 -0.65649,0.41159 -0.43396,0.0694 -1.04923,-0.10901 -0.61529,-0.1784 -1.08194,-0.54147 -0.46667,-0.36307 -0.72436,-0.84448 -0.24268,-0.47709 -0.24588,-0.98233 -0.005,-0.79865 0.5321,-1.13096 0.55215,-0.32794 1.72269,0.0115 l 1.42566,0.41336 -5.2e-4,-0.0815 q -0.004,-0.61936 -0.35114,-1.04538 -0.34732,-0.44235 -1.02264,-0.63816 -0.46521,-0.13488 -0.9144,-0.10244 -0.43427,0.0205 -0.74765,0.2062 l -0.50162,-1.15411 q 0.43292,-0.23236 1.03208,-0.23761 0.59903,-0.0215 1.27435,0.17429 z m -0.14801,5.0166 q 0.49524,0.14358 0.85385,0.004 0.37363,-0.13571 0.53592,-0.52789 l -0.004,-0.68454 -1.32062,-0.38291 q -1.11051,-0.32199 -1.10556,0.46033 0.002,0.37488 0.27392,0.68136 0.28659,0.31086 0.76682,0.45011 z"
       id="path53"
       inkscape:connector-curvature="0"
       style="fill:#000000;fill-rule:nonzero" />
    <path
       d="m 417.5055,425.70056 44.06448,12.63199 0.1409,67.944 -44.06448,-12.63199 z"
       id="path55"
       inkscape:connector-curvature="0"
       style="fill:#e9edee;fill-rule:evenodd" />
    <path
       d="m 461.56998,438.33255 7.66699,-5.79034 0.1409,67.94397 -7.66699,5.79037 z"
       id="path57"
       inkscape:connector-curvature="0"
       style="fill:#babdbe;fill-rule:evenodd" />
    <path
       d="m 417.5055,425.70056 7.66699,-5.79037 44.06449,12.63201 -7.667,5.79035 z"
       id="path59"
       inkscape:connector-curvature="0"
       style="fill:#edf0f1;fill-rule:evenodd" />
    <path
       d="m 417.5055,425.70056 7.66699,-5.79037 44.06449,12.63201 0.1409,67.94397 -7.667,5.79038 -44.06448,-12.63199 z m 0,0 44.06448,12.63199 7.667,-5.79035 m -7.667,5.79035 0.1409,67.944"
       id="path61"
       inkscape:connector-curvature="0"
       style="fill:#000000;fill-opacity:0;fill-rule:evenodd" />
    <path
       d="m 417.5055,425.70056 7.66699,-5.79037 44.06449,12.63201 0.1409,67.94397 -7.667,5.79038 -44.06448,-12.63199 z m 0,0 44.06448,12.63199 7.667,-5.79035 m -7.667,5.79035 0.1409,67.944"
       id="path63"
       inkscape:connector-curvature="0"
       style="fill-rule:evenodd;stroke:#434343;stroke-width:2;stroke-linecap:butt;stroke-linejoin:round" />
    <path
       d="m 331.57013,383.8365 130.03351,37.51367 0.10721,16.93484 -130.03351,-37.51367 z"
       id="path65"
       inkscape:connector-curvature="0"
       style="fill:#d49d48;fill-rule:evenodd" />
    <path
       d="m 461.60364,421.35016 7.58551,-5.74417 0.10718,16.93484 -7.58548,5.74417 z"
       id="path67"
       inkscape:connector-curvature="0"
       style="fill:#a97d39;fill-rule:evenodd" />
    <path
       d="m 331.57013,383.8365 7.58548,-5.74417 130.03354,37.51367 -7.58551,5.74417 z"
       id="path69"
       inkscape:connector-curvature="0"
       style="fill:#dcb06c;fill-rule:evenodd" />
    <path
       d="m 331.57013,383.8365 7.58548,-5.74417 130.03354,37.51367 0.10718,16.93484 -7.58548,5.74417 -130.03351,-37.51367 z m 0,0 130.03351,37.51367 7.58551,-5.74417 m -7.58551,5.74417 0.10721,16.93484"
       id="path71"
       inkscape:connector-curvature="0"
       style="fill:#000000;fill-opacity:0;fill-rule:evenodd" />
    <path
       d="m 331.57013,383.8365 7.58548,-5.74417 130.03354,37.51367 0.10718,16.93484 -7.58548,5.74417 -130.03351,-37.51367 z m 0,0 130.03351,37.51367 7.58551,-5.74417 m -7.58551,5.74417 0.10721,16.93484"
       id="path73"
       inkscape:connector-curvature="0"
       style="fill-rule:evenodd;stroke:#434343;stroke-width:2;stroke-linecap:butt;stroke-linejoin:round" />
    <path
       d="m 434.52618,463.9498 -0.0158,-5.07086 v 0 c -0.009,-2.80057 2.2898,-4.40811 5.13385,-3.59055 2.84406,0.81757 5.15665,3.75061 5.16535,6.55118 l 0.0157,5.07086 z"
       id="path75"
       inkscape:connector-curvature="0"
       style="fill:#000000;fill-opacity:0;fill-rule:evenodd" />
    <path
       d="m 434.52618,463.9498 -0.0158,-5.07086 v 0 c -0.009,-2.80057 2.2898,-4.40811 5.13385,-3.59055 2.84406,0.81757 5.15665,3.75061 5.16535,6.55118 l 0.0157,5.07086 z"
       id="path77"
       inkscape:connector-curvature="0"
       style="fill-rule:evenodd;stroke:#999999;stroke-width:4;stroke-linecap:butt;stroke-linejoin:round" />
    <path
       d="m 430.89954,460.9107 17.41733,5.16534 -0.063,13.95276 -17.41733,-5.16534 z"
       id="path79"
       inkscape:connector-curvature="0"
       style="fill:#1a9988;fill-rule:evenodd" />
    <path
       d="m 438.8532,469.76495 1.63779,0.50394 0.0315,3.40155 -1.63779,-0.50394 z"
       id="path81"
       inkscape:connector-curvature="0"
       style="fill:#e9edee;fill-rule:evenodd" />
    <path
       d="m 437.62,468.25455 v 0 c -0.0174,-1.26984 0.9274,-2.03131 2.11023,-1.70081 v 0 c 0.56802,0.15873 1.11609,0.55317 1.52365,1.09659 0.40756,0.5434 0.64124,1.19126 0.64957,1.80106 v 0 c 0.0174,1.2698 -0.92737,2.03128 -2.11023,1.70077 v 0 c -1.18283,-0.33047 -2.15583,-1.6278 -2.17322,-2.89761 z"
       id="path83"
       inkscape:connector-curvature="0"
       style="fill:#e9edee;fill-rule:evenodd" />
    <path
       d="m 405.23767,490.5335 1.63779,0.50394 0.0315,3.40155 -1.63779,-0.50394 z"
       id="path85"
       inkscape:connector-curvature="0"
       style="fill:#e9edee;fill-rule:evenodd" />
    <path
       d="m 536.7083,383.75388 130.05121,37.59549 0.20178,84.98596 -130.05121,-37.59549 z"
       id="path87"
       inkscape:connector-curvature="0"
       style="fill:#e9edee;fill-rule:evenodd" />
    <path
       d="m 666.7595,421.34937 7.53644,-5.68039 0.20178,84.98596 -7.53644,5.68039 z"
       id="path89"
       inkscape:connector-curvature="0"
       style="fill:#babdbe;fill-rule:evenodd" />
    <path
       d="m 536.7083,383.75388 7.53644,-5.68039 130.05121,37.59549 -7.53644,5.68039 z"
       id="path91"
       inkscape:connector-curvature="0"
       style="fill:#edf0f1;fill-rule:evenodd" />
    <path
       d="m 536.7083,383.75388 7.53644,-5.68039 130.05121,37.59549 0.20178,84.98596 -7.53644,5.68039 -130.05121,-37.59549 z m 0,0 130.05121,37.59549 7.53644,-5.68039 m -7.53644,5.68039 0.20178,84.98596"
       id="path93"
       inkscape:connector-curvature="0"
       style="fill:#000000;fill-opacity:0;fill-rule:evenodd" />
    <path
       d="m 536.7083,383.75388 7.53644,-5.68039 130.05121,37.59549 0.20178,84.98596 -7.53644,5.68039 -130.05121,-37.59549 z m 0,0 130.05121,37.59549 7.53644,-5.68039 m -7.53644,5.68039 0.20178,84.98596"
       id="path95"
       inkscape:connector-curvature="0"
       style="fill-rule:evenodd;stroke:#434343;stroke-width:2;stroke-linecap:butt;stroke-linejoin:round" />
    <path
       d="m 559.098,433.4151 v 0 c -0.0174,-9.0192 6.99091,-14.30014 15.6535,-11.79529 v 0 c 4.15998,1.20288 8.15283,4.07703 11.10022,7.99021 2.94745,3.91314 4.60797,8.54476 4.61634,12.87594 v 0 c 0.0174,9.0192 -6.99097,14.30014 -15.65357,11.79529 v 0 C 566.15189,451.7764 559.1154,442.4343 559.098,433.4151 Z"
       id="path97"
       inkscape:connector-curvature="0"
       style="fill:#999999;fill-rule:evenodd" />
    <path
       d="m 559.098,433.4151 v 0 c -0.0174,-9.0192 6.99091,-14.30014 15.6535,-11.79529 v 0 c 4.15998,1.20288 8.15283,4.07703 11.10022,7.99021 2.94745,3.91314 4.60797,8.54476 4.61634,12.87594 v 0 c 0.0174,9.0192 -6.99097,14.30014 -15.65357,11.79529 v 0 C 566.15189,451.7764 559.1154,442.4343 559.098,433.4151 Z"
       id="path99"
       inkscape:connector-curvature="0"
       style="fill-rule:evenodd;stroke:#3d1733;stroke-width:2;stroke-linecap:butt;stroke-linejoin:round" />
    <path
       d="m 574.0738,437.7462 v 0 c -0.0174,-9.01923 6.99097,-14.30014 15.65356,-11.79529 v 0 c 4.15992,1.20288 8.15277,4.07703 11.10022,7.99018 2.94745,3.91317 4.60798,8.5448 4.61634,12.87597 v 0 c 0.0174,9.0192 -6.99097,14.30011 -15.65357,11.79526 v 0 C 581.12776,456.10747 574.0912,446.7654 574.0738,437.7462 Z"
       id="path101"
       inkscape:connector-curvature="0"
       style="fill:#d49d48;fill-opacity:0.76540001;fill-rule:evenodd" />
    <path
       d="m 574.0738,437.7462 v 0 c -0.0174,-9.01923 6.99097,-14.30014 15.65356,-11.79529 v 0 c 4.15992,1.20288 8.15277,4.07703 11.10022,7.99018 2.94745,3.91317 4.60798,8.5448 4.61634,12.87597 v 0 c 0.0174,9.0192 -6.99097,14.30011 -15.65357,11.79526 v 0 C 581.12776,456.10747 574.0912,446.7654 574.0738,437.7462 Z"
       id="path103"
       inkscape:connector-curvature="0"
       style="fill-rule:evenodd;stroke:#3d1733;stroke-width:2;stroke-linecap:butt;stroke-linejoin:round" />
    <path
       d="m 602.9948,418.36334 51.62201,14.92914 0.12598,56.59845 -51.62201,-14.92914 z"
       id="path105"
       inkscape:connector-curvature="0"
       style="fill:#000000;fill-opacity:0;fill-rule:evenodd" />
    <path
       d="m 619.01465,452.9461 q -3.1521,-0.91156 -5.1532,-3.6536 -2.00116,-2.742 -2.00958,-6.53427 -0.006,-2.55529 0.90582,-4.11337 0.92652,-1.57004 2.54547,-2.06149 1.63391,-0.48712 3.6753,0.10324 2.04132,0.59036 3.66455,2.01944 1.63818,1.43344 2.55792,3.53738 0.93463,2.09204 0.94037,4.64734 0.008,3.79224 -1.9831,5.37958 -1.99145,1.58734 -5.14355,0.67575 z m 15.75519,-11.26971 6.49927,1.8796 -18.30719,23.85294 -6.48432,-1.87524 z m -15.76526,6.76135 q 0.73553,0.21268 1.21393,-0.49475 0.47839,-0.7237 0.47418,-2.62796 -0.004,-1.92053 -0.48651,-2.90579 -0.48224,-1.00153 -1.21771,-1.21424 -0.73548,-0.21271 -1.21387,0.51102 -0.47846,0.70743 -0.47418,2.62796 0.004,1.90427 0.48651,2.90579 0.48218,0.98526 1.21765,1.19797 z m 19.74866,23.96097 q -3.15204,-0.91159 -5.1532,-3.6536 -2.00116,-2.7583 -2.00958,-6.55054 -0.006,-2.53903 0.90588,-4.0971 0.92651,-1.57004 2.56042,-2.05716 1.63398,-0.48712 3.66028,0.0989 2.04138,0.59036 3.67957,2.02377 1.63824,1.43344 2.55792,3.53738 0.93469,2.09204 0.94037,4.63105 0.008,3.79226 -1.99805,5.39154 -1.99151,1.58734 -5.14361,0.67575 z m -0.01,-4.5084 q 0.73547,0.21271 1.21392,-0.49472 0.4784,-0.72369 0.47413,-2.64425 -0.004,-1.90427 -0.48645,-2.8895 -0.48224,-1.00152 -1.21772,-1.21423 -0.72046,-0.20838 -1.19885,0.51535 -0.47845,0.70743 -0.47424,2.61169 0.004,1.92053 0.48651,2.92206 0.48224,0.98526 1.2027,1.1936 z"
       id="path107"
       inkscape:connector-curvature="0"
       style="fill:#666666;fill-rule:nonzero" />
    <path
       d="m 527.6162,436.864 -41.80322,-3.5072 7.24411,5.56692 -14.19678,3.9639 14.48819,11.13385 14.19678,-3.9639 7.24408,5.56693 z"
       id="path437"
       inkscape:connector-curvature="0"
       style="fill:#3d1733;fill-rule:evenodd" />
    <path
       d="m 527.6162,436.864 -41.80322,-3.5072 7.24411,5.56692 -14.19678,3.9639 14.48819,11.13385 14.19678,-3.9639 7.24408,5.56693 z"
       id="path439"
       inkscape:connector-curvature="0"
       style="fill-rule:evenodd;stroke:#3d1733;stroke-width:2;stroke-linecap:butt;stroke-linejoin:round" />
    <path
       d="m 526.57,433.1033 -41.80322,-3.5072 7.24408,5.56692 -14.19675,3.9639 14.48819,11.13385 14.19675,-3.96387 7.24411,5.56693 z"
       id="path441"
       inkscape:connector-curvature="0"
       style="fill:#d49d48;fill-rule:evenodd" />
    <path
       d="m 526.57,433.1033 -41.80322,-3.5072 7.24408,5.56692 -14.19675,3.9639 14.48819,11.13385 14.19675,-3.96387 7.24411,5.56693 z"
       id="path443"
       inkscape:connector-curvature="0"
       style="fill-rule:evenodd;stroke:#3d1733;stroke-width:2;stroke-linecap:butt;stroke-linejoin:round" />
    <path
       d="m 298.08582,462.5894 86.98135,25.21994 0.10718,16.93487 -86.98135,-25.21997 z"
       id="path655"
       inkscape:connector-curvature="0"
       style="fill:#e9edee;fill-rule:evenodd" />
    <path
       d="m 385.06717,487.80933 7.58252,-5.73392 0.10718,16.93488 -7.58252,5.73391 z"
       id="path657"
       inkscape:connector-curvature="0"
       style="fill:#babdbe;fill-rule:evenodd" />
    <path
       d="m 298.08582,462.5894 7.58252,-5.73392 86.98135,25.21994 -7.58252,5.73392 z"
       id="path659"
       inkscape:connector-curvature="0"
       style="fill:#edf0f1;fill-rule:evenodd" />
    <path
       d="m 298.08582,462.5894 7.58252,-5.73392 86.98135,25.21994 0.10718,16.93488 -7.58252,5.73391 -86.98135,-25.21997 z m 0,0 86.98135,25.21994 7.58252,-5.73392 m -7.58252,5.73392 0.10718,16.93487"
       id="path661"
       inkscape:connector-curvature="0"
       style="fill:#000000;fill-opacity:0;fill-rule:evenodd" />
    <path
       d="m 298.08582,462.5894 7.58252,-5.73392 86.98135,25.21994 0.10718,16.93488 -7.58252,5.73391 -86.98135,-25.21997 z m 0,0 86.98135,25.21994 7.58252,-5.73392 m -7.58252,5.73392 0.10718,16.93487"
       id="path663"
       inkscape:connector-curvature="0"
       style="fill-rule:evenodd;stroke:#434343;stroke-width:2;stroke-linecap:butt;stroke-linejoin:round" />
    <path
       d="m 307.84927,469.5343 0.0522,8.24701 -1.23057,-0.35678 -0.005,-0.76605 q -0.31247,0.33239 -0.77633,0.40939 -0.46387,0.077 -1.03415,-0.0884 -0.78037,-0.22626 -1.41303,-0.78387 -0.63275,-0.57392 -0.99725,-1.36289 -0.3646,-0.80527 -0.37027,-1.70169 -0.006,-0.89639 0.35016,-1.4765 0.35571,-0.59641 0.98364,-0.78851 0.62793,-0.19214 1.40826,0.0342 0.54026,0.15661 0.9917,0.48275 0.45145,0.32611 0.76917,0.82495 l -0.0193,-3.04782 z m -2.85117,6.29895 q 0.46521,0.13489 0.82395,0.0111 0.37372,-0.11942 0.58114,-0.48227 0.22242,-0.35849 0.21891,-0.91263 -0.004,-0.55414 -0.2313,-1.04318 -0.21276,-0.48465 -0.58938,-0.82163 -0.36163,-0.33261 -0.82684,-0.46749 -0.4502,-0.13053 -0.82395,-0.0111 -0.37372,0.11941 -0.58111,0.48224 -0.20743,0.36285 -0.20392,0.91699 0.004,0.55417 0.21627,1.03882 0.2128,0.48468 0.58942,0.82165 0.37662,0.33695 0.82681,0.4675 z m 6.55323,-4.86765 q 1.47067,0.42643 2.28744,1.67191 0.83167,1.23352 0.84342,3.09152 0.008,1.32019 -0.43598,2.11865 -0.42941,0.78653 -1.22168,1.04487 -0.79226,0.25836 -1.82776,-0.0419 -0.55523,-0.16102 -1.0513,-0.435 -0.48105,-0.26962 -0.84277,-0.61853 l 0.48831,-0.9484 q 0.52762,0.52716 1.36801,0.77082 1.0355,0.30023 1.60141,-0.21894 0.58094,-0.51486 0.5727,-1.81872 l -1.3e-4,-0.0163 q -0.31256,0.31607 -0.80642,0.38437 -0.47901,0.0563 -1.09427,-0.12204 -0.70532,-0.20453 -1.27747,-0.66324 -0.5571,-0.45437 -0.89065,-1.08795 -0.31867,-0.64551 -0.32309,-1.34634 -0.005,-0.76603 0.3367,-1.23639 0.35657,-0.46604 0.93985,-0.60599 0.59833,-0.13562 1.33368,0.0776 z m 0.12896,3.81171 q 0.6453,0.1871 1.04813,-0.0703 0.40271,-0.27368 0.39908,-0.84412 -0.004,-0.57046 -0.41116,-1.0628 -0.39255,-0.48801 -1.08286,-0.68814 -0.63031,-0.18277 -1.0181,0.079 -0.38791,0.24542 -0.38421,0.83218 0.004,0.61932 0.39636,1.09103 0.39246,0.47168 1.05276,0.66315 z m 7.14814,1.37302 q 0.70532,0.20453 1.26254,0.67517 0.57211,0.45874 0.89069,1.08795 0.31854,0.62921 0.32308,1.34634 0.005,0.74976 -0.3367,1.23642 -0.34155,0.47037 -0.93988,0.60599 -0.58331,0.13996 -1.31863,-0.0732 -1.48569,-0.43079 -2.30237,-1.65994 -0.81677,-1.24549 -0.82864,-3.11978 -0.008,-1.3039 0.42108,-2.10672 0.44434,-0.79847 1.22171,-1.04487 0.79227,-0.25833 1.84274,0.0462 0.55527,0.16101 1.03632,0.43063 0.49594,0.25769 0.84265,0.60224 l -0.47333,0.95275 q -0.5426,-0.53149 -1.36798,-0.77081 -1.03549,-0.30023 -1.61633,0.2309 -0.58093,0.51483 -0.57279,1.8024 l 1.3e-4,0.0163 q 0.31265,-0.29977 0.80655,-0.36807 0.49389,-0.0683 1.10916,0.11011 z m -0.20118,3.71597 q 0.6153,0.17841 1.00321,-0.067 0.38791,-0.24545 0.38409,-0.84848 -0.004,-0.60305 -0.39627,-1.07473 -0.39245,-0.47171 -1.03775,-0.65882 -0.64529,-0.1871 -1.04809,0.0703 -0.40284,0.25739 -0.39911,0.84412 0.004,0.57047 0.39615,1.05844 0.40747,0.47608 1.09777,0.67621 z m 8.6944,-4.21426 0.006,0.96161 -2.73319,6.00778 -1.42566,-0.41336 2.64478,-5.77311 -2.80628,-0.81369 0.008,1.3202 -1.24557,-0.36115 -0.0161,-2.54257 z m 3.25409,8.78497 q -0.85538,-0.24805 -1.53317,-0.83499 -0.6778,-0.58698 -1.05728,-1.38028 -0.37961,-0.80963 -0.3852,-1.68973 -0.006,-0.88013 0.36527,-1.45587 0.37076,-0.59207 1.0437,-0.77112 0.67282,-0.19537 1.52823,0.0526 0.81036,0.23499 1.4129,0.76758 0.61746,0.52069 0.93683,1.28031 l -0.98654,0.33215 q -0.24268,-0.47708 -0.6041,-0.7771 -0.34649,-0.31195 -0.76669,-0.43378 -0.70532,-0.20453 -1.18234,0.1615 -0.46201,0.37036 -0.45667,1.2179 0.005,0.8475 0.47379,1.48764 0.46841,0.64013 1.18875,0.849 0.4202,0.12182 0.7641,0.0263 0.35882,-0.10745 0.59625,-0.46161 l 0.99451,0.92283 q -0.32605,0.55621 -0.93897,0.75268 -0.59799,0.18451 -1.39337,-0.0461 z m 6.38199,-4.21774 q 0.79538,0.23062 1.42804,0.78824 0.63266,0.55761 0.99725,1.36285 0.3645,0.78897 0.37018,1.68539 0.006,0.89643 -0.35007,1.49283 -0.35583,0.58008 -0.98364,0.78851 -0.62793,0.19211 -1.42328,-0.0385 -0.57028,-0.16534 -1.03683,-0.51211 -0.46656,-0.34677 -0.78437,-0.86191 l 0.005,0.76605 -1.21558,-0.35245 -0.0522,-8.24704 1.27557,0.36988 0.0192,3.03149 q 0.32767,-0.29544 0.76163,-0.36484 0.44898,-0.065 0.98923,0.0916 z m -0.11911,4.846 q 0.70532,0.20453 1.15231,-0.17019 0.46192,-0.38666 0.45667,-1.2179 -0.005,-0.8312 -0.47367,-1.47134 -0.45352,-0.6521 -1.15884,-0.8566 -0.45019,-0.13052 -0.82394,-0.0111 -0.37372,0.11939 -0.58115,0.48224 -0.2074,0.36285 -0.20389,0.91699 0.004,0.55414 0.21628,1.03882 0.21277,0.48468 0.58939,0.82166 0.37661,0.33694 0.82684,0.46746 z m 8.85376,-4.0867 0.006,0.96161 -2.73315,6.00779 -1.42566,-0.41337 2.64477,-5.77313 -2.8063,-0.81366 0.008,1.32016 -1.24557,-0.36114 -0.0161,-2.54254 z m 3.80505,4.30817 q 0.99128,0.41757 1.52033,1.17291 0.52905,0.75531 0.53473,1.65174 0.004,0.66824 -0.30728,1.14731 -0.31165,0.46276 -0.9549,0.60165 -0.64322,0.13885 -1.55865,-0.12656 -0.76535,-0.22192 -1.48722,-0.67526 -0.70688,-0.44897 -1.20468,-1.00003 l 0.56314,-0.95926 q 0.39246,0.47171 0.94904,0.84457 0.55649,0.3566 1.15677,0.53064 0.70532,0.2045 1.10855,0.0123 0.40313,-0.20846 0.39963,-0.7626 -0.003,-0.53787 -0.39545,-0.94437 -0.39215,-0.42279 -1.17249,-0.64908 l -0.66031,-0.19143 -0.006,-0.9942 1.62243,-1.62824 -3.2565,-0.94421 -0.008,-1.20609 4.87723,1.41416 0.006,0.96161 z m 5.90543,1.71225 q 0.9913,0.41757 1.52035,1.17291 0.52906,0.75534 0.53473,1.65177 0.004,0.66821 -0.30731,1.14731 -0.31164,0.46276 -0.95486,0.60162 -0.64325,0.13885 -1.55866,-0.12656 -0.76535,-0.22192 -1.48724,-0.67523 -0.70688,-0.449 -1.20468,-1.00006 l 0.56314,-0.95923 q 0.39245,0.47168 0.94906,0.84458 0.55649,0.35656 1.15677,0.5306 0.70532,0.20453 1.10855,0.0123 0.40311,-0.20849 0.3996,-0.76263 -0.003,-0.53784 -0.39542,-0.94437 -0.39215,-0.42279 -1.17251,-0.64905 l -0.66031,-0.19146 -0.006,-0.9942 1.62244,-1.62821 -3.2565,-0.94421 -0.008,-1.20609 4.87726,1.41413 0.006,0.96161 z m 5.36609,-1.64902 0.0492,7.77436 -1.3356,-0.38724 -0.0416,-6.56827 -1.51572,-0.43948 -0.008,-1.20609 z m 7.85434,8.28043 -1.27561,-0.36984 0.0111,1.76022 -1.29059,-0.37421 -0.0111,-1.76022 -3.93183,-1.14001 -0.006,-1.0105 3.49497,-3.98111 1.42566,0.41339 -3.28623,3.83011 2.3411,0.6788 -0.01,-1.58096 1.24557,0.36114 0.01,1.58097 1.27558,0.36984 z m 3.7937,-1.94223 q 0.70532,0.2045 1.26254,0.67517 0.57211,0.45871 0.89069,1.08795 0.31854,0.62921 0.32306,1.34635 0.005,0.74972 -0.3367,1.23639 -0.34153,0.47036 -0.93985,0.60598 -0.58332,0.13999 -1.31867,-0.0732 -1.48565,-0.43076 -2.30234,-1.65991 -0.81677,-1.24549 -0.82864,-3.11981 -0.008,-1.30387 0.42108,-2.10669 0.44434,-0.7985 1.22171,-1.04486 0.79227,-0.25837 1.84275,0.0462 0.55526,0.16098 1.03631,0.43063 0.49594,0.25766 0.84265,0.60224 l -0.47333,0.95276 q -0.5426,-0.53153 -1.36798,-0.77085 -1.03549,-0.30023 -1.61633,0.2309 -0.58093,0.51486 -0.57278,1.80243 l 1.2e-4,0.0163 q 0.31265,-0.29977 0.80655,-0.36807 0.49389,-0.0683 1.10916,0.11011 z m -0.20117,3.71597 q 0.61529,0.17841 1.0032,-0.067 0.38791,-0.24543 0.3841,-0.84849 -0.004,-0.60302 -0.39628,-1.07473 -0.39245,-0.47168 -1.03775,-0.65879 -0.64529,-0.1871 -1.04809,0.0703 -0.40283,0.25738 -0.39911,0.84411 0.004,0.57044 0.39615,1.05844 0.40747,0.47605 1.09778,0.67621 z m 8.97827,0.6998 q 9.1e-4,0.14667 -0.0124,0.40311 l -4.29199,-1.24445 q 0.12417,0.68674 0.59185,1.2128 0.48261,0.5141 1.18793,0.7186 0.90042,0.26108 1.48166,-0.20487 l 0.69568,1.04767 q -0.37207,0.38019 -0.94077,0.45932 -0.55371,0.0835 -1.25906,-0.12103 -0.90039,-0.26108 -1.5932,-0.85239 -0.6778,-0.58697 -1.05728,-1.38028 -0.37961,-0.80963 -0.3852,-1.68972 -0.005,-0.86383 0.35029,-1.46024 0.35571,-0.5964 0.99865,-0.78415 0.64282,-0.20407 1.45319,0.0309 0.79538,0.23063 1.42813,0.80454 0.63266,0.55762 0.98227,1.35852 0.3645,0.78897 0.37027,1.70169 z m -2.77365,-2.75644 q -0.6153,-0.1784 -1.03302,0.0909 -0.4177,0.26932 -0.51853,0.90711 l 3.10645,0.90069 q -0.0792,-0.6737 -0.50183,-1.1867 -0.42279,-0.5293 -1.05307,-0.71204 z"
       id="path665"
       inkscape:connector-curvature="0"
       style="fill:#000000;fill-rule:nonzero" />
    <path
       d="m 298.04608,445.61807 86.98135,25.21994 0.10718,16.93487 -86.98135,-25.21997 z"
       id="path667"
       inkscape:connector-curvature="0"
       style="fill:#e9edee;fill-rule:evenodd" />
    <path
       d="m 385.02744,470.838 7.58252,-5.73389 0.10718,16.93485 -7.58252,5.73392 z"
       id="path669"
       inkscape:connector-curvature="0"
       style="fill:#babdbe;fill-rule:evenodd" />
    <path
       d="m 298.04608,445.61807 7.58252,-5.73392 86.98135,25.21997 -7.58252,5.73389 z"
       id="path671"
       inkscape:connector-curvature="0"
       style="fill:#edf0f1;fill-rule:evenodd" />
    <path
       d="m 298.04608,445.61807 7.58252,-5.73392 86.98135,25.21997 0.10718,16.93485 -7.58252,5.73391 -86.98135,-25.21997 z m 0,0 86.98135,25.21994 7.58252,-5.73389 m -7.58252,5.73389 0.10718,16.93487"
       id="path673"
       inkscape:connector-curvature="0"
       style="fill:#000000;fill-opacity:0;fill-rule:evenodd" />
    <path
       d="m 298.04608,445.61807 7.58252,-5.73392 86.98135,25.21997 0.10718,16.93485 -7.58252,5.73391 -86.98135,-25.21997 z m 0,0 86.98135,25.21994 7.58252,-5.73389 m -7.58252,5.73389 0.10718,16.93487"
       id="path675"
       inkscape:connector-curvature="0"
       style="fill-rule:evenodd;stroke:#434343;stroke-width:2;stroke-linecap:butt;stroke-linejoin:round" />
    <path
       d="m 304.91678,460.07 q -0.85538,-0.24802 -1.53369,-0.91647 -0.67829,-0.66846 -1.07416,-1.67801 -0.39593,-1.02585 -0.4039,-2.28083 -0.008,-1.23867 0.37668,-2.02197 0.3844,-0.79956 1.05673,-1.07641 0.6723,-0.27686 1.52771,-0.0288 0.85538,0.24801 1.53369,0.91647 0.6933,0.67282 1.08927,1.69867 0.39584,1.00955 0.40368,2.24823 0.008,1.25497 -0.37646,2.05457 -0.38449,0.78326 -1.07181,1.05578 -0.67233,0.27683 -1.52774,0.0288 z m -0.008,-1.25497 q 0.76535,0.22192 1.21124,-0.3321 0.44577,-0.57028 0.4371,-1.93936 -0.009,-1.36908 -0.46322,-2.18414 -0.45453,-0.81506 -1.21988,-1.03699 -0.75034,-0.21756 -1.19623,0.33646 -0.44586,0.55398 -0.4372,1.92306 0.009,1.36908 0.46329,2.20044 0.45456,0.81507 1.2049,1.03263 z m 7.13494,-1.59168 q 0.70533,0.20453 1.26255,0.67517 0.57211,0.45874 0.89065,1.08795 0.31858,0.62925 0.32309,1.34635 0.005,0.74975 -0.3367,1.23642 -0.34155,0.47036 -0.93985,0.60598 -0.58331,0.13996 -1.31866,-0.0732 -1.48569,-0.43075 -2.30234,-1.65994 -0.81677,-1.24545 -0.82864,-3.11978 -0.008,-1.3039 0.42108,-2.10672 0.44433,-0.79846 1.22168,-1.04486 0.79229,-0.25833 1.84277,0.0463 0.55524,0.16098 1.03629,0.43061 0.49597,0.25769 0.84268,0.60223 l -0.47333,0.95276 q -0.5426,-0.5315 -1.36801,-0.77082 -1.03546,-0.30023 -1.6163,0.2309 -0.58094,0.51483 -0.57279,1.8024 l 9e-5,0.0163 q 0.31269,-0.29978 0.80658,-0.36808 0.49387,-0.0683 1.10916,0.11011 z m -0.20117,3.71597 q 0.6153,0.17841 1.00321,-0.067 0.38791,-0.24546 0.38409,-0.84848 -0.004,-0.60306 -0.39627,-1.07474 -0.39246,-0.47171 -1.03775,-0.65881 -0.64529,-0.18711 -1.04813,0.0703 -0.4028,0.25738 -0.39907,0.84411 0.004,0.57047 0.39614,1.05845 0.40747,0.47607 1.09778,0.6762 z m 6.37113,2.95356 q -0.85538,-0.24802 -1.53318,-0.835 -0.67779,-0.58694 -1.05728,-1.38027 -0.37961,-0.80961 -0.38519,-1.68973 -0.006,-0.8801 0.36526,-1.45587 0.37076,-0.59205 1.04368,-0.77109 0.67285,-0.19538 1.52825,0.0526 0.81037,0.23496 1.41291,0.76758 0.61746,0.52066 0.93683,1.28027 l -0.98655,0.33219 q -0.24267,-0.47709 -0.60409,-0.7771 -0.3465,-0.31195 -0.76669,-0.43381 -0.70533,-0.2045 -1.18235,0.16153 -0.462,0.37036 -0.45666,1.21786 0.005,0.84754 0.47378,1.48767 0.46842,0.64014 1.18875,0.849 0.4202,0.12183 0.7641,0.0263 0.35883,-0.10745 0.59626,-0.46161 l 0.99447,0.92282 q -0.32602,0.55622 -0.93893,0.75269 -0.59799,0.18451 -1.39337,-0.0461 z m 5.48776,-4.47699 q 1.21558,0.35244 1.84988,1.17083 0.64923,0.80643 0.65726,2.07773 l 0.022,3.47156 -1.21554,-0.35245 -0.005,-0.71713 q -0.22263,0.3259 -0.65649,0.41159 -0.43396,0.0694 -1.04926,-0.10901 -0.61526,-0.1784 -1.08194,-0.54147 -0.46664,-0.36307 -0.72433,-0.84448 -0.24271,-0.47709 -0.24591,-0.98233 -0.005,-0.79862 0.5321,-1.13096 0.55218,-0.32794 1.72272,0.0114 l 1.42566,0.41336 -5.2e-4,-0.0815 q -0.004,-0.61936 -0.35114,-1.04538 -0.34735,-0.44235 -1.02264,-0.63816 -0.46521,-0.13488 -0.9144,-0.10244 -0.43426,0.0205 -0.74765,0.2062 l -0.50165,-1.15411 q 0.43295,-0.23236 1.03208,-0.23761 0.59906,-0.0215 1.27435,0.17429 z m -0.14798,5.0166 q 0.49521,0.14358 0.85382,0.004 0.37363,-0.13571 0.53592,-0.5279 l -0.004,-0.68453 -1.32059,-0.38291 q -1.11054,-0.32199 -1.10556,0.46033 0.002,0.37488 0.27392,0.68136 0.28659,0.31086 0.76682,0.45011 z m 8.54861,-0.67746 q 0.55701,0.43808 0.86014,0.99774 0.30313,0.55969 0.30716,1.19531 0.005,0.71713 -0.35223,1.15058 -0.35688,0.41711 -1.03034,0.51468 -0.65854,0.0856 -1.52893,-0.16675 -0.8854,-0.25672 -1.54748,-0.72525 -0.66214,-0.48484 -1.02564,-1.11081 -0.36355,-0.64228 -0.3681,-1.35941 -0.004,-0.63565 0.29312,-1.02127 0.29715,-0.38562 0.85065,-0.50171 -0.43683,-0.38696 -0.67954,-0.86404 -0.22778,-0.48902 -0.23117,-1.02689 -0.004,-0.65191 0.32291,-1.04513 0.34207,-0.38889 0.9407,-0.47562 0.59851,-0.10303 1.39389,0.12759 0.79538,0.23063 1.3974,0.68174 0.60193,0.43481 0.93518,1.0195 0.34824,0.58902 0.35236,1.24096 0.003,0.53785 -0.23401,0.892 -0.22253,0.3422 -0.65607,0.47678 z m -1.78775,-3.1864 q -0.63028,-0.18274 -0.98858,0.006 -0.35831,0.18897 -0.35501,0.71051 0.003,0.50525 0.3652,0.90305 0.36203,0.39779 0.99234,0.58056 0.63028,0.18274 0.98859,-0.006 0.37332,-0.1846 0.37011,-0.68985 -0.003,-0.52155 -0.38034,-0.92371 -0.37701,-0.40216 -0.99231,-0.58056 z m 0.0363,5.73706 q 0.73535,0.21322 1.15347,0.009 0.43305,-0.21609 0.42932,-0.80282 -0.004,-0.57047 -0.44088,-1.02262 -0.42237,-0.46411 -1.15769,-0.6773 -0.73535,-0.21323 -1.15338,0.007 -0.41812,0.20413 -0.41452,0.77456 0.004,0.58677 0.42609,1.05085 0.42224,0.44781 1.15759,0.66101 z m 6.8158,-1.55405 q 0.9913,0.41757 1.52035,1.17291 0.52905,0.75531 0.53473,1.65174 0.004,0.66824 -0.30731,1.14731 -0.31165,0.46276 -0.95487,0.60165 -0.64325,0.13885 -1.55865,-0.12656 -0.76535,-0.22192 -1.48725,-0.67526 -0.70687,-0.44897 -1.20468,-1.00003 l 0.56314,-0.95926 q 0.39246,0.47171 0.94907,0.84457 0.55649,0.3566 1.15677,0.53064 0.70532,0.2045 1.10855,0.0123 0.40311,-0.20849 0.3996,-0.76263 -0.003,-0.53787 -0.39542,-0.94437 -0.39215,-0.42279 -1.17251,-0.64908 l -0.66031,-0.19143 -0.006,-0.9942 1.62244,-1.62824 -3.2565,-0.94421 -0.008,-1.20609 4.87725,1.41416 0.006,0.9616 z m 9.32095,5.50076 -1.27558,-0.36984 0.0111,1.76022 -1.29062,-0.3742 -0.0111,-1.76023 -3.9318,-1.14001 -0.006,-1.0105 3.49497,-3.98111 1.42566,0.41336 -3.2862,3.83014 2.34107,0.6788 -0.01,-1.58096 1.24557,0.36115 0.01,1.58096 1.27561,0.36984 z m 3.7937,-1.94223 q 0.70535,0.2045 1.26254,0.67517 0.57215,0.45871 0.89069,1.08793 0.31854,0.62924 0.32309,1.34637 0.005,0.74973 -0.3367,1.23639 -0.34156,0.47037 -0.93988,0.60599 -0.58332,0.13998 -1.31864,-0.0733 -1.48568,-0.43075 -2.30236,-1.65994 -0.81678,-1.24545 -0.82862,-3.11978 -0.008,-1.30386 0.42105,-2.10669 0.44434,-0.79849 1.22171,-1.04486 0.79227,-0.25836 1.84275,0.0462 0.55526,0.16098 1.03631,0.43061 0.49594,0.25769 0.84265,0.60223 l -0.47329,0.95276 q -0.54264,-0.53149 -1.36802,-0.77081 -1.03549,-0.30023 -1.6163,0.23089 -0.58096,0.51483 -0.57278,1.80243 l 9e-5,0.0163 q 0.31265,-0.29981 0.80655,-0.36807 0.49389,-0.0683 1.10916,0.1101 z m -0.20117,3.71598 q 0.61529,0.1784 1.0032,-0.067 0.38791,-0.24542 0.3841,-0.84848 -0.004,-0.60303 -0.39627,-1.07474 -0.39246,-0.47168 -1.03775,-0.65878 -0.6453,-0.1871 -1.0481,0.0703 -0.40283,0.25736 -0.39911,0.84412 0.004,0.57043 0.39618,1.05844 0.40744,0.47604 1.09775,0.67621 z m 6.40988,-1.67176 q 0.99127,0.41755 1.52032,1.17289 0.52906,0.75534 0.53473,1.65176 0.004,0.66824 -0.30731,1.14731 -0.31161,0.46277 -0.95486,0.60162 -0.64322,0.13889 -1.55866,-0.12655 -0.76535,-0.2219 -1.48724,-0.67524 -0.70685,-0.449 -1.20468,-1.00003 l 0.56317,-0.95926 q 0.39242,0.47171 0.94903,0.84458 0.55649,0.35656 1.15677,0.53061 0.70532,0.20453 1.10855,0.0123 0.40314,-0.2085 0.39963,-0.76264 -0.003,-0.53784 -0.39545,-0.94433 -0.39215,-0.42283 -1.17251,-0.64908 l -0.66028,-0.19144 -0.006,-0.99423 1.62247,-1.62821 -3.2565,-0.94421 -0.008,-1.20609 4.87723,1.41416 0.006,0.96161 z m 5.36606,-1.64904 0.0492,7.77438 -1.33563,-0.38727 -0.0416,-6.56827 -1.51572,-0.43948 -0.008,-1.20609 z m 4.69861,4.32324 q 0.70532,0.2045 1.26254,0.67517 0.57211,0.45871 0.89068,1.08792 0.31855,0.62924 0.32306,1.34637 0.005,0.74973 -0.3367,1.23639 -0.34152,0.47037 -0.93985,0.60599 -0.58331,0.13999 -1.31866,-0.0732 -1.48566,-0.43076 -2.30234,-1.65994 -0.81677,-1.24546 -0.82864,-3.11979 -0.008,-1.30386 0.42108,-2.10668 0.44434,-0.7985 1.22171,-1.0449 0.79227,-0.25833 1.84274,0.0463 0.55527,0.16098 1.03632,0.4306 0.49594,0.25769 0.84265,0.60224 l -0.47333,0.95275 q -0.5426,-0.53149 -1.36798,-0.77081 -1.03549,-0.30023 -1.61633,0.2309 -0.58093,0.51483 -0.57279,1.80243 l 1.3e-4,0.0163 q 0.31265,-0.2998 0.80654,-0.36807 0.49387,-0.0683 1.10917,0.11011 z m -0.20118,3.71597 q 0.6153,0.17838 1.00321,-0.067 0.38791,-0.24542 0.38409,-0.84848 -0.004,-0.60302 -0.39627,-1.07473 -0.39245,-0.47171 -1.03775,-0.65882 -0.64529,-0.18707 -1.04809,0.0703 -0.40284,0.25739 -0.39911,0.84415 0.004,0.57044 0.39615,1.05844 0.40747,0.47605 1.09777,0.67621 z m 8.6944,-4.21426 0.006,0.96161 -2.73318,6.00775 -1.42566,-0.41336 2.64478,-5.77311 -2.80628,-0.81366 0.008,1.32016 -1.24557,-0.36114 -0.0161,-2.54257 z m 6.58539,7.9125 -1.27557,-0.36987 0.0111,1.76022 -1.29058,-0.37417 -0.0111,-1.76026 -3.93183,-1.14001 -0.006,-1.0105 3.49497,-3.98108 1.42566,0.41336 -3.2862,3.83011 2.34107,0.6788 -0.01,-1.58096 1.24557,0.36118 0.01,1.58093 1.27561,0.36984 z"
       id="path677"
       inkscape:connector-curvature="0"
       style="fill:#000000;fill-rule:nonzero" />
    <path
       d="m 298.0094,428.64764 86.98135,25.21997 0.10718,16.93484 -86.98135,-25.21994 z"
       id="path679"
       inkscape:connector-curvature="0"
       style="fill:#e9edee;fill-rule:evenodd" />
    <path
       d="m 384.99075,453.8676 7.58252,-5.73392 0.10718,16.93485 -7.58252,5.73391 z"
       id="path681"
       inkscape:connector-curvature="0"
       style="fill:#babdbe;fill-rule:evenodd" />
    <path
       d="m 298.0094,428.64764 7.58252,-5.73392 86.98135,25.21997 -7.58252,5.73392 z"
       id="path683"
       inkscape:connector-curvature="0"
       style="fill:#edf0f1;fill-rule:evenodd" />
    <path
       d="m 298.0094,428.64764 7.58252,-5.73392 86.98135,25.21997 0.10718,16.93485 -7.58252,5.73391 -86.98135,-25.21994 z m 0,0 86.98135,25.21997 7.58252,-5.73392 m -7.58252,5.73392 0.10718,16.93484"
       id="path685"
       inkscape:connector-curvature="0"
       style="fill:#000000;fill-opacity:0;fill-rule:evenodd" />
    <path
       d="m 298.0094,428.64764 7.58252,-5.73392 86.98135,25.21997 0.10718,16.93485 -7.58252,5.73391 -86.98135,-25.21994 z m 0,0 86.98135,25.21997 7.58252,-5.73392 m -7.58252,5.73392 0.10718,16.93484"
       id="path687"
       inkscape:connector-curvature="0"
       style="fill-rule:evenodd;stroke:#434343;stroke-width:2;stroke-linecap:butt;stroke-linejoin:round" />
    <path
       d="m 305.7273,436.04065 q -0.81036,-0.23495 -0.80429,0.72665 l 0.002,0.35856 1.50067,0.43511 0.007,1.10831 -1.45566,-0.42206 0.0302,4.77546 -1.27557,-0.36988 -0.0302,-4.77545 -0.90042,-0.26105 -0.007,-1.1083 0.90042,0.26107 -0.002,-0.39117 q -0.006,-0.94531 0.50076,-1.3515 0.50671,-0.40622 1.43713,-0.13645 0.73535,0.21323 1.15759,0.66101 l -0.35354,0.9387 q -0.3317,-0.34021 -0.70688,-0.44901 z m 4.09897,0.61911 0.0492,7.77435 -1.33563,-0.38726 -0.0416,-6.56827 -1.51569,-0.43949 -0.008,-1.20608 z m 4.36938,9.10831 q -0.85537,-0.24802 -1.53317,-0.83499 -0.67779,-0.58695 -1.05728,-1.38028 -0.37961,-0.8096 -0.38519,-1.68973 -0.006,-0.88013 0.36526,-1.45587 0.37076,-0.59204 1.04367,-0.77112 0.67285,-0.19534 1.52826,0.0527 0.81037,0.23496 1.4129,0.76758 0.61747,0.52066 0.93683,1.28027 l -0.98654,0.33216 q -0.24267,-0.47708 -0.60409,-0.77707 -0.3465,-0.31198 -0.7667,-0.43381 -0.70532,-0.2045 -1.18234,0.1615 -0.46201,0.37039 -0.45667,1.21789 0.005,0.84754 0.47379,1.48768 0.46841,0.64013 1.18875,0.84899 0.4202,0.12183 0.7641,0.0263 0.35883,-0.10745 0.59625,-0.46158 l 0.99451,0.92282 q -0.32605,0.55622 -0.93896,0.75269 -0.598,0.18451 -1.39338,-0.0461 z m 9.27771,0.85171 -1.27557,-0.36987 0.0111,1.76022 -1.29059,-0.37417 -0.0111,-1.76026 -3.93182,-1.14001 -0.006,-1.0105 3.49493,-3.98108 1.42566,0.41336 -3.28619,3.83011 2.34109,0.6788 -0.01,-1.58096 1.24558,0.36118 0.01,1.58093 1.2756,0.36984 z m 5.72159,2.1958 0.008,1.22238 -5.28244,-1.53161 -0.006,-0.96161 2.81775,-2.11136 q 0.49203,-0.36166 0.65472,-0.68866 0.16272,-0.32699 0.16043,-0.68558 -0.004,-0.55413 -0.3504,-0.93127 -0.33203,-0.3891 -0.99234,-0.58057 -1.09549,-0.31762 -1.66058,0.33194 l -0.95041,-1.05645 q 0.41629,-0.4975 1.11954,-0.61896 0.71817,-0.13343 1.60357,0.12332 1.17053,0.33939 1.86469,1.14258 0.69403,0.78689 0.70062,1.83001 0.004,0.63562 -0.23257,1.12015 -0.23661,0.48453 -0.93738,0.99716 l -1.8934,1.4195 z m 3.13819,-5.74392 q 1.47067,0.42642 2.28744,1.67187 0.83167,1.23352 0.84344,3.09155 0.008,1.32019 -0.43597,2.11866 -0.42944,0.78653 -1.22171,1.04486 -0.79227,0.25836 -1.82773,-0.0419 -0.55527,-0.16098 -1.05133,-0.43497 -0.48105,-0.26962 -0.84274,-0.61853 l 0.48831,-0.9484 q 0.52762,0.52716 1.36801,0.77082 1.03546,0.30023 1.60141,-0.21894 0.58093,-0.51486 0.57266,-1.81872 l -9e-5,-0.0163 q -0.31256,0.31607 -0.80645,0.38437 -0.47898,0.0563 -1.09427,-0.12204 -0.70533,-0.20453 -1.27744,-0.66324 -0.55713,-0.45437 -0.89068,-1.08795 -0.31864,-0.64551 -0.32309,-1.34634 -0.005,-0.76602 0.3367,-1.23639 0.35656,-0.46604 0.93988,-0.60599 0.59832,-0.13562 1.33365,0.0776 z m 0.12899,3.8117 q 0.6453,0.18711 1.0481,-0.0703 0.40271,-0.27368 0.39911,-0.84412 -0.004,-0.57046 -0.41117,-1.0628 -0.39257,-0.48801 -1.08288,-0.68814 -0.63028,-0.18277 -1.0181,0.079 -0.38791,0.24542 -0.38418,0.83215 0.004,0.61936 0.39636,1.09107 0.39245,0.47168 1.05276,0.66314 z m 10.30387,5.33023 -1.27561,-0.36984 0.0111,1.76022 -1.29059,-0.3742 -0.0111,-1.76023 -3.93182,-1.14001 -0.006,-1.0105 3.49497,-3.98111 1.42566,0.41336 -3.28623,3.83014 2.3411,0.6788 -0.01,-1.58096 1.24557,0.36115 0.01,1.58096 1.27558,0.36984 z m 5.72155,2.19583 0.008,1.22239 -5.28244,-1.53165 -0.006,-0.96161 2.81775,-2.11133 q 0.49204,-0.36166 0.65473,-0.68866 0.16272,-0.32699 0.16043,-0.68557 -0.003,-0.55414 -0.35041,-0.93131 -0.332,-0.3891 -0.99231,-0.58054 -1.09552,-0.31765 -1.66061,0.33194 l -0.95038,-1.05645 q 0.41626,-0.4975 1.11954,-0.61896 0.71814,-0.13342 1.60355,0.12329 1.17056,0.33939 1.86468,1.14261 0.69403,0.78689 0.70062,1.82999 0.004,0.63565 -0.23257,1.12017 -0.2366,0.48453 -0.93738,0.99713 l -1.8934,1.41953 z m 3.21018,-3.8359 q 1.21558,0.35245 1.84988,1.17083 0.64923,0.80643 0.65726,2.07773 l 0.022,3.47156 -1.21554,-0.35245 -0.005,-0.71713 q -0.22263,0.3259 -0.65649,0.41159 -0.43396,0.0694 -1.04923,-0.10901 -0.61529,-0.1784 -1.08194,-0.54147 -0.46667,-0.36307 -0.72436,-0.84448 -0.24271,-0.47708 -0.24588,-0.98233 -0.005,-0.79862 0.53207,-1.13095 0.55218,-0.32795 1.72272,0.0114 l 1.42566,0.41336 -5.2e-4,-0.0815 q -0.004,-0.61936 -0.35114,-1.04538 -0.34732,-0.44235 -1.02264,-0.63815 -0.46521,-0.13489 -0.9144,-0.10245 -0.43426,0.0205 -0.74765,0.20621 l -0.50162,-1.15412 q 0.43292,-0.23236 1.03208,-0.23761 0.59903,-0.0215 1.27432,0.17429 z m -0.14798,5.0166 q 0.49521,0.14358 0.85385,0.004 0.37363,-0.13571 0.53592,-0.52789 l -0.004,-0.68454 -1.32062,-0.38291 q -1.11051,-0.32199 -1.10556,0.46033 0.002,0.37488 0.27392,0.68137 0.28659,0.31085 0.76682,0.4501 z m 9.66904,-4.50107 0.0522,8.24701 -1.23056,-0.35681 -0.005,-0.76602 q -0.31247,0.33239 -0.77634,0.40939 -0.46387,0.077 -1.03415,-0.0883 -0.78033,-0.22629 -1.41302,-0.7839 -0.63275,-0.57392 -0.99726,-1.36286 -0.36459,-0.80526 -0.37027,-1.70169 -0.006,-0.89642 0.35016,-1.47653 0.35575,-0.59637 0.98365,-0.78851 0.62793,-0.19211 1.40829,0.0342 0.54022,0.15664 0.99167,0.48275 0.45148,0.32614 0.7692,0.82499 l -0.0193,-3.04783 z m -2.85117,6.29892 q 0.46521,0.13489 0.82394,0.0111 0.37372,-0.11939 0.58115,-0.48224 0.22241,-0.35849 0.2189,-0.91263 -0.004,-0.55414 -0.23129,-1.04318 -0.21277,-0.48468 -0.58939,-0.82162 -0.3616,-0.33262 -0.82684,-0.4675 -0.45019,-0.13053 -0.82391,-0.0111 -0.37375,0.11938 -0.58115,0.48224 -0.20743,0.36285 -0.20392,0.91699 0.004,0.55414 0.21628,1.03882 0.2128,0.48468 0.58942,0.82165 0.37662,0.33695 0.82681,0.46747 z m 6.55322,-4.86761 q 1.47068,0.42642 2.28745,1.67187 0.83166,1.23352 0.84344,3.09155 0.008,1.32019 -0.43597,2.11866 -0.42944,0.78653 -1.22171,1.04486 -0.79227,0.25833 -1.82776,-0.0419 -0.55524,-0.16098 -1.0513,-0.43497 -0.48105,-0.26962 -0.84274,-0.61853 l 0.48831,-0.9484 q 0.52762,0.52716 1.36798,0.77082 1.03549,0.30023 1.60141,-0.21897 0.58096,-0.51483 0.57269,-1.81869 l -9e-5,-0.0163 q -0.31256,0.31607 -0.80646,0.38437 -0.47897,0.0563 -1.09427,-0.12207 -0.70532,-0.2045 -1.27743,-0.66321 -0.55713,-0.45437 -0.89069,-1.08795 -0.31863,-0.64551 -0.32309,-1.34634 -0.005,-0.76602 0.3367,-1.23639 0.35657,-0.46604 0.93988,-0.60599 0.5983,-0.13562 1.33365,0.0776 z m 0.12897,3.8117 q 0.64533,0.18711 1.04813,-0.0703 0.40271,-0.27368 0.39911,-0.84415 -0.004,-0.57043 -0.4112,-1.06277 -0.39255,-0.48801 -1.08285,-0.68814 -0.63028,-0.18277 -1.0181,0.079 -0.38791,0.24542 -0.38419,0.83215 0.004,0.61936 0.39637,1.09107 0.39245,0.47168 1.05273,0.66314 z m 6.81894,6.15814 q -0.85541,-0.24804 -1.5332,-0.83499 -0.67777,-0.58697 -1.05729,-1.38028 -0.3796,-0.80963 -0.38519,-1.68972 -0.006,-0.88013 0.3653,-1.45588 0.37073,-0.59207 1.04367,-0.77111 0.67282,-0.19538 1.52823,0.0526 0.81036,0.23498 1.4129,0.76758 0.61746,0.52069 0.93683,1.2803 l -0.98654,0.33215 q -0.24268,-0.47708 -0.6041,-0.7771 -0.3465,-0.31195 -0.76669,-0.43377 -0.70532,-0.20453 -1.18234,0.1615 -0.46201,0.37036 -0.45664,1.21786 0.005,0.84754 0.47376,1.48767 0.46841,0.64014 1.18875,0.849 0.42019,0.12183 0.76413,0.0263 0.35882,-0.10745 0.59625,-0.46161 l 0.99448,0.92282 q -0.32602,0.55621 -0.93894,0.75269 -0.59802,0.18451 -1.39337,-0.0461 z m 5.25537,-3.32424 q 1.51572,0.43945 2.24017,1.30026 0.73935,0.84884 0.74628,1.94085 0.004,0.70081 -0.3071,1.17991 -0.31155,0.47906 -0.95468,0.63421 -0.62823,0.14322 -1.55865,-0.12655 -0.76535,-0.2219 -1.48725,-0.67524 -0.70685,-0.449 -1.20468,-1.00003 l 0.54816,-0.96362 q 0.40744,0.47607 0.96405,0.84894 0.55649,0.35657 1.15677,0.53061 0.70532,0.20453 1.10855,0.0123 0.40314,-0.2085 0.39963,-0.76264 -0.004,-0.60303 -0.44098,-1.03888 -0.43717,-0.43588 -1.48764,-0.74045 l -1.74082,-0.50476 0.34845,-4.11248 4.20194,1.21832 0.008,1.20608 -3.07642,-0.89199 -0.1387,1.74932 z"
       id="path689"
       inkscape:connector-curvature="0"
       style="fill:#000000;fill-rule:nonzero" />
    <path
       d="m 383.8934,453.4058 44.19385,12.6691 0.0273,51.07068 -44.19388,-12.66907 z"
       id="path691"
       inkscape:connector-curvature="0"
       style="fill:#e9edee;fill-rule:evenodd" />
    <path
       d="m 428.08725,466.0749 7.54999,-5.6929 0.0273,51.07071 -7.54996,5.69287 z"
       id="path693"
       inkscape:connector-curvature="0"
       style="fill:#babdbe;fill-rule:evenodd" />
    <path
       d="m 383.8934,453.4058 7.54999,-5.69287 44.19385,12.66907 -7.54999,5.6929 z"
       id="path695"
       inkscape:connector-curvature="0"
       style="fill:#edf0f1;fill-rule:evenodd" />
    <path
       d="m 383.8934,453.4058 7.54999,-5.69287 44.19385,12.66907 0.0273,51.07071 -7.54996,5.69287 -44.19388,-12.66907 z m 0,0 44.19385,12.6691 7.54999,-5.6929 m -7.54999,5.6929 0.0273,51.07068"
       id="path697"
       inkscape:connector-curvature="0"
       style="fill:#000000;fill-opacity:0;fill-rule:evenodd" />
    <path
       d="m 383.8934,453.4058 7.54999,-5.69287 44.19385,12.66907 0.0273,51.07071 -7.54996,5.69287 -44.19388,-12.66907 z m 0,0 44.19385,12.6691 7.54999,-5.6929 m -7.54999,5.6929 0.0273,51.07068"
       id="path699"
       inkscape:connector-curvature="0"
       style="fill-rule:evenodd;stroke:#434343;stroke-width:2;stroke-linecap:butt;stroke-linejoin:round" />
    <path
       d="m 297.97015,411.67648 130.03351,37.51367 0.10718,16.93485 -130.03351,-37.51367 z"
       id="path701"
       inkscape:connector-curvature="0"
       style="fill:#999999;fill-rule:evenodd" />
    <path
       d="m 428.00366,449.19016 7.58548,-5.74417 0.10718,16.93487 -7.58548,5.74414 z"
       id="path703"
       inkscape:connector-curvature="0"
       style="fill:#7a7a7a;fill-rule:evenodd" />
    <path
       d="m 297.97015,411.67648 7.58548,-5.74417 130.03351,37.51367 -7.58548,5.74417 z"
       id="path705"
       inkscape:connector-curvature="0"
       style="fill:#adadad;fill-rule:evenodd" />
    <path
       d="m 297.97015,411.67648 7.58548,-5.74417 130.03351,37.51367 0.10718,16.93487 -7.58548,5.74414 -130.03351,-37.51367 z m 0,0 130.03351,37.51367 7.58548,-5.74417 m -7.58548,5.74417 0.10718,16.93485"
       id="path707"
       inkscape:connector-curvature="0"
       style="fill:#000000;fill-opacity:0;fill-rule:evenodd" />
    <path
       d="m 297.97015,411.67648 7.58548,-5.74417 130.03351,37.51367 0.10718,16.93487 -7.58548,5.74414 -130.03351,-37.51367 z m 0,0 130.03351,37.51367 7.58548,-5.74417 m -7.58548,5.74417 0.10718,16.93485"
       id="path709"
       inkscape:connector-curvature="0"
       style="fill-rule:evenodd;stroke:#434343;stroke-width:2;stroke-linecap:butt;stroke-linejoin:round" />
    <path
       d="m 400.91064,484.71838 -0.0158,-5.07089 v 0 c -0.009,-2.80054 2.2898,-4.40808 5.13385,-3.59055 2.84406,0.81757 5.15665,3.75064 5.16535,6.55118 l 0.0157,5.07086 z"
       id="path711"
       inkscape:connector-curvature="0"
       style="fill:#000000;fill-opacity:0;fill-rule:evenodd" />
    <path
       d="m 400.91064,484.71838 -0.0158,-5.07089 v 0 c -0.009,-2.80054 2.2898,-4.40808 5.13385,-3.59055 2.84406,0.81757 5.15665,3.75064 5.16535,6.55118 l 0.0157,5.07086 z"
       id="path713"
       inkscape:connector-curvature="0"
       style="fill-rule:evenodd;stroke:#999999;stroke-width:4;stroke-linecap:butt;stroke-linejoin:round" />
    <path
       d="m 397.284,481.67926 17.41733,5.16537 -0.063,13.95276 -17.41733,-5.16537 z"
       id="path715"
       inkscape:connector-curvature="0"
       style="fill:#1a9988;fill-rule:evenodd" />
    <path
       d="m 405.23767,490.5335 1.63779,0.50394 0.0315,3.40155 -1.63779,-0.50394 z"
       id="path717"
       inkscape:connector-curvature="0"
       style="fill:#e9edee;fill-rule:evenodd" />
    <path
       d="m 404.00446,489.0231 v 0 c -0.0174,-1.26984 0.9274,-2.03131 2.11023,-1.70081 v 0 c 0.56802,0.15873 1.11612,0.55317 1.52368,1.09659 0.40756,0.5434 0.64121,1.19126 0.64957,1.80106 v 0 c 0.0174,1.2698 -0.9274,2.03128 -2.11023,1.70077 v 0 c -1.18286,-0.3305 -2.15586,-1.6278 -2.17325,-2.89761 z"
       id="path719"
       inkscape:connector-curvature="0"
       style="fill:#e9edee;fill-rule:evenodd" />
  </g>
</svg>
